<mxfile host="app.diagrams.net" agent="Mozilla/5.0 (Windows NT 10.0; Win64; x64) AppleWebKit/537.36 (KHTML, like Gecko) Chrome/135.0.0.0 Safari/537.36" version="26.2.12">
  <diagram id="Sd0oNt7GlWtuMTnRF4Q-" name="Page-1">
    <mxGraphModel dx="3170" dy="2562" grid="1" gridSize="10" guides="1" tooltips="1" connect="1" arrows="1" fold="1" page="1" pageScale="1" pageWidth="850" pageHeight="1100" math="0" shadow="0">
      <root>
        <mxCell id="0" />
        <mxCell id="1" parent="0" />
        <mxCell id="9gKRPX79BNtoWNbofs5v-238" value="\" style="rounded=1;whiteSpace=wrap;html=1;fillColor=#dae8fc;dashed=1;dashPattern=8 8;strokeWidth=4;arcSize=3;strokeColor=#6c8ebf;shadow=0;opacity=40;" vertex="1" parent="1">
          <mxGeometry x="-25.85" y="460" width="420" height="430" as="geometry" />
        </mxCell>
        <mxCell id="9gKRPX79BNtoWNbofs5v-228" value="\" style="rounded=1;whiteSpace=wrap;html=1;fillColor=#f8cecc;dashed=1;dashPattern=8 8;strokeWidth=4;arcSize=3;strokeColor=#b85450;shadow=0;opacity=40;" vertex="1" parent="1">
          <mxGeometry x="-30" y="990" width="431" height="430" as="geometry" />
        </mxCell>
        <mxCell id="9gKRPX79BNtoWNbofs5v-220" value="" style="rounded=1;whiteSpace=wrap;html=1;fillColor=#d5e8d4;dashed=1;dashPattern=8 8;strokeWidth=3;arcSize=3;strokeColor=#82b366;opacity=30;" vertex="1" parent="1">
          <mxGeometry x="510" y="100" width="1440" height="1800" as="geometry" />
        </mxCell>
        <mxCell id="9gKRPX79BNtoWNbofs5v-52" value="" style="edgeStyle=orthogonalEdgeStyle;rounded=0;orthogonalLoop=1;jettySize=auto;html=1;" edge="1" parent="1" source="9gKRPX79BNtoWNbofs5v-1" target="9gKRPX79BNtoWNbofs5v-12">
          <mxGeometry relative="1" as="geometry" />
        </mxCell>
        <mxCell id="9gKRPX79BNtoWNbofs5v-1" value="" style="ellipse;shape=cloud;whiteSpace=wrap;html=1;" vertex="1" parent="1">
          <mxGeometry x="1224" y="-95" width="180" height="132" as="geometry" />
        </mxCell>
        <mxCell id="9gKRPX79BNtoWNbofs5v-4" value="" style="shape=image;verticalLabelPosition=bottom;labelBackgroundColor=default;verticalAlign=top;aspect=fixed;imageAspect=0;image=https://images.credly.com/images/357f688f-640c-47df-8e46-20aaa9e5bf3d/blob.png;" vertex="1" parent="1">
          <mxGeometry x="1273" y="-71" width="90" height="82" as="geometry" />
        </mxCell>
        <mxCell id="9gKRPX79BNtoWNbofs5v-5" value="" style="endArrow=classic;html=1;rounded=0;exitX=0.414;exitY=1.026;exitDx=0;exitDy=0;exitPerimeter=0;entryX=0.4;entryY=0.1;entryDx=0;entryDy=0;entryPerimeter=0;" edge="1" parent="1" source="9gKRPX79BNtoWNbofs5v-6" target="9gKRPX79BNtoWNbofs5v-1">
          <mxGeometry width="50" height="50" relative="1" as="geometry">
            <mxPoint x="1290.4" y="50" as="sourcePoint" />
            <mxPoint x="1299" y="150" as="targetPoint" />
          </mxGeometry>
        </mxCell>
        <mxCell id="9gKRPX79BNtoWNbofs5v-6" value="" style="verticalLabelPosition=bottom;shadow=0;dashed=0;align=center;html=1;verticalAlign=top;strokeWidth=1;shape=mxgraph.mockup.containers.userMale;strokeColor=#666666;strokeColor2=#008cff;" vertex="1" parent="1">
          <mxGeometry x="1256" y="-380" width="100" height="92" as="geometry" />
        </mxCell>
        <mxCell id="9gKRPX79BNtoWNbofs5v-7" value="" style="verticalLabelPosition=bottom;sketch=0;aspect=fixed;html=1;verticalAlign=top;strokeColor=none;align=center;outlineConnect=0;shape=mxgraph.citrix.cell_phone;" vertex="1" parent="1">
          <mxGeometry x="1203" y="-350" width="25" height="52" as="geometry" />
        </mxCell>
        <mxCell id="9gKRPX79BNtoWNbofs5v-9" value="Calling on TFN&amp;nbsp;" style="text;html=1;align=center;verticalAlign=middle;resizable=0;points=[];autosize=1;strokeColor=none;fillColor=none;" vertex="1" parent="1">
          <mxGeometry x="1288" y="30" width="110" height="30" as="geometry" />
        </mxCell>
        <mxCell id="9gKRPX79BNtoWNbofs5v-14" value="" style="edgeStyle=orthogonalEdgeStyle;rounded=0;orthogonalLoop=1;jettySize=auto;html=1;" edge="1" parent="1" source="9gKRPX79BNtoWNbofs5v-12" target="9gKRPX79BNtoWNbofs5v-13">
          <mxGeometry relative="1" as="geometry" />
        </mxCell>
        <mxCell id="9gKRPX79BNtoWNbofs5v-12" value="Genesys Ask Client for Language Selection" style="rounded=1;whiteSpace=wrap;html=1;" vertex="1" parent="1">
          <mxGeometry x="1231.5" y="102" width="165" height="72" as="geometry" />
        </mxCell>
        <mxCell id="9gKRPX79BNtoWNbofs5v-183" style="edgeStyle=orthogonalEdgeStyle;rounded=0;orthogonalLoop=1;jettySize=auto;html=1;" edge="1" parent="1" source="9gKRPX79BNtoWNbofs5v-13" target="9gKRPX79BNtoWNbofs5v-182">
          <mxGeometry relative="1" as="geometry" />
        </mxCell>
        <mxCell id="9gKRPX79BNtoWNbofs5v-223" style="edgeStyle=orthogonalEdgeStyle;rounded=0;orthogonalLoop=1;jettySize=auto;html=1;exitX=0;exitY=0.5;exitDx=0;exitDy=0;fillColor=#f8cecc;strokeColor=#b85450;strokeWidth=3;" edge="1" parent="1" source="9gKRPX79BNtoWNbofs5v-232" target="9gKRPX79BNtoWNbofs5v-238">
          <mxGeometry relative="1" as="geometry" />
        </mxCell>
        <mxCell id="9gKRPX79BNtoWNbofs5v-13" value="Client Select Language" style="rounded=1;whiteSpace=wrap;html=1;" vertex="1" parent="1">
          <mxGeometry x="1231" y="246" width="165" height="72" as="geometry" />
        </mxCell>
        <mxCell id="9gKRPX79BNtoWNbofs5v-19" style="edgeStyle=orthogonalEdgeStyle;rounded=0;orthogonalLoop=1;jettySize=auto;html=1;entryX=0.5;entryY=0;entryDx=0;entryDy=0;fillColor=#f8cecc;strokeColor=#b85450;strokeWidth=3;" edge="1" parent="1" source="9gKRPX79BNtoWNbofs5v-20">
          <mxGeometry relative="1" as="geometry">
            <mxPoint x="305.99500000000035" y="1292" as="targetPoint" />
          </mxGeometry>
        </mxCell>
        <mxCell id="9gKRPX79BNtoWNbofs5v-20" value="Route Call to the Wave iX Translate configured for Spanish" style="rounded=1;whiteSpace=wrap;html=1;fillColor=#f8cecc;strokeColor=#b85450;" vertex="1" parent="1">
          <mxGeometry x="246" y="1038" width="120" height="60" as="geometry" />
        </mxCell>
        <mxCell id="9gKRPX79BNtoWNbofs5v-21" style="edgeStyle=orthogonalEdgeStyle;rounded=0;orthogonalLoop=1;jettySize=auto;html=1;fillColor=#f8cecc;strokeColor=#b85450;exitX=0.5;exitY=1;exitDx=0;exitDy=0;entryX=0;entryY=0.5;entryDx=0;entryDy=0;entryPerimeter=0;strokeWidth=3;" edge="1" parent="1" source="9gKRPX79BNtoWNbofs5v-50" target="9gKRPX79BNtoWNbofs5v-146">
          <mxGeometry relative="1" as="geometry">
            <mxPoint x="-484" y="1122" as="sourcePoint" />
            <mxPoint x="172.80000000000018" y="1345.9899999999998" as="targetPoint" />
          </mxGeometry>
        </mxCell>
        <mxCell id="9gKRPX79BNtoWNbofs5v-22" value="&lt;font style=&quot;font-size: 22px;&quot;&gt;Wave iX Translate will route the translated call to the Queue of English speaking agents&lt;/font&gt;" style="edgeLabel;html=1;align=center;verticalAlign=middle;resizable=0;points=[];" vertex="1" connectable="0" parent="9gKRPX79BNtoWNbofs5v-21">
          <mxGeometry x="-0.1512" y="-1" relative="1" as="geometry">
            <mxPoint x="-218" y="165" as="offset" />
          </mxGeometry>
        </mxCell>
        <mxCell id="9gKRPX79BNtoWNbofs5v-32" value="" style="shape=image;verticalLabelPosition=bottom;labelBackgroundColor=default;verticalAlign=top;aspect=fixed;imageAspect=0;image=data:image/png,iVBORw0KGgoAAAANSUhEUgAAATUAAADLCAYAAAAP8ATZAAAAAXNSR0IArs4c6QAAAARnQU1BAACxjwv8YQUAAAAJcEhZcwAADsMAAA7DAcdvqGQAAD2FSURBVHhe7Z0HfFTXne9/0/uozKj3SgdRbTAGl+CKe01cY8f2vrdJdjebl7J5z5v95O17G2/eJ5tskrUTO7HjuOOCK7bBgI3pSCB6EUJCvWuk0fSZ9//fmQGBBUgwwvHw/9qH0dx77jnnHn3+P/3/956iMk7/TgRfQBVNfj+KM+2457b5+M4DS7Bm0248/Zd1WLnuIGDTRrOeD6iFWk8IF03Mx9NPPYoUmwE/efxFLFtRiwGtBlCPcAuJRk39EQkD3ggqC9Jx19KZ+PF3b8ZbH27Bb36/Cuu3N1Kf6GKZzwMqDZYOteHGgXaUe90IqYEw/9oE4QKHTIFgTQjTP6F4ou8h+sevgtOWhisWTYbBpMPEiiwUZdiAQX8sHxn5sWso0f/nzAnt4ER1BCKwp5tQPDkDxblpSLNZMWVWEUoqMkhkqJ3xfPFruIxzJRIr61gbuHyqi+rLT0/H3JllUKlUmD61FNn2FKi5HcGT+oMTlyMIwnkjKmpstK4A0DkE9AwCHW76mZLLA4tejbLiDOjIIyorzENeeT6QYqQ8nmiebi/QRanHRyLIRqyUeHaoqTlDJA5cXielXiqzl+poG0CJzYKLq4o5k5J1+pQiVOaSqLVTe9u5LdR2bksvCe4A3ctZw+4O1eHnsqjMLr5HSlwH33PfALJT9aiaXqTkLs5JR+GEbNhtJqCJ8nH9nOJ9Qh4mNFSeeFGCcF5QGSd9OzJ9YibmTslDSY6TnAsyQBKmQNBHthhBRUkubrh2HomamuxSjU07DmLd5v0Ikb1GS6CjqjBc7iHsPNiBTzfWYSjMhjwWK+a8lKis6xdWooo8QpNOSw4jhZbUGI+HwuBCB+bPK0dlUa5yRXufG1u2HUJ19T5FDA0GE10eFY/2bhfeXr0d7f0Bug9qy2iVlurnrCrSxJmTHLh4WiFyMtPJ8Yv2iT/gQTgYxMxppbhmyWzoNNEQfEN1HbbtqENfTz/0JrNyTI0wel0D2H2gHR9yuG7gMHksfXIGJPwUhBFRGad8N1KYacFVl1TiuiumU4hZqJwIhfyKDdqsJmSkp9ER8uZIMfoH3OhzucnQWXCidHT1YMO2g3j53e3YV9cBHz97GrMBU35VBJfNLMVNX5uChXPKYbFYlTP+YAAWsxHONCuMOn5uFUGAtKpvYBC9vf1KHq3OQKITJBE5ihWra/H+6v3o9wdJpGOCNpowkJscUUFFZRdTn1x/5SQsWTSVhL2ATyAY9FMxYaTarch0pMYvgGvQi/7BIXi9Xmi1BjpGzmVHFwn8AbzxUS1q97cCOhbcsfbJaYiJ2lJXC0rdLm42664gXPCojNP/LgJfENPLsnDdZVNw7ZLpmDyhCGajbpgunWwu0ROBUARHjrZj3Yb9eG/lTry3kbymcwq1wkg3mbB4ViluvXom5s4tRW5mmhL6nq7QCAlWr2sI1buO4J2VNSRotWjiUJG8y2M3MaZnW3SdN4jZk7Jx7eVTcc3lMzB1Uj70Wi3pEpfHZXGifDGxH96+A3VtWLtuL5Z/XItVNYeoHadu+1lD3uONBjdu1rhQGqZQVxAEhdjbTzJOTxCpei0umlOA733nNkwrz4TdZiSNihsxGzATUUTER65SfdsAXly2Bu+8vQ3767qA9KiXctaEqC4NuUnuIEocKXjk4YW48ep5yM9Oo/By+NvW420JhkIYGPDis00H8MtnVmFjzZGoV2QgsQlzvmgIG01jga4dDCDdbsAlC8rw429fh9K8DFgtJmhYuI/1SbTsMFXnI8+wh8Li3/5pJd5+YyvqmnuBDCOdHwe8Ydw9MxNfn52NSqctdlAQhONDOuhfFXleukAYJpMB/+fHS3HT1bPgSEuJnjwmJKR/Xh8O1rfgwf/5PBoO9ZLAhRHSklUnKrwi0dT4IrC6VFhy2wR899FrMXd6WezkibS09eC1N9bhqd+tRZPHh4CJREwTvaVzhmI6dVgFLSmWhWLSJ352G4WjM5Dl5HCcOd4nAxR+bqmtw49+vgyNBwcwGKbQV0ftGHMYPko6vXj0/kX41gOXYnJJduygIAgnjlPjn/jFYYcX//IvN+Gu2y5GUU567ETcgCMYIvHYf7AJt9/zO7R4hgAzeVH8kD6R8LsGiqomT07Dv/7gdixZOC12Ik602YcbOvGbZ1bg5be3o5ffWOpOH6qOCeXFASVPCGoKZ//jN1/H9VdVKSFxlOP37CJR++zzvbj3gf+CP9WEsJ6uGyc9U6D2PPrgYjz68BWYUs4vT7g/xrNCQfhqMEyJ2Agp6cjj0kfgSLcjxWo6fm4YehKO1FQ7tHYjqSIL2vgYk1qtRnGBQwmDo7DhRsUsjsmkR1FRFmkZiVnC7TreJ5ToPp0UEpuMHGJzJSdWZNTrqE8sMKQYoGJBS7DGnwp+FBD7KfYpCBc2XzA9jSqCnBI7igrSkGozKc+Jmtr68O6qWtTua0L/gAdarRZpqVaUTstVnjGNy1gCCoU1vhDmV5VSuBcNgdkb2rT9INZu2o2WDhdCVK+VhHfOrHKYeNhFkAybPatEKRsLRiQMHYlaZpEN+XlpylvYIW8AdUe78cZH1di5r5H6ZAh6ErVM8uBmXVwCM7+hDcbKEAThvHKip0Yhnz6swcKLSpHhsFKYGVDCu+UfbsNj//Q8nnz2E1TvqEd/PxkxeWtL5pQgx2qJDrpNOCRqmggmVxTDbjWjp38Qm6nun//2XfzkiVfx7ic7cJTElh2p8pI8pKSYSGz5uvjbyERA9xUMw6LV4KKZechIs8PvCypvN196exPu/cEzePLPH6Nm52FF2FLIc73la1VIVempT7gdgiCcbzTarIt+qmgb60AgBIsngvvvmYeZU0tRs6sB//Hb9/HMbz/CANnoni0N2L23ASFtCPOqyukaPzavP4SjLX0Uf/GzrEShgoq8HXO2BX//4JWKw/RfL3+KH//7Wziwrxdt7R6sXbkbR4+2oKg4BcW5GdhRV4/Wjh4Muv18V1RGAoSWH/KTOGWRd3b3nXMwc0oJ1mzYh1//ZgVeevZzBKiePRuasafuKN2/GlMmFCPFpsb7b2xD16AnwX1yEu4gZlcVY/bMEmQ67HSA7zdRYi4IX11iohaDQi2jQY0lS+bhgzW1ePnNTdi2pwUuthWjCiEKw1yeIPYd7sSamv0oyM3Fll31aO7uRcxNSgzkMaZZ9FhA3pFZo8Ffnvsc7360E50eL0W6EYSpHQHSi/bWQdTtbIEnNACfyoSjTT3o5qlNSlsSIGpcRCAIJ4Xh114zHy+/vQHL3qvBjoPtGOQRutRXIarKNeTHnv2tqN3TgLLyImzYWYden0+JhscNETVBGJETRY1jOa0KniEfNm6rw4GGLgz6A2S8ZLkcqGrUyrzu3gEvGtv70N/nwaGjbRj0UZ6Evv1UKWPBVCQcB/Z2YcvOBrT2D0THn3E17EFR8ngD6Ox2oamjC009brR09GPIH4yeTxRUVoTSgNuNTzcdwOGmXrhJ6FjQFA0hgfWHooN/mztdiqgeaGqFm8JUnlI7boioCcKInDikI24Tfp7YSa4Qv1EcUSD4GCWeV8ljwjiP8oA+UcTKUpF4DNDP/PKT30COVAePemXh5bewiuIlsh0ECz1P++I+UekUYT9ln3BPcp/wTC7lugS3ZTixIR2PPHQ5plbk0QFWUL5/QbiwOdEK2Cg56QyU2Ds7lVFyJjIinv7DHtqYjZevPx2xhvD8UiuVz9OdTlUHr+yhDLPg51fjICLKkAkqV0/KymPgTtcnFBor3iR36xn7hMsVBCHRsAWOH+ytsGfDiX9WIGNWkzczWqNm0VKxYCWqqVzOmQRnvDmpD1gMle/jJMyCcAGRKKUYGfZyeMFGjox4oUeDFpm8FltYic+ULGeEQz9OSiGJIAKHyYB0SlAlqsyxwPdN4hWmRFGzTa+hfqH+UPpEEIRzZXxFjWFhIydETaHbpMo8LJ5TCfSTNY92dVol2yjzjgZ/BLMmFmDhrGLkp1uUcWiJLH50kLCRB6omkZ83sxTzJhcBA346zCN2R98YXjFEdSwcFg9PEJgTXxSMF2SrhfnpuPuG2SjKSMXffv8vQIqeHJbzbIh8p/1BfP9vrkRRYSpWrN6F91bvi85d5TBXYby7g++ZEol9fp4d//3rizDU58X//uV71CfkvfHMiNEIVF8AD1w9CfdfPRETs3ltN0EQmPEXNS7dG8Qd183Ew3cthJrCrdu//QcMDvnJWaOT51PXyDvUkZf47z+9FRfPLcV7q/bgZ//2LuCgUJRfRiiMt6gRHPV6Qrj1xin42/uuRGPLAP7+/76K/n7v6H3nsBo3Wr24xe5FGa+QIgiCwviLGoeZnW784Ps34t47L0HA78f//q83sfLjegwEKQw9X4+SqB2qYASFuRb8/Id34bKLKrFq7S7c89AfgEwKQ/XcDZQUT2mc4cF+HV488cSduOna2ejq6sfv//IJnl9WizCvIcDvC84Er3zracf1rlaUDgzEDgqCkDgLZq+LjXV44vmPfjpHXkVZfgbys1LgSLXgioumwuQlF22I4tKTr1Emx5+j+zZSWzxBqDs9uGr+BBQXpMNiNaGwKBOV07NhYBXx0jU8h3X4NaN97ncq+Prh5cUTv+g0GTB1QiGyHHbkZKVhzrQKqHjDFt6V6uT8yvCQEfqE7pN/gVoeqMxDSZRE9yJJ0gWcTpxRcDYoQzVUMOt1KM60wmE3HktpNj3S7DrMm16MG6+dhRISETZAq9mI9VsPwmBUwZlmOpY/w2GGyaiJjnVlQTwLbTOQYTutBpTmpiPVokO6zRBtCx2z08/33DUf0yYVKpPkg+EweoYG4eofUoa6OewmZKZYkW7XI9dpJz0Jw8ubIZwVKqRYDCjJtSn3mE71p9uifZKRbsKMyUW444Y5yMqwQafVIhQO4dONu+BwUn+kxvokxYhM6hOLUR/dsZBfasT7RKVGZWAQE/1uOEIBZdYDJ0XlJEm6gNO5h58samRwmWSEl83Kw4SKAhIWHt3PjkqEHK8wJpcWYN6sMjJgXkKInBFfEE+/vBZDgx5lCBvDjfCRcW7aXo/t+9vR2Udei5qMeIzYSBTL89Nw5fwpsJn0x8rniQcBquQ2Etci8hqNBj0GhrzYebARm7cehtvjgU6lJaHXkcAE0Nbhwsoth7C/sTvaWWOFPM7CbBvmz8hFFQlYmLxAXvuMN4LRalUoycvBZQsnIi2FQl9SqnYKQf/0yifQUFipjo3pY0fPF/Zj/bbD2HmgA139vuOhqewmJQgjkphnaiRqOeRd3LCoDN+460pMKM5WdqGKruUfh6vhxJYXt75o1QHyQPpdg9i7rxm/f/VTfLKlDj2DATozdlGzGDSYXJyJh2+/FJdeXIlcCu2MPA5sFLAIe31+RdDeenczXnq/BrvqOyi+i2UYCxRZ52dYcdXCCnz7m9ciNzOFPFQKdE/ok/j9fbFP/OQh9vQNYveuRvzqxY+xubYZ/dwn8U1cRNQEYUTOPfxkyKDcngB27GzDiyu3Iz/LjvICB4zK9CVmuDgNN+Ao7Z19eGX5OvzT/3gL2w60YSh2PG7gY4GjxbaWQXyyrBYBtQcF1I4sZ3zIA7fjZMvnY1HB9Qb82LGvEX//+It4650daO4ZQIRXsR0rPDyE/h9w+7FzXzuefWcjJpXmkMCmwEyhZJSTBXu44KvQ2N6N10lYv/vYSzjY1gsvH1cEMdYnsfBzAoWf6UEKP+n0mGerCUISkhhRYyhkCqtVCJKHsn/LEbQ2dcHuNCA/28EnKbFBRg02jtvrw+qNe/C7P36M15fVoC3gQzABa/sri+CSc9bY2Itd+5vhDwdRVuKksJgFJS6UJ1ZS39SNF17cgCd+/gEOkKC4wyGElbmtZ9MYqiNWDUtXMBTG7nVH0NvbB3uagcQt3icnJ2CIYuQVa3bg9898jDdfq0aXNogwrwiidF+87YSImiCMSAJFjZIyul2FXpcb7W19CA8FMXdOCfR6/bHnRMPZc7ARy9/bhrc/2ImWPg/CRrLcRAzI5SJ0KmUsXGf3ALwknrwq7QTylqKcXIcKL720Ec+/ugm7jnbCr4kgwu04Nlr/LOHLlSLUFEq60NHcA4NGi8mTC2DhaVojsHN/A15bthErVu5By4AbsMYWFji5KSJqgjAi/Pc/sXCJFh3aXUM4VN8VHRUxzMEYDu9o3tVOxt46eNx4E4lRo4SALa19aOnopQPckJHqUKGJBKe5u5/aoYkKa8KawgVRsmlR196Hg0e6Eea3FqfA43Gj5UgvOjopCLfHQ1VBEEZL4kWNbZhsNj3ThtKp2cq+ofxwPBgMYdDtUTZPiVNakI38XOfxh9/jQSCMXGcqpk8tjh2gsHfIS+3wwMeLPcbUa/LMbEyYlIHE7y0QU/WwCpZMKzJL+Blf9C0wC/6g20se5fEd1iuL85CdnQqtnsT1FH8MhqN4Z/Hui1UlSdKFnBIvavwKLuhFYZYN0ysK4wfR2+/C5u0HsHbDrtgxIMORhvS8NMDBbyfjYxUSjC+IHHsKplaW0pfo7VbvOYS1W/agsZW9tygTS/NQQSKrDMJNOCSUgQhmlGRjZkU8BA7DTQK6ccdBbN1x4NgxZ3oKCic64Syy0Ncz/3ooUFY2tld+JoULU/9LknQhp3GYJkUW1uHFjVfPwHf/7mpcNK0Y22rr8cwfPsaW6nrorWbMubgUf3PfYpQXZ2Pluj345TMrsWH7UURXjI2WkhDIS8u0mvDoNxbhf3xnKYZ8ITzzwgp89O5utB3tQ0mJE/c+eAmWLJ4KfyiEp37/Cf71F+8BuWa6mAUlLv/nAv/pIFFrCeLBexbg4QcvxcTyfNTsb8Nvn3wX+3c3wWQz4OIF5fjet65CpjMNb6+oxtMvfUbCexgwn0rs1bFpUkdQPNCmHIkktPME4avJOIgaiYE7iIfuWoiH770Ue/ccwXvLa7CehK293w2dUYd0pwXzSwpx862zYE01Yc26ffjN02uU504Jfa7mCWLx/Em4/foZqCABe/n9ndi8dT8aj/RicMALm1mH6ROzsHjxBFxzxSxs2lqPn/3iTbiUye3cjgR1DRfVG8AP/vYqXEF17dvXhhXv7caGA/XopzBYp9OQmFmwaGoZbrlpjjK5/r2PavHci59HJ9uPhF+FuytsuKvcggrLmT06QbhQSLyokQFbdDpcvWgKZk8uwHsrtqN6Sz28PCxB2TKOquPHVt0BXL6oHLNmF8Ll8uIPL6ynCxMvalcvnoJJ5Vlo7ejGKyv3UGhM9StvNul8MASVx4+8HBuuu2YuQuEwPlpTi6PdHjqZwG6h6kwqDe64Zjoy0ixYvWY/qqsbgHQTeafUEGW6AyX6Y3DdlVMxbXo+6ho6sWx5dXSJppHoD+Jbt8zCw7fNxcSirNhBQRASL2rqELLMFpgNOgz5A2hv85JF8/Ho6RNw+ZDtsCA1w4J9vHdoosMnEorSHDtC3hAaWgZibxNZUWNwdTzUhMQEdCotxYxUsxH1HYN0gvMlomuoDAo/HUYzbFYNhgYD6GgdIrE6xSwHlx9FeSlQ0x+A+k5efeMUfdLhwWMPXY5HHr4cU44NVREEIfFxi0qHdrcPR7oG0c7zNy3knZ2qllQj2nwh7G8gQRvLvgWjhbyg+g43GkkoYOcwbpigMVwdv4I0kcBo9OgdCOJIa4KX8WHRpD7pJo+woWMIHbwyScopQkomRYPGPje1w6WI4emIkIcXObYP3+nzCsKFQuJFjW2LDFlZlkwxytMYGwuKOoIID+ngNfsT7akRvCFVhLfxU9px0u1ydcqKt3SeR+vzoFt2oKhNUcVLADzmIszCRn3CO28plZ6mbOq4CLUpwlOiRvH2UxCEExml1ZARBnxRETqT8EQoDydFKJQD/M/pUfKdodzhhOJ1jBYWtFibhqMcih+nFG/7aMrm9ZECFForWU/Xdi6P8g6vJ3rRKaCyuLix9okgCApnFjUSMl4tenJJOlLM+qg+nBY2Yk6xr4mCytOR95KZakBJnl1ZVigqsmfghLaMkD8uYEq+Yel0UL1mrRYzKrJg5mWWzpT/WJ9wvjPlFQThXBiVqJlIyO68fg6K8tJjB78EqA02vQ7zJmXh6kXlyE2L7QR1vhjuNAXCcOoNuP/2hch1WqMTIkSrBOGvgtOIGp1SngFFwPPMv37jZSiryIPGSJ7JaKPWRBIKwWE2YekVc3HtomnItZKoDfHLhfMAixY/e1M+6R9fGGlqI+6+9UrMmlqAVJ6cfuyBvSAIXyanVie2UR6Rn2rFtddUwUKh52VVBZhRSN6alxdwPJ9QMz1hmAIqTJhQQEJSgXQSOATOdzuIQAT5+SmYf2WZssruJbOLkZ9pi45/EwThS+cUokaHeYiFx48MnQGLFk2BwajH7CkFmJBNosYb755PyAuypxpRUpmByuIspNmtqJySg/xiags7a4le3eNkWK+U53ek9P4w8jJTMW9uEbQaFeZMLUaONUURXUEQvnyiMVWQlIHHT/WR58Njy/iznz69QWVZ7umTC6DXaVBWlIW8/AyoeLiBko+viaVBKuOco0FqCztfg1wmlx+ro9+LnDQzplcVIj3Foqz6Mb2qGJPKc+i8N5Yn1g4XJU+sISOs4XZ6SLiUhRjpOhYxN5UT75Pe2KfLi+wUK/VJqRKNlhXxSiNpsGgpLB+pT5TNUsbaDkEQzhaNNuOin9r0KuRYzCi0pSDDbECmxULJhMxMO2bMLcZt182EyaCDyWjE0d4BNHb0wRlSUx6rkjfLakE6iZ/aqIbXH4g+Mx+zHfMFKmRbzcin8nKoHRncBq7DasCcGYX42hXTUUaeGouPVq+Dq2sQXQ3dyDTbKJ9ZSRnUDotZhyFS2PBYG6Fkp9ZHNMqb3nyzFXl0fxkWY+xe6TPFgIULJuK66+ZBT56a0ahDU1cvBvrdsFB4HM1nRpbNglSLARqDCm5liaME4w5iNgn77JklyHTY6UBMjAXhAkdlLP2byOKFJbj/zgW4/OLJ8Lp9sVNRzCYDsjLia/yTgbqHlE1SfDxXMYaeBK+9ux+vLd+IP72ylZw88mp4TuOoYWPk/CH88FuLcOvXpsGZmkJ1KPKowHVYSNxSSWSiqKgdQ8qKssPhdtXsbcbjv3gN7b1BBHiM2PBlsM8EZVeTBl1zZRkevnsRqiYUwkdh+HDsNjMcaTb6idschss1gIFBD/zDnqsZTHo0tnRi+Qfb8Kvff4YICW1CVvWN0+HBow8uxiMPXY6pFXl0gH8fY+lzQUhONNq8i3/ac3QAHS39ymoRC+dVUshpUcJOTmazERpl1H0ULYVZJpMRVvKobLG0c18T/vzS53jj9Rr0q8LRpbDPCjUO7ekkEQmjsjIXJQVZx9phoXYYlWXBY5PiCd4v00LenM1qpGSBm8Llt1Ztxy+fW4X2Di+CYxU0FlcVj+iPoKPZhdamfuj1Wkybkg9nWsqxtpiM1A6lT/g+ecs7LfWTifqE+y3aJ9W1DXjxhU148/UdcJspX6Kf+5GnNmdWKWbPLkWmIrAJLl8QvqJEJ7R7QxRuGVBWkoEF8yvx4C0LUJrvIOPlOUNxUTjRaPiRUz95KMs/3o4Vq3eiekcDjna4AROLzlnCAkSeVjF5aYtmFmPp9dNw2aUzSCSMsQxMVEiGt4dX19hWewjvvL0DK9bvx662TsrCghYTwPgtjIpY+eRs8gbI5UWZWHzJBDxKXluWw6o8W4zChUY9teg1KqUdQz4vXntnKz5aVYtt2xvQ1M1Llesp+5gacWYGgrjv8nLcd0UFJmRHV9IVBIEs8dgqHRw6kX1aSEDuXzILt900G1Mn5yPFxktsxA2YiSAQCKGDjPXN5Zvw6kfV2FXXAo8/xNujR9XubCEvT4G8kFStHhfNLsQNN8zBkkunoTB35IG//QNDqNnZgNff2ICPVu9DYw8JK6/GoaIYkkVNGckfyzwmSKh4OhY1Kcdhx/3XzMatN88m4c8krzE+If24wPoDQTS1dlO4uRWvr9iOA3VtGOAwnMf1KRNhE0xIhVsygNucEZTrzqHPBSHJGLb0EBsoGR+v0d/kwuP/civuvvNilOQ7o6eV81EG3F7U7m7EvQ88iTavJ7oOWiKfFzGBCNRDEVRMSMHPf3IXrl40PXYiTrTZdUc68f+eeg9vvrQFfezpsVekhHoxgTwnooLFS3yrmwbxyyfvx/VXVylDOob3BzPgHsKn6/fi9vv+E2DR45U/lMUmx4nYZsbXu5pROtB3TLfjn4JwoXJc1JQlciiRc4HGIfz8iTtx5+1zke3kN2vDDTgCj8eLfQebcfut/wny0WLhVYINmDw+nnM6d3IW/vl7t2Lx/MmxEydyuLET//nsh3jlrc3o9fkAHYlJotoS9xzpFtXNfvzqD/fjuiVTkav0CXO8Ho/fj/VbDuCGm36JSBb1B4ep4+GhxYmJmuzQLggnErU69mzYICIUQmpJ1fL0yCtKhyM1+qaRt3Rr7+yBx8tvRlUwGAzIy81A2aw8WG1mCl2VbImFmqLxqikELUVmRlxEWFKBQT+FwBwaEnabEfNmlsPkIe/Im2Ahia5bBOjVUBUaUVCUCruFQ0/etDmMnp4e+uSbj1DkrUUGhallsxww8Ji1+G4ogiCcV6IKwPrAz55IKPRkjAvmFCM3J0V5u9jdO4D3P67B44+/gmdfWI19h5qVN3881GNmVT7SbSR842LAEWgoVU0uQka6jbxDH2r3HMFP/+MN/OM//xkfrd2pDOkwm/SYXJEDQ4qRVJBvh9uSwPaQx2g16DB7Ro4SdpoMejS39eDN9zbie997Hk8+/zEOHGmjvwtqpKVY8LWFE2HTUVvGQ+gFQTgjsR3aYyIQDMEcVOPuW2ZhzoxytHf14/2VNXh9eTU++GQnmtr7MDDkVea5O9MtCIcC2LGjGa0dLsWbSRikrxoKhdMorP1vD1xOWqXBxq2H8No7m/HKe9XYvP0IBnkfAfLm7CRmWZl2fEqhX+eAG34eP6eM4I96cudMIAKnxYRbrpmEeVUVONrcgw9X7sBrFO6++8lutPQMwO31U0eqlfFrVpMOn605hF43tW9MY/XGCP0SZId2QfgiMVEj4+OH7BRKmcJq3HHbbNILLd5euR3PvrwWW3e0IGDToa19EHsOtqCprRsZ5JVkZKZg/aY6NLT2kKhRmJYoyDrNeh1KSlJwxYKpqNneQO1Yhzc+rFG2EwiTyB3Y3YbGIx3Q6ECiloq2nl40tfSit5/ERPHYEidqmeSN3n7zLPQN+bF8RQ1efWsrttU2k7Kb0dnhwe4DzfQHoA8Ouw1FBRn48ONadLuHEBnXFwUiaoIwEjFRiwsAhZ8mYEJlBX773Bq8/dEO9PM8Sgsph4Y+SWh8AaDuUAfeX1GNjLxc1Da2oGOQNypJoEVRValmPWZOzsa+A6146c+bUL2nFUg3sAsXDZotarR3ulC96TD2Hj4KJ7Wl6WgPOrvIa0zkju+REGx0/xMnT8BPf/UOVn1+AD0868LKSzAROhV8wQgO7GnH5vUHkVOah72NR+Hy+uCPPfcbF0TUBGFETtpNKqLohdNkgMsfhpcnurPgKcbC2dhy+EfKR8lhsWAg6I/lSyBUh5Y8R4s2TPWY4faTQChvDk7yBsMR3lYAJvISDXoVhYERaguFnwl0GhkdCanDoEc3hZnxFxRf0HBqi456z0Ghan/QR0IXpkOxvOOBvP0UhBE5KT5SgSeBdwwMwctrlbGRHDOU2A/8oaZ8FOLxMyyvfxyeiFMdPBa4nxyiXt8Q/LwRysmCxlA7QpQGSYC73Z6ouI7DihgsZG39bvrk53V0YKQqqB0BEuI216AyEHlcBU0QhFMSCz9PQlnldRTiwKHgmfLx+XieuJ3zLlP8DE/hFNfzNWoe1Mv5WHtPlY8St1eR51i7T5E1Cp/nMjnTaTOeCD+nO+O9UlL6JPr1tMT7RekG+ife/tESCz8rfYNII082wiJK5SnFCcIFzEnhZ4Jh4+ZXpQyFZwYSH61WDTfvwqRA5877gyA1zEa1MoLF44uF118GLMTUCBN/kn/sCVNblP35eMDvKNoUn1HQ34wSVz8foMvpj8D57k5B+CtjfEXtGBqoeKJ6thXpqSZs29cJaKnaL8MAqdrpxVkIRULY29yBMD+MOu/wjaupTwKYVJRGuq/B7iN9sRccoxQ1un6ptwPXDzShZLCLvrMg8qMAvl4QLlzOm6hlpxhx4xXTkO9MxeP/axmQYx7fcVwjwXfq8uMbd8xFJgnshi112LS9FdCTmHwJAptiCuObty1C0AX85slVQB55WsqMiFE0JgDcXmrE3ZPSMTk7jQ7wNefhVykIf+WMs6iRoXHpfj+unFuG++64BHarBQ//3R/gIu8kpJw8j4bIVfX68PgPl2La9DysXL0bTz21DkjTk5cUF9hxbk9cezxBLJ6bi/92/1Xo7Q3gp0+8hXbf0Oie3TF9fnzzxhl46JbZmFySEzsoCML4ixqPM+gewLcfvhz3ff1SxWB/9G+vYFNtO4aCfuWx2nmB7lIVjiDbasS//vhWzJ9Xjo/X7sJ3/+FFIN0Ujd5i+cYV1it+tdvpwd9953Lce8el6O4dwv97cgVWrq9DxEAZRtMnHR489s3L8Aj165SyXDrADR+FGApCkpM4SWGb4sc5PI4rnnjMGE9bIu0qKsxGXq4D6akWXDl/Ikw8X9RH54bn5+f2JDznLCx8/QnlUgqEoCbvaPasAhQVpCOHwuCK0myk5lijL1jpPO8tesI15zosgy//Qp9Q4uWdqF+mTi5DVlYacnl3qhklUPGOVNxfw/NzOkWf8BvPCJ+Lfot9CsKFTcJEjX0EHXllOjJYJZFg6bwh6DwB6LNsyCt0Kqt+pKSYcfHcybCRsfI5JV8s6f0qaIMqqI8Z6thRqdTQ0G2d0A5OnhD0fQFcMrscudnpMOh0irAtmFcAOwmNzk15vHQPSn5qN13LuwSeCzy8TkdlnNAOTmoVDIXpmFyZi4xUKxwOKyaV50Pv9kb7bHheulZLfaU6V4EVhAuEBISfpIuhMPKdFixdPAF6tYYctBA5GFQs/c8remQXOHHz12ahsjgbYRIs18AQ/vMPH6Crv49ViARRQx8qZdXdQ42dqN3fjvqWAURdqLGghtOuw+SSNMyeVgSvO6DUp0AfVAu+cfelmFCaC6vJhJ5+F1av345tNUfh9ngUZSZJRUQVhEFtxCfVjdh9hN8ssrs1RshLLS9wYEFVEdJMOvjJCwzHvCm9Xo+CvCzcecNcZDnt5CBG0NDcSX2ynHLwsIxoGMk9Y9Bo0NDRh+q9rWhspz6JTwGTjVcEYUQSIGpkZOTpOOwGLCKv54Gb5iMrIx0aHjNFJsqek8VqQma6DRaTXskfIhGsa2iHzx/fuYqEhAz7QH0r/vLGJmzYcRQuX/AsRE2ljPuqyE/DfbfMxtyqCpiPLb1NZ0ksCvOcyiYuvJlMIBBUhK2ndwjBUHRmRCQS3dJuxcfbsHzVHuw/2jN2reDFJclrzSEPbNHsIjx06wLY7RTmaqOzInjVEd7AJctpUzZ24XZ7vH7qk1al/jh+fwD1jV146tXPsWN/GwaG+BlkrE9E1ARhREaeUXAWhEmoBoe8MER0yMt1orw0C8UFmch0piDNboZeEbmowaop/OIt5rLoXJYzTQkF99W1Yc3K/dhY24h2F78FpLzH7XvUBElg/RSywR+B1a5HRVk+KkpykJORqrTFQCLCa58xvCmylQSOF3fkdvDOWd0uL1ZuOIR1mw/iSHMPPDwNLOY5jRplxoJa8cB8niCFoBoU5DtQXpKNovwMpT7e+0EzbOoXr12XSeFwlpJSFHHbf7Adqz/Zh/W7GtBLoekJ/SH7fgrCiCRG1MiWONzs6/Vh0/p6eD1+8soMSE2zwKasFBvLdCxFvQ3erKS1sx/rthzEMy98hnfeqUUnh4G8IxXrzlgdNYbEkOejHtzXhv1HjkKt0yMtxQY7hbY6xVOKFxoXgOj3vn43duxuxLJ3qvGLZz9GQ1MfPDyXlAR47ESvYYHt6hrC55/tR4jXqqO+sKeaYDYaYsXGPSv+Er3GR23nDVxWrd+N515ajzdfr8EgD6o9eeURETVBGJGEeWqKN8NjvYx67K1uwqG6VuitGsydUaaEoCcaHP+sQmd3P156az3+7XcfoGZnOwI2Oh5fbPJsBC0OFRMxatDbF8CnGw+i1zWI6ZPykZFmpZNx44+3h7+rsXbTbjz1+0/wl+c3RXejUsaLRXOcNXw9O6gWLXaub8Dh5jbobTpMqCiCMRaKntgWFdo6evDki6vwuz+uRu2uNkQy6Y/CSEspiagJwojEXYXEwSVmarG/sQ0fL9+B1vZu8lhGfo24p+4oqrc0oP2gC7BRyBh/XpQodGTk1J7DR9rx2YY9dICfOw0XkeN8vOogVlc3ALxpijK2hFOi2kMClqPD7j0t2PTJQfLe+mLHv8juQ0exe0sLOo6Sx2qPD54TBGG0JF7U2AEhr82YaoAj34wUuxVq9npGIDczHU7yngK84Yvq+DO3hMHFeUJI1RuRn+uIHTi5juj37FwrMrPNpHssfImGytRq4TfroUszISO2oc1IFOc4YKUwld8gK88VBUEYE4kXNXZugmHkZ9sxdWqB8qZRTSLX1TeI6l1HsLHmADyxpXLys53IKnJAnUre0Xit1uELITvFjCkVPJWI64hgz4FmbNp+CA2tPFwjypQpeZhcmq2IYOKhTvGTYBU6MaEyR3m+x8d6+93YsuMwqncegddPGYiCXCcKip1IcZLAnrZPuKNP9iTjxyRJunDTOIgaGaIviHxHGqZOKFK212tq6cHqT/fiuVc+w9MvrcUnm/ajrduljNfKIg/KmZ/Gr09jBSQQEk6TUas8c8px2uBye7FzX5OygcszL3yKdz6oxsH6Nrg9XlQWZaOcBEVZr1x525lIkaWyPEFML8pAVUX2sd3cV322B398aR2eW/Y5Pt92CD39g9AbDCgtz0BhIfUJzz44FfSbU1qpZOF/EtleQfjqMg5zP9VQtbtx3+3z8b3vXw9nilF5s/nCs+twoLEToO+WdAv+z/dvxNWXTELdkTY88+pneGPFzujmLYm0TX8I5QXpeOTuhbj3tktQu68Zv/ivD7B16xH0tw0hI8WKpXdMwwPfWIiKwgy8+Pxn+OHPliGsiCw1JMKh6Ll2D98QKVDHEL7z2EI8cM9CWI02vLp8PZ56Zg2ae4fAGzAX5aTj//7TjVgwpxw7yaN99tV1eP3DXYD1FM/V+vx4jPr4W19fgEkTyMMch79PgvBVZFwmtKfpDfjGDXOxcH4F/rJsHaq31KGbwjo/j2PQsHuohsOrws03Tceci8vIa3HhZ//2LsBhaCKfI7kDuGvpLCy8uBR9XYN48tdr0KsPwwveP4Af/0VIM1SwZ6Xhuw9cgbDXj9+/sAZ1lDfhhNT4/iNXYkJROt5+dyvWrzuEfuqPoPIMkqdTqeDw6fD1+y7CtFmFqK5pwG+e/iS6gshIkOjebA7gVrMPFdrowGFBEMZD1MhQnUYj8rJsMJDndaC+G65Bj7KngTJMgj0frnEogLxMG4oLHcpQkM/Je0q4pxYMY1p5JtLMerS39WN/gwswcTuoEq6Hp3LxJHa1DpMzUpBmM6DD68PBNsqnvClNENQnKST0JSRoXG3DkS709LkBA3lhcQeLVdYdRnFeKopLHOinkLhmV8vxIS4nwyvfejtxo6cD5T43QoEQVLw+3VgHCgtCkpF4USOjsui0CAeD8CjPp7TsEtFn9PQJkOgYtBqKvtQY5BU9WGQSjFlH/hgZvMdDbeEpU0pIeRJhEgO3D2ajFsY0M3oG+aF9IkLPGCRqNgoxef6nj1cD4dD2VFPAKGQ2GXWkWSrS/dM8Zxy+m5THHX1bymPfRNOEC5wxihpbzGizc15Op/F42KtgD4Vtl1efjU8+PyVjqT8GCwhfFxfWEYdsDPNwjgnradp9AqNsk5JtuNd1qvIpo1IcfSpvAU5RtmyRJwgjMtzKRgFbzWgvYWM8gzCwgHCRPERtVIJ2FlbLA3p59yqu65RWT+d5Ejonpc2cRsso28WiqYjUmcqnfBweswifzf0KwgXOKBSKDYuy8eJi0fEDXxJcN6cx6vAx+NrThHMsqmcU1jjcJ5S4T/ia0Vym5BtVRvo/lsYkroIgMGdWiFAYJrLFu66ajiKHFQh8SW/aIipYDTpUVTpw9dxC5KaaT6tR44o/hAy9Ho/cPB+ONGqHgnhVgvDXwGlELWakFJLxW8zbr56LiSWZys/n34CpvgBPd9JiycUTcf0VM5CflqLMFjhvxJ+5sbdKXpTTbMb9Ny/A1JIM2IwUP4/ayxMEYTw5vahRuGQmISkrzsTsqWWompqPbCd5a6HzbcDUliCLmgaL503EwounITPFphw7b8R1nPrEatajuMiJ2dNLsHBmMbJtpugeB4IgfOmcPvz0RZBrteOOq6pgNulxyaxSTCvNAryBWIbzh5pUxWY2obIsC+WFTqRlmqGzkNd4vvQ17on5VSjOdWDRpeX0RYVLL56EwgwH9ZU8/xKEvwZOIWp0WEWehyeIdK0ZC+ZPgNGgw8TyfBSxAfOuR+cT8siyM62YUVWAnEwHtBotLppThhkT8khgg4gO6h1P2E0jAVVTPdQnOeQlzqoqUSLSiRNy4LCYqR0SfgrCXwNkpfS/nzyvHh/Q4qXkpjRIaYBCKi+sWTpUlmQqq8ZmOlKQW5CGlBRdLB9fw8mjzG2El34e1Ru+U0FtGSCRaueyXcfraB9EQaqVhKQUWmoHi8kkErSynBSgqwdoova2DmtLF93H2cDPy5RhHdSOAJXVzf3Bicun/mimz74hZKWYMK2yQLkkzWZBYbkTGQ4KQVuoD5Q28Ce1ndvhHaewNDYvNRwJIhikOgkevaLcgiRJF3IyTvlupDDThFnlBZiQy8vzxL0w+jSoUD4xF/feMp++k6GTEW3ecRhrP9sLtyIcfIy9mAj63AOoqW9E7YEuclroWp7nOVbokvmVuZhWmIU0K685xmXwILYgyioycdH8SlTy8kBER+8ANm06gG0b99E3Xson2ha3x4eG9i6s3XsYgyQoYRbZ0TYleivkpKpQkm1EVVkRCp1OGHj60THCmENe4tKls+hnviCMTzcfQPXWevR1kJDF+olTa78b24+0o3ZvQ3S6U/xlQ0JQYamnHdf1N6JkoANqrY5awvtVcd2CcOGiMk76TmRahQO3XDUTN3xtJsqKMinU1JP9xQ0waqDHjTVO9OdgKIy2The2VNfh1fc2YeXnhzDID/DPZmI6eUl3XDYVty2pIuEoR14WL+wYJ15eXHT5+/A2Av2uIeza34L3Vu/C88s/J6ENIcjjvVi+RwWVF1FBFQyjakIGrr+qCksunYJpZbkwmVg443B5nE6+x+ixQCiEptZeErs6vP5BLT5eu4P+QFD/nY3Qnwpyrm91qnBbqg+lkX7lUJjEX0RNuNCJTpNyBeBMM+PyRZX4x28tQVlJDswmg7Jn53ED/qKoBQIkaD39ePP9zXj+1Q3YdaAXsHE+Pn02xkXXtvswa0om7rl/Lu659QpYzAZoSCD5v6iIsKid2BY2ZPeQH5u31eFPL32OZe/XKEscKfEYt+Ns2jIUhMaixw1LpuBHD1yOiRVFynZ2Ua0fXt7xPuJqAsEImjq78cIb6/D68mrsP9gHpPOQD2r3WTTjlPT68eh9l+Lh+xZiUpEzdlAQhKiohSPK/GojWWxeqhE//sF1uGJBFTIdqZQlarBR42Wilhkgb2b7ngb8+x8+xmebD2GIwj5l7dZzdUbCIej9EWqHFZdfPRH/8NgtKMpOgU7x/OKixhyvyB8I4dd//gBvvbQd++q74DZTnnP1ilihyOE0k+c2vSgbP/zBUiygsNNuiw+2jfbD8X4BBod82HGwGY//+l3s3lmPIRLagIbD53jeBNLhxaMPLsIjD12GKeW876cgCEx0NykSswiJQIBszzUUwKGaRthSdMjMtMN+7NlWXCRUGHD7sH3fUTzxr29iw66j6CVBC7HhJiK8oraEqI4hH4VwzS5sralDcUE6ivKGeyPH62ls7savn16BN9/ejkMtvXBzqKnjAcLnKCTsktH/5Iyid8CLfVsOwerQw+HgPhk+iyDaFl5Vd2vNYfzzT17CzsMdGPAGolNNFW93HHAHju0mlUVtUppL/0iSdKGn4xZHX3hdswB91ta0obfbQ84KC8MXxUFF4kW+HWq2NaGn2x0Vs0QImgKVo1PDT7rUQWUfbW4njyf6di8K13O8LvbSOjr60NTSDzfvss7PrhLlGXGfUFvcgQC2balHv8tHUWS8T05sB4fAAyRsG7ceJo/NE32myIJ2NqHvWXG+6hGEv26ionbMNiMkWBEYU8zIzclAmt2mHA1Hwujrd5GA8KDbCEwGHQpzHMjIToXeQOFVwg032iAteV0XzSZPJCPWjnAYPp9PEQ8Ofzkfb2IyZ2Y5TPr4std8PFHtiXUMD1Gzm1FSlIsUe3QnqGAohJ6+fuWTMVE/ODOscBalQ6ss7CgiIwhfBjFRixkviYZGG0HuZDuyC9JgsZhIyMLo7h3E+m170dDUgSGvn5wyEhOzFlULcpGWZkj8tCnliXsIGncIVdOK4aTwKhQKY2BgCPvrmlCz8wjaO13KfqLcxulTS2AMkrjyXPuEeYwMlRVRQWPUwjrJicKiDNgtRuqTINo6evHphp1obeuBx+sjJ1eNbGcq5l9aBIveSG1JZDsEQRgtUVGLL4tDhqj363HFvEpkO2zwk0jsPNCK//XzV/H3f/sy/uEnL2D5yu28Ejd0Og15SEVw8hzM8RhfSsKpNmhQWZCFFKsJrV39eGVFNW78mz/i3keewtN/Xo2D9e0wG3WoKHZCX0gelJluJ6ETy8nrI48wVWPA0jllSOGVc0notu2ux+O/WIZvP/Yivvuj57BiVQ2Fpm5lv85F88ph05DXeLqdoARBGDeiLwrYI2HHglTM4lHjsYcWIiMjFW+vrsUv//QRtmxrQPuQF10DXuw91IHDjR3Iy7IjI92KjRsOo6G5J/YsK0GQMBl1apSU2PHNuxaTd9aK5/+yDste24wjfYPKMtfNdd04QqIWVAUwZUIeag+Q99bRD7eblPjYUJRzhD1YXxg55J09eO882EnAl32wRdnWbgP1SZfPj84BH3btaUFrez+cWWZU5Dvx/kf70DU4xPFzrKBxgO4z/qKAtwCM3q94h4JwXNQY8tb05IHNnFWKLRsPY/mHNdi8qwFubwgREi0feS0d3YNoauxGT0sf9BYzNu+sR2uvS3nJkDDIQbKa9JhY4USIvMIP1+7FqnX7UNfcDZg0ilj09XkU762powdH6dPnj6CltR+9/Z5YCJoIUaN7CoVgM2swvaoMa0ms3lm9E9sPtqDf7ae2aOGj8Ly9axBt1B8u+rSnmLGh5jD6vN7xXe5NRE0QRiQmajE0akQohPN4I1i1chcOHWkH9NroEAkeKsG6RYIx2E8eW+1R9JHIHe7sVt4OJtSgIioYdFqkWo1Yt+Uwqnc3o8vtpfCSx3zFIJH1BIPkJfZi/a56GLQmdJLgDnpIbBImapyoHBJsr0+N99/djkZ+lsceWHzGBPcJne/rHUL9/jb0eHxo7ukjbzJIkWsC2nAqRNQEYURO2niFjYKslEVKGZJwBiPxk0vFBp7Qh/MxlJcFVD4JHPT0M9dxwsYlJ8F5R9PmsRCf3B4mUecHjLw5zOmKj7eZ54rGX76MFx0ePPrgYjzy0OWYWsGDb2NtFYQLnJOsgPWNgiYOJVkc2DBPFonhx9h4EykicbgOXk6IPUQjtUlFnxFKp+N0bT5buE4WUhY3DntPVSzXF69b8WoTVL8gCGOGlSD6MTzxsyT+ZC9J8Y6GpeHH4vkSneJ1cPkRDjmHnTtVOl2bzymxQHGZ/DnSeUpKnbHz49UnX0hc38mwt8Z/mCRJunCT+gu2cnI69iztDMcSnYY9w4t+jqHOhLWPy4mVdboyWV9imnbekkZDDiylY15pvBGCcGGjmjfpm2StwleOgTBuWjoDS6+rQlHO8CWaBOHCRvVc1hUial9RMvLtcGTZodfqY0cEQVCtccwTUfuqEqJfoPz2BOEEVJ+KqH1liW5TIL8+QRiOaq2ImiAISQS/RxMEQUgaRNQEQUgqRNQEQUgqRNQEQUgqRNQEQUgqRNQEQUgqRNQEQUgqRNQEQUgqVKstMvhWEITkQbWuSCa0C4KQPKgO/egJETVBEJIGVYSI/SwIgvCVR14UCIKQVIioCYKQVIioCYKQVIioCYKQVIioCYKQVIioCYKQVIioCYKQVIioCYKQVIioCYKQVIioCYKQVKgikZBMkxIEIWmQuZ+CICQVqu41G0XUBEFIGlQ77/9HETVBEJIG1WrzVBE1QRCSBtVahyznLQhC8iBDOgRBSCpE1ARBSCpE1ARBSCpE1ARBSCpE1ARBSCpE1ARBSCpE1ARBSCpE1ARBSCpUa9Nl8K0gCMmDanXqRSJqgiAkDao15lkiaoIgJA2qo796XkRNEISkQRVye0TUBEFIGmTlW0EQkgoZ0iEIQlIhoiYIQlIhoiYIQlIhoiYIQlIhoiYIQlIhoiYIQlIhoiYIQlIhoiYIQlIhoiYIQlIhoiYIQlIhoiYIQlIhoiYIQlKhqv/dszKhXRCEpEG1Yd7NImqCICQNsvKtIAhJhWqtQzZeEQQheZAXBYIgJBUiaoIgJBUiaoIgJBUiaoIgJBUiaoIgJBUiaoIgJBUiaoIgJBUiaoIgJBWqtaky+FYQhORBtdYyW0RNEISkQbX5uvtE1ARBSBpU3es2iagJgpA0qCJE7GdBEISvPPL2UxCEpEJETRCEpEJETRCEpEJETRCEpEJETRCEpEJETRCEpEJETRCEpEJETRCEpEJETRCEpEJETRCEpEJETRCEpEIV9Hhl7qcgCEmDqv6PL4qoCYKQNKg2zr1RRE0QhKRBtcZWJaImCELSoFrrkD0KBEFIHuTtpyAISYWImiAISYWImiAISYWImiAISYWImiAISQTw/wHURHSN4Nx3OQAAAABJRU5ErkJggg==;" vertex="1" parent="1">
          <mxGeometry x="724.34" y="1778" width="91.33" height="60" as="geometry" />
        </mxCell>
        <mxCell id="9gKRPX79BNtoWNbofs5v-37" value="" style="shape=image;verticalLabelPosition=bottom;labelBackgroundColor=default;verticalAlign=top;aspect=fixed;imageAspect=0;image=data:image/png,iVBORw0KGgoAAAANSUhEUgAAATQAAADWCAYAAABfen6iAAAAAXNSR0IArs4c6QAAAARnQU1BAACxjwv8YQUAAAAJcEhZcwAADsMAAA7DAcdvqGQAAD1+SURBVHhe7b0HkCX3fd/57RxefjPzJqfNGYtFTgRIEIEkKIpUiTrSlKiTaJ2OLsmSda6yVWdaV3Vl6Vx1KpWsk05VtuWzZYsSRVKMYgAIEiCwyBuAzbsTdnJ6OXW+3//NDDgAdxcgscTuvP19yMab16+7X3fP9me+vw7/v5TO9kQg/jVM3C9p4keGYZjrmh9EHv4QzbV3P0IW//ltlhnDMJsI4SvhrTcjPwodH2SZMQyzyRDeEv7aiPxrbxrBMAyzWRD+siGtvSOhJaUfvWEYhtlMCH99XPpRKGudQ2MYhtmsfDD60SkzFhrDMJsakdLuxarUWGgMw2x6DkFpvbLQGIbZ9GyVVlXGQmMYZtPTG7HQGIZpE+Jrd2uw0BiG2fSsi4yFxjBM28BCYximbWChMQzTNrDQGIZpG1hoDMO0DSw0hmHaBhYawzBtAwuNYZi2gYXGMEzbwEJjGKZtYKExDNM2sNAYhmkbWGgMw7QNLDSGYdoGFhrDMG0DC41hmLaBhcYwTNvAQmMYpm1goTEM0zaw0BiGaRtYaAzDtA0sNIZh2gYWGsMwbQMLjWGYtoGFxjBM28BCYximbWChMQzTNrDQGIZpG1hoDMO0DSw0hmHaBhYawzBtAwuNYZi2gYXGMEzbwEJjGKZtYKExDNM2sNAYhmkbWGgMw7QNLDSGYdoG6bC9PVr7mWEYZtPyAbMC6egdW1hoDMNseh44V4c0/+9zLDSGYTY9u/5IhhS9aLLQGIbZ9GQeSZPQnmWhMQyz+ck8luarnAzDtA8sNIZh2gYWGsMwbQMLjWGYtoGFxjBM28BCYximbWChMQzTNrDQGIZpG1homwFp7ZVhmCvCQrvOEY9x+MHqK8MwV4aFdj1DyUzIrFCiV5+kJpIapzWGuSwstOsVEpfjAvNF4MgScHxKRalKvy6OagxzWVho1zFNDyg1yWEqsOSEqDgR/JA+4JTGMJeEhXYdo2mAZZDQKJUljBC6FkFimTHMZWGhXU9sPEdGr1UvhdnaFlTqGUyUdrXev87GaRmGacFCu44Qp8deP0VGsnpxZiv+4vBjKLi78EevfALPTI6iQSWo+OwN0zIM04IbeLyWbPhzEgSA46z+bJr0EUnrxLyGZyYMdMZdlHwTW2MN7Mp56EjStEJshEElqaKs/txCnGNjmBsQ0cAjC+3d4BKloTgvVqkDdX87JbARKicTiMKABKVBcsagaSpWmh14djqLL1/IYZddxsd2nsaWTpfmyaDS1JA0XchRFYYuI25pSFl1pLUXxZ+ptW95E/ybZtoYFtrPig0CE+LyfKDhAholKZUGN4yh2BhCvqyi0NBQdtXW/WaaGtCgwq0vk9AkuFIPxivdeHG2jpzcwHuGXZKWQ/N65CYZphbAdUlqFOcSdgIdiSwJsYm+2CtQUUFI3y0uIojvFIhXeT0V8m+daTNYaFebNZHV3Cy80CaZSQioBKw0LJTqEWwjgCn7qHk2pkvbUG/kSTJzJKZlWFoNhrpaLzY9mUrQCMVmEgtODjG9hmZzER1GJ6UySnHaCg2r0zq+TMKUSIhxuMEgSt4IDvSPQYEDP5RJkBF02YGt+QgVC4ocwlLLiOv51fXl3z7TJrDQriJiJ4ZCI2ESs/ldKDtpEky4KiY3h6YTkJhcKFKASi3AUrmEXPwl7OxpYLArooS1upx1SlXg1Ska5rPI9dxHqe17iFPq2tkD7OilCTacf/M8YJ789Oo0MDYloXfgg4CSaqUxWyfx+QV0xhskuw5yWETfO4uR7FlKjCVocnSpiphhNh0stKsFGUEksXI9hdPVX4ZbPo9G/TgltUVKUBLiRoi0pZE8JBT8g5hvDMCrfhGfuCNEwlotC9+clMTNtCdngefGcujs+RAapS9hW6qErZ30i0uICVana0Hzi8eiaq6E4xc0PDf9IFLGeQwmJ5AwVCo9I0wVQxJYiFBKkex2ozO7GyPWf0NvR5MSIi1jNfAxzKZFCI1v23inkEiaDiWk0iBOFR7CseNfwXLhMLoSS7hji49HbvLxnj0Bbt7qYGt3kzJcFfVaBbtycusK5es3yorfBEkMQi40+JS63AaJSk4j2fcwJb/tqDsxeEJka9O0BjEPLUNcB9ApbeWSHqWxceTSvRjp24Z9W5o4sMXBQwc83Lvdp++twMRruDD9OI4sfQRn57pbaZBjGtMOsNCuAjWvH5P5QZydmKNybhE7+8sY7fbQnQE6EhHSMVBJGbXOZymUkhQtoIAVkqxoZhKS4wNLiwpOv2zh1a/FcfjPknj2j5OY/L4J01BgW0lIahfmT9s4+nkbz/1pEsf/LoGTP4xh5ryGepVspJCTaHk6fYcczbQuRihKnBIglbM0iPXopHA2nPOwZ6CM4eQM5udPYKq0A8XmYOuiBEuN2eyw0N4JJADXBQkhh6VqCuXKSewcCLC1B8iSPMSjS+L+skoNKOUlNCoyeYdKT8PEci3ExTEVEy+YGPuOjfP/EMP4V21MfouGb1sY+4GJwkUN1tq5NUnRUS7rmHvFwOTXLZrGxvg/WDTYOEfznDtsYvqCjtkyCTLMwnfqVKYWUFqRW0NI0lRInsl4hMHOELv7XFjSayjV5JbQmkE3C43Z9Ch/8OvqH6z9zPyk0J+Dcj2OhdogFqoq3OAE7tkunrmkMpREUVtSURpXMTuuoCiS1IyKcqETZSeFplxBZTzC8uMWFh63UTqiI5pWEDkSNIXMYlDE6g8gb7UhWTejMH8MWFmCvRDAXlERUUkaXFRQO6dh/pSGuYsq8p6CubhBcroL8eUV6NNT9J0yytNksoa4GipDBDFVj2BawHIFqNYjGOYA0skkYtrFHzuXxzCbhf/rf5h8UeAdQUKbKdyM6UIPZlYWUG68go/fQTKrSJg8ZmH6CRuVw1or+Bg0iNe6HqK+pxvap+5FNP+3SH5RhrZAgqKycCNRTUJpyEHxQSA+uhP5mWXEnqsgczGE7b4xWEt1CY7toXhLCLxvJ5T5USSePgP95DRCEplAPIQQu9VD73vrGLi1gVgaePpEhGJdQTL9XmzvNbAz+w2+OMBsWvgq5ztlg9CWqwtoekcgF3RI34hBonIx8qXV82SEkJkYIleCmyZZ3U9l4FQdmQkVRp0mEh9uQCKh5aksrD5cx60PAONTAfz/HoNx3mhdTHgD4s4MUdrGfCx/rIaBpztgLdCv1aWRa7/d1gu9VcQ5tgEfwe0kyy012PQ+kXofRrosFhqzqeGrnFeBhD4Oy6giVDJwwwjzrg9nSaaEJbeuYMri7nxxwl7crU+Dq4ZwUk2kti+g58EqvE4PVSeCt/ZspiCixFXv99Ds9yFR2vPQgBz5UIYCeCQjkfLWicSVUJJfmAmgvbeJfQcaqA0VUZddSB6twNr3iu8X6xPQetUXFBSKq+unqnuQUGXE5OnVBTLMJoaF9k6g2GMbRcSMGkmLystqH5zTGtWVEiRxO4UYNhB4VPpRIqonA9RkD0EshL/dg3dLE86eBuokOq9Zg7u3CvP9deTuayKTDrH45RjciwYS+12kHq1DvZ2mzTiU/kiEWzz4d9bh39JAo9sjSclo2CFqtGwhzzcgbvOgQC6So3NBxsq8CG2jSNlNpI2ptRjHMJsXFto7gQQgno9MmXkktWW4bgK2oyAacOEnfHhRBFcjgZDIxIOVDTuAtM2FRRIrLyooH7aAHkpeD9YQ3FJDwwgQDg3CHQ6gjtaRGPVgkIDmv2+gcoZKWRKhvsuBtEtGsK2PviMBZ3cAhSSnHWyiMani4g8MxGxA3+3Sckh2yqqlXI/WhVbYSwSIsh5MI0RIJagcVhDXFxCnbWChMZsdFtpVIGVMoNc+jGzmDLb9CqW1/7lEiauJJgmo3ueSOMgUlJzqu1wYH6hj8AEHSdeA8owJpSBRcIqglyJoyxbUX/4U8GI3Fr6jYOJZHctnDDj3NFGgNDVzVMUEyS3/2iBSOx5CMzeAoGHDaipINlWoZ0l8fxfD6B4P3R+qQrrJRc2SEJDU6gqtC4msMuDAu6eK/t8u47Y7InQbz0APLtD6rW0Mw2xi+KLA1YBk4PpAqQLM03B6mQIZlXWZuEQlqYSxF0zIp3fBWynA6VmGn/OhTujwDlahPxmDOW2AvAMlrWHuw/vQ+aVzMPN1ROK815AH63fymPmqidgxG2ZNQTAch3vHEGp/ewFxx4NMZaw37KNBInPPqLD3e6g1ad58B+xaFl4wgb5PlJHpDbGwGGGpCAz1R7i1B1Qui5tx6S8b/2ljNjl8lfMqInaiCGLNEHjyr+K46IbQBwKkaWTtqyHiH/wMaq8cRzR+DgYZ0JMiyJ/Nw5+hfHaEhFdQIW0N4B1SYKw0IS2uGkZKkylVGZ7lUZpTITdlRAkZYY8Cb4LGHaX5JQnKHhfK7iaqR2ykTlN5WqzD37cP4faDCP/+y5A+XIe53UHhJC1jScFdv9jA9i1Bq0kjDmdMO8BCuxLrR/lPsnfEPCSIscMGzlMpuRQA/rQM+fMatE/vgevNQVrKQ3EkNC0ffn8AN5RgisGIEMZChGv3o4kLCIG4h4LKRb2iAwnxYHkIX1gzkmAoJDz6TFkhsdE4z48Q1ej7shHSYxZ9B5W6W3OI4v3A/zOGxt11qLc2kCL5DWoStt/pIZkK377MxIRiEKvH/2KY6xAW2qVYP8LpNV8GFqg82z20Nu7tHMxr8y+VZEzOK5g9o6D5jIH6nirQKVEZKcMnUUlmAGeCshqVe2aPBz1N+qIyVXFUElQaillHENThVBVYGiUyR4YU9xBoOiJPh+7VATtEpIUIwgjBLJWikyqimxxojgaaGrIeQSpJkJ6xoO5wkN3vYmQkxFAWsExaybe652x9XxDiEa4arZt4HtXS6c06/K+HuU5gob0J0QSPOBcWBBJCV8bx8QiHz0X4jffLUCwKRHJI1R+lIlENXmmvCRHQNCVKTFMrwCy9zi7TMqskHCo1I1tC3IpD00pwIxUrdR0VKiUTmo+RrjpKzq1I2pTmKgtYmRT3WqwS63WhJbvpq5NwnTPwad6LRROBJLf6Hei1HTT9OGq1GmTRXK1LkqPtsTI+hnoibEsCWRskJVrYW/zWxcdiEaIfUJ8SZJW2YXrRQioZoL/LhUrbIe5jE09pbfAew1wzhND4Wc51SEA+DRemgckLJiZfsDF2QcVSRGnkhRTKug4nIqGpwWq6eQshiM9FO2OZOJCm5S6WFThagFRHiO6ufhjGhzGQO4Mji734ZmE/joXbkbBs3D00h0g9hJRdg+TmUaaSch09Qd9NQovFszD0OdSiHnyxcgu+kt+JCnQ80FeBnbwfmrxAnzdARWcrve3s1HBwKGy1+iEE9JbrTusrHrovU6icL8i4MK/h2JSE01MuynWaOaLEKBqvpGl00UkLTc8w1xp+lnMdckZxUcXJJ20sPa5h4Z4qpGUNYUlBdbCJzhkN7tYQybM6hvsCbP35Grr6KLpsqLwuh0h9IuVcOKfg5deoZMuG6N0hYXYhiXgsjyqVhw3ZoDKUElzTR1KtoSkeXncdSmE0NH+Uf2SNyj3LgG2qUJQavIjmlazWvLbioUtv0vLiyCSqaFYjlC8oSDUkPPwJD5YieiEg3obMRO9Tr57VMDsVQ1Sh5VdqqFDS8w0SMqW+uETr26kjbhax/UADXV0hCZTm5X9JzDWES851SGizsyqe/lIMte8YWLmXokkqQBREaOoBElRbVUoqjFcsjI6GOPCpKnbtEmf81+Z/K8hJ1aqEp07ImKeEo1khSnkaTzLzSTjNFQlRQWndkhGS/MQNry1Z0m9GoZnja0WdyGoiYYlmgFQST50mUKiElMXJ/TSVgIkInhYiSriQDCpMAxmj9PmhO2lha8t7S2i5jQbw7W8ZuHDEhOGqqCUc+OJRrjglVNEaSF2DpGhQyy4e/PUKRvb6rR7eWWjMtYRLznVIEqIJ7QYN+SYwZ0qopXw0DRc1ElBEZeJKUYcdizC4x8Pw7gBJm47ejQewcI6IQOL1zQON1y0q4XwJRZJFsQTUyhLqlAKL8zLyEwrqEySJeRUuvXpzlORWSKD51aGjYMCi0jMmxtGgLpBcpgN4syS0mg7Fo9pWdKxCNXMkHn0iK6omJcFciJGBCAkqNVvreql1E8MlqBZpvQoBZus+5k0FMtWWjuoiH0VYCiXRBQu25HxsO+QhmVk7r8gw1xAuOTfQapOfyrvvvaThOyd1KruoTPM8BBUq53LAQtPEXXtcvO8mD9v7yFEi8WzAC0hQDRmhd4mgsnawTy8qmKE0tlwJUSyEaBR01EoSgpoEpSlDofmlOZqYViZGKUwXvQ2TZJOqAiWegCSTWOhjKfLhNKoQT1Slh5JQUyocKgcdO6S0JlFSc2GlPPRkgtYVzXicJrzMb1mTizBIVK1za+vQz6JZ8edPSfj6SyqmSja2JeIImkUUqX6uyxo6OwJ89sE6+roiUAV8OS8yzLsGl5zr0NHYan5HXI0sAp//roS5cRV2lQafij6dZNdZx0P3h7h9t2hOG7Apcb1+2wNJZnlZxatHDNSW6M36+EugaiQvqh2blPyWCjLKbgiNyjVxfqzQFCWdMBaVleJeNZJpmdZJ3Oph3/8g5FgStk0/07BOLq2SfEKUKV7qZLv+VAy6VIcsvcm4l6HH+Cb60jNI0TZtlJ7oZ+DMlILDryk4ciJArma21kmKhTD6ffRsc/HYrSRLc/UWEPG0AcNcS1ho65Aflkgcx2aBzrS434oE50mQSUx0CLcEE9Ebmw56lco6K5KxY0Dc37E2PwlqhkrFZ78Qg/YM2ekKLpGl1hJb8hBlbkBlrESLklypdf5MjI+S9B+FSl0/gkslZKEjg72f+xzM3p7W/IhCSoIin9Fk9N2i/wAxr2hpQ9UodofiuSf6oNVm0ZWRJ/93DNgvoitDGy3+JdC+aNLsp5eoNKb1Mg0qL10qKUP6oPU5rS/JSzxuFdAoCoIYSK1ezd0oRIZ5txFC+9Gf+hsccSK+UaeUJo5r2iuKQQeuuGvfIlOYYSulNegAz1OyKjVo4paV1lh1DALRNhmlKlD5uTrBjw9i1nwzQrEcoVKl5VOZq9D0ColKNL2tqTSQTDVKaoYnwyRrqBElRTsB24jB0G0aYjCtZGvQ9CR0Y/Vnw4xDUQ2oVhrnxl7D0aPPYnmlQPKxLj3QvBH0VofIGxGCrLskdhp8mkIRVzBpH7T2Be2XiGQrrtyKWzt82ififjWGuR5goQmEtzSgn1LGzDQwNQNMU1p78zA/Q7uLBCR6ULpSGhEJRgjwzYO4e9/tclG5rYr6e2oo3l2Da5ERxOJ0EsXa0HLfJRBfGYlb9sk4EpWX1VqNhOK3fpYpqolnOiuVElYm51C/eBaFie/h3Lmv4vzkBRKQj3q9ivzsHMpzi7QMMtKlNoJGqbT+CRE0KalNXGJfXBSvczRtSUaaSm+Lto1hrgdYaGvE6aAczgIrKzQUKEWVfnwoFigx0S4boOne8rGhNyHaI/MowTlaiNoWB9U7SWr7mq320lxKha54dnO1irwiPtWDtWIJ5VIRi2cv0DKbaBRKKM3Mo75cQP7kJNxXpzFYMDBASbAx/SrGJ19DtVpGbWIRBfq8NLVA1aj41V/CnCQ00VtVp0lio21cyl9iXxTFK5XOTRlZW7Qosjofw1xrWGgCOhjFBUXDlJDM2EgmU0gl060hKYZEqvVqJSwYMRm6SCRv8wAW1Zxoj6wqB6jaPpoVBbUzJpZJCDhnwSVpVAwf5ShA3aeFivNvV1h2neQlRDZ9/BSWX3wNfq2B5fMTGH/qOSweOYGF7x3D0FSAffV9OBg8ggPKXcgaNRQW5qAcmYFxoYDIc1uJ7rLQ95u0jUnbRDK2uh9e3x+0LxI0xBNJ2AlKhuLJrMskSoZ5t2GhrUMHpaKZyCXvpwP1M1Djv9saFPu3EGq/0npNJx5CwupZm+Ht4asRlrs9hJ8uwf3sCrw7a61WbkUidMQtHPdVUP21PBqfKGL5ZopwrXNwazNfgsgyoPoaul4uY3TrXtjxJLoP7sbALXvRXJnH0/XXsBJWaREh7CiN4fitOHTHx5F2LfSZWfRsHYEx2kNpkErdy5mTRovHpDqzBxHLru6H9UGyfhMN+ddQlD6J/oxo9YMmvoKAGebdhIW2AUlSEUsNonvkdgxsuxOD2+/A4I67kcodQqxjD+LpEUpn6Z/oAJYdCea4RmWehvklKi0XZXQUFWQTgE3xTFpRUSzKKM/KsE+S5WK08CuEp1qxiFJ+EWrWxsiyhuD5cTgzeRjdXei65RY8vO1uKhdTrScMCs0axoqLVM6unrlfNhwEXTY6unO0DVfeCHExVbeySPXsw/Due2h/3I6hnXeha/AWZLr2ob97G1RZnBVkmOsHFtoGxA0V4iqhZaco+aRhx1IwrQRUIwFFj1GCsyDL6tsXmjgvJoWoHKgiSnq0nAhBzoM72qTviNAcdhDSeNsOoed8lGh8NUHZ6gq/lWQmg+yOUThbMpheXoA+VUHw8hRKz5yDda6Cm9VBJCSztS3ivpCg6aFaKiN0fPhDKaA/BU2c9X8bSIoKzYjDon0g9oVliyuqCehmApYZa0mPYa4nWGhXIKIUE4qrij8l4kKir5DQDtWgUdmZykbQRz14OxzE4hSatpLk+jwkO0IkRBd1BxtoiM5L5MsbM0FC694+Cn17N5Z7VfhUu+riea3jc6i9Og215CKgdRZtrvkGrUNcgUoCkyihKbkk5LRF6/UTXNHYsA/EfGKfMMz1CgvtZ4w4/H0RiKiMFOfhDXGbQ4x2PO15m6RGgafVd4AIVEm79XJFwpASXODDiFlI3bcLxW1x2F1p9KU64MgBZovLKDlVFP068skQja0xZLJZSIaKiErPyPvpBc0w1zsstJ8x4mkA0XlKuQ5cXASWlgFyDp4/ThUpjRctW0wvAeengbnSqgCvhE8paWl+Hsef+j6VwwYUWydRqug10rgpM0RloISlQgFnC7NoZC0M7d8P3/NQy2poLBQRLJbXlsQw7QcL7SdFRCix19aHKyBplMBUGYMnU0hTRFPQAVVLo7ML2DYIUKhC3emiUi6FTpLSQD6G7KwG1b18ThMn4i2oSOQl9D0+j4FjVeRnFvGcPIvTO4DRrj5s7eonuQ1jxOxszSPJEtIdWThLRTSWK5CvdA5tfbv4/BizCXmLQ/IGY8NB3GrZgmrEkBJRo1aBJ1JOI0C5FrYSl7jBtHUqSrjhcnuRxsskE72uYqZwO16Y/R0cn/8lFMrp1iNDeVrOC7O/hG8v/EscrX4IRiitPmZ0BZmE4ikBTYGViWNycQbFfhPqvaNI3bsL1p5BzO6Lw0uoMFUd6koD7tl5uPRlorFIreJDd2j+N5/NF+svrnVQ6SsadyxQiFuh7StVHNQqRRRLVMLSIPpnUUiGirhpj2GuQ7g9NHFs0gEtboCtN1ScmhhAdVlDbWwKtWNH0Xj1FQTlU8CrFxDNnke0OI/mdBOFWRXLx3QsnNVQWlaRX1Qxf3a1/TLx6NO65EI1QiPt4WzyPhwtfJxGUIpKHUbMrrSeDniWJDdZvxNpeQkHcRjmpGh6g2ak9ZFIICHJox6z0fvQ+6HGYi3BisuLiqGhEDSg7+mDPZKDkYqTJAOUVgqQqg68WhNh3YUuWvAQTf6ML9G8EYyBLPRO8QxnRLJVkD/1bXgz86heVDB3Qsfyyzry0xrK4naSczLqJ8lslSkES2fgvHoK9QsX4RSriNwGUtpzSMQ9qLSNDHOtEe2h3dhCI2mIh6yrFRn5BQWLUwouTALlk/Oovfo8Gs88Cf/wc0j3jAFPHwHm5+GseCjNqajNaxj/iomZV3QUhQDmVRovIUYxZ2MACtUQzYyHlb4dKHj96NTPY2vmWSSTjVZnJZP590IPJGzTj2BbeBTmCRsQd99TWnqz0DQSmrjzS9U0mOkkgpSJOL3qmk4pso7S5Dwy5yn2kbhqlRoMSmOdkgV3sYSw5iLYSSXvUBaaeLaJVlKmcnj8H7+D/NMrKJzUMHOBBPeMjUZeQ8NR4J/NQ3r2FKTiWajeMZS+9QKaY+cpvRYh+SS6+RmgGbSSm0h4msZiY64dN7zQxP1epRUJp58z8fK3bEydUDHQk0d8fg7p3ApiiRDKogX7PQ0gaSJsaojsAMpWH6pJzjlHYlFIMHkFjTEZZSrVUgYpZ11oQkj0pkqhK7PHQ0diAgn1JRLCGFSaRtzvGlcb6E8cR6/2GhKlOmJjVHOKh9Rp3UQrFgEJrBGz0HX33VDi8VayEsiyjBgJTtySIe6kqK+U0Tg/j90FCymY8JtOK+gptoHpuIv0z9+K2EAnyU/YkhBCo5J66q+eRPTSMpK5AMn3N2h5JGSaRN9CK0efe7MxoCHBvsuBlLcQH3KQvmkKRnUChb/UcfpZSnVVBUoaSGdo34jFs9eYa4AQ2lphdINBMhEym5tQ8MKfJzH5l3FkVnRs/wAdiXTweiQ21VFhDdOEMR/lP2+QTFwoEellWoFM5aWaopKNBlFeRmaEMP7jR7HkSYiKtMiCTwnqFJLG48jFTiBJ84h+AZZJgDHjOXSnnoSljKNOoWddBvlGiKlSgPkyiWV+BUf/+b/FC//uT3H6+88iXyiQOFZTlhv4OP/kszjzxA/gJICx5Tmc2EbbN5pGMp5cXdgV0HMkxU4V3riKxtdiSD5cQzAlwZ8lMYv237b5UEaDVrd+6nAAbdSnbY7gi57dqU7v3B3CtCWMfc/A92lfth7aF0JflzrDvIvcmAmNDrYglPD8f46jctKAUqaEYURQewO4JKzqhQbqRgK17BZUu3ahNLgH4cBt8GMJGD1lJPuLJDGqCckpVd2FU6O0VZLhkI1S5o8SWj0eYHnUgbO7DqvHg0bTSlKAetCB2fK9CBwfCauGuNmARclPSwErVoDasgSDPJaUPBheDZHXhFYtwiZZqedOozE5jjyVoZnuHlw4fhTuyTkMVmxsQRapgMrPDhW+LvovqKJcLKFfTaEie5AT9BdMPHUuIt1aQpv4ynfRWJqB3BkAAyTsTIh4lwO730UtMYR8x/0wtt6CSB1BVetFZR5wx6rQJLkldK0/QBQP4S/ICMboe4cjJGkZqnjGk2HeRW7ckpOEE9J/RK9G0bQKxaGD0QpRtehgTW6DsecOWDfdC2vHbTC27YffPwCtYwesrIue4VkMjiwgmY2QGfKRHvWQowSjd4Qo1iLEA/EUJf2P0lkt4WNlRxPRkAudSlTRTv+KM4zxyqM4OvM/oemnkIlPwVYoxhE0K0rzChLLCqnRxER6GM/13YbTuZswltuDKbtbtPWN9MRJ+KUSmh0dkCmp6bRclWo9vS8LvzuGgIYwa6Ohk2joS3tCG8sdMpSOOFSdLLwmNPHsanPma+gdncSWu13k9vvo7ArQvcNFpi+An96PeveH0bFjP8yOLVB7tiA0cnC1HMLOLvjyBTguiZDibrgiUxqV0Pe+5mrpKW4WZph3kRtaaGIITAmlUyrqeRme5lNyitDYdw+6H/0oug7diVTfCKyOLgR08GsJ0WLsEnKpcfR1zyFLiSbT7aN7iASw24ecDTBDZZuxoK8uXvQJQAmtusOB0UEHOJWY4qpm0T+E8doncWTqEVTMGLZlDiOtzyIkAbolBbFjJmzPwsX0KH4wcA8eH34E57oP4Wz3zZjP9sGTZSQKi+gZew2LroOB22+H1pWl75Lhb83C6baojEwhsrTWrRpyqY6Up6O8Jw01aUMRjyi0oHJYUmBp38T2/ZPYdjMJrd9HBwktmaFSlBJe0zgAN/1+dPTmaBsyiHXlENH+cDtpPcwMGkeeQHOaZJZXWyWp3RPg4M/VWv0LrIVUhnnXuHHPoVFAERs+urNJacbFiuLDKQYwL/hw3QSVhrFWaxWB77/edr9INdWSj6WpECuTCiqV1R6eWl0v0fIUjcpEi5Zapffi6SL6kY5rxD2ZhKLAbirIhgoGKLoMqpTsohn4SgUmLTcV0eeOCntOx2hBxkW1F8dGbsHcyB6Yogdf0VeApKM/3sT0lt34yq6PohiqsP7xW2icPw+zJ4Peg7vQ1dWFbDYLSzfgOy7q83lUJ1dQDx2YVKKKCwhvxjAMSnc0nkrciLbFp6E8L2P2pIz8FE0Qha39sD6I5zlVVYMtxxE+Q9t83EDlqAbHi9Bznw9DPL7FNmOuETem0AQkISMG2IcCpAcjZEk4FsnF9qpQWj39vgk62ldOVnHuv0U4/H9n8LUv2KiLHpouswfFhQJjWUPq75MI/kO2NUh/kUXqL0/gtq/8G/xe8RP4rcd/B0P/car1WfifKFU9riEqFfG1jvfDGmngQ71PYr81AUmLobdcxyMDL+G+kfNAtgfPjn4ApmJg7rXXUF5chkES20g6nYY5kMFMro5vlY+hRlJ7K7wQmFsG/uFzCTz1+xrmH6f9EJHproBo10PcTNJBabXnplpLjGLfMsy14MYVGiHRAXzw1iZ2PdaEfItoNVac4wrpwL70ESl6Uhc9Qi0tRCgdBZVZax9s4PUWwuhFBKKYJSFjKKuDSSnNpBIVZQyVFrBVq6FbD5EIZcRFQqPS8EKUwGBvDXsHz+L24W/j3sGvQParuK3/WYxmX8Y9A1/GXbu+hee698OXNQRj44gWl36sxBNPA+SGBnHzow/j1o9+EMlUuvXUwiURm0sfRSGVvUUFbpXKV9HhyxVcFioyKh0mCjsdpD5cwpZHaujsoAWJq5wMc424oYUmDr5sNsTW2x3s+2QDN/8vEoZ3WdBJPuK8+UbEHfqi6RzRIa/lUok4oyOoi/Grn4tGLEpOhAottExCLAchKuIOfTdCc21oUPnWpOlFN3FOJYAnzrPRvCWZPldCWHENxc6tWDD6MFWUMDbtY2oxjkjWcdrrx9iSjPGLMibyncjHe9CkUhTLKwiLBdQadZRKpTcMDcdBpGlQqNys1+sol8pvnKZYgi9qTOE5GgJfQmHBQNJTodEIcUEhrDVWm+veUEcK38sxCTf9YoBbf7mJAz/nYGBPAJ0vBDDXmBv7SQFCnCM34yEyAyHS203UlFugp3ZC1qkepejikCiKk2Nwjx5DePoMzKVlWHWSgCth9OEGTHE/Gh3I+YqEMzOUyHIkNEpdXp0EIG6QHfFgbPdQ0UIE4h43LYI/7NI4H0XLR1hXWgL0DSp9qWycy4ziua674UtN5AtxXCjtxUhniKlaJ2xnAVMr3XipeAdCOYP7x74JmSQpk2X9pSVUT55E4+zZ14f6mTOonz79hnFvHM6QhI4imykgEQvhNEmYZ0xER3QydASJxK6QxEWLIZ6hQTUMeK5LonShag0cGPkmhnY4yOaovBbPoF462DLMu4K4KMAdDa9D/nHCJF5Z/DSkzochqQl4hRVUJ8aw+OKzwHefQszxoSomPJKgn/Xw8P9RRKonbF3BnFgCnjwjYWRrhDOPW1CfsClxkRQ+WkPfPgdnnjFgfCOOUPRv+Wgdwzc7OPmyhMSXMiiR/HzbRx8J7FxyCP/15n8GIxNCdwuUCGv4zI4n8I2Z++A1I8w0k7hAaS3jVfEHj/8eZJOkrAXQnCYiWo4kbvAV/yd5tvoatilZBhJCEq5k0HvRTR6lybBK72mzu34jwr4HQwz0UpqkUvO1Fy3M/ZWNIE8yCxoIVRnNnXthPvQAMtu3o6mpreQZs2q4Tf1dpMUjXCKZ8b8i5hrDHQ2vI45s2hPicSNRVhYLBUy8eBjn/uI/YOlf/Euk/+bLSPmghGJRaSlBTocY/vUmbEomrfut6GAWPZpbdPCnLCBtyohTahKtZ4jHG0Xflek4kFAlxKEgRbEwbUvIWDoS9HOuQ0KqQ0a13MDg1HMw3DLGghFUlF7sT04hEX8Sjwx/DQUzjvPKAaiUHlONOdhU3sqdEeK3a+g4lEIy3oGu9yXRcUcKma4sslszyH04ga77k0jFOpDZlkbnPSlk96eRQCfS6IIKEa1Wt8Ek2e69tQZ3j9vqbi+KRIfEOuJnTkH5wz/E+L/+fZz//OdRnJ6mv4QkXG014bb2H8NcB7DQhJBoL1SKwJnn6hj762+g8LnPIfzjP4H98nHE0x2QkhlI9SoqZh32ozUc/N8KuOlQc7XHo7VzaO8E0RO5S6Wqs88j2QHJ6mQrnXkkxJqrUMISE61OK8g1i3hk7iUYlg25l8S5w0XsoRpSny2g86MldH2ihNRvUhn5sTqSByLE7qXXX6uh89NldP0SpcoH6q27/APx9PsGxD8Gi+T78Geq2PW/1iDtr9B+WUGjVkaYSCHt+ug9/DySf/onKPzbf4fj39YxOaG0elhv3aPCYmOuMTe20EhmM7MaXvqajef/LIXZv4lDO1GFtlCCUSVhNelIpVKuIKkIHvkAsr/wHgw+0I3ebT5sQzxrcHWQSFx6NkDsFheSnMRDp7+JbTPPo+xJmAhHsLyUw5mFvSi7OXTX5nHo4g+xb/rF1vOesYzoQ1OCN6mj+ZwJZ4VeL+povGSheUKFWwK8BQ3+itJ6NMuhZXoFFVFTajnyjUqjfxC0UamOAFtubWLgF3dA/uQ/Qemm26gcDyBVS9BqNRi1JvS5Korf1HHu/03i5f+ewOmXddQatACWGnMNuWEvCoj2z1ZKBsaeMDH9pInKSR3SigbdpwPd9+AmE/CGh4B9e4A9+2C8536kt6royc2iIzb3xmRGyyo1JEzlJXRQCbgiWsw4r1G5Rp/tdtHRH2BlWoV8ymiVtfJ2D+lBH8uzCrTXjNYjT/ouD1madvGiiZ7FAixKhCKaebKNRT+BC6WdsAoODky/hFsuPoNsfQH1PRGSmgx1nsR1RkNAr8ZBD35FQvNFHT6tg1+XEJQV6Gl6pXX286sPonsnxcrR997ioGuLT+UqqW2D3UwrQjN9K4q9H4U9NASjMw0/ZpDYaNMdl/ZTiLBK8lzUUJunlFaUEdC2dW8Vd+iuLYRh3kVu6NY2IknCclFF8QUDuKBR4pIgZSX4fVRebhsFbj0E6bEPwfjVTyP18Y9BJblJBk17qVhzFTBp0R0DIcp31eHGddw0fxI/d/arODj2IhbPdUOfnMcdYz/AvZNPoq85jsawgeQ+SolyBG+RVqlMm0VSUhM+1B4XsrgYUJMQ5ukzOYBKy5fLJLEK2VOkKG31ey+J2D4SlyTJsDs7MPq+e5H7p5+B8alPInjPvXC3bkU42I2wL4JM4tOWFFRfMjBBQ6uEZ5hrxI0pNDpgpShCOlaDqXr0nkaIA3O7ivpjh5D43L/C9t//fez5yEfQPzSyNtPPGFoFcYI9N0JpzqRBNpANqvjg4vfwr175Y/zzF/8c988+jRiZqzRiwHykieRJE7F7G0j8RhHm++otUYWB6FtUhkwh0bjVQfo3yzA+WEb+CySzkErl/Q0YI6LlDbET1r77SoQRzeZDV1QM3Xw7BqgEtX73t9D87K8iui2EZwXwA1r3ZAhj8CqcUGSYd8CNKTRCnA/v6gRqZojxpo9mTxP3/HYZw3uzSKaSkKkmDTzvR89yvosMU8xRMlS6HnKw/CEXkzfHcdFMYS6tIPaoiz2/0kAuTRYpSNCqaks2aopK5ViEEpWZ1RcpevcC6i4fQS2C4Yh+OdcW/g4Q/X2KPjplinvJXBr3fbSO0X9aQ2N/E7VEgEyvqEfXJmaYa8ANKzSBuH8Mw0Hr9gu7IWF+PqISToIs7sAXUHK7Fh3rkn4QoxI4Nxxi6G4Hibua6LJUdCzrsAoKojkdzjfjCBdk1J8xUX/eWg2ZtzWg1JTWPWRadwCFBNd8MYbS3yQQVmU44zoaJyy4kyqiiqi7177w7bK+L6hcFy3mGlTWFk/TshZUpBIh4v3Nn3yZDHMVuaGFJtLEzrtcjNzhIaCDv1r60TF7raGqETaVwYmOAEbOR0yRYIZSq+nuVicskdxqKlsy6WeScBTK8E0Vcz19mNvai6piI2ookE0JknjoQfymaX4qIGlWEvVVCp6NaQl6j4+eOx309Io7dmkkS425RtzYQqPjb8duD6P3NRE76CKZboWP6wYh12hDCSelKUGmQigkOetWF9pBB8ZeB9qQ10pjtcDG93Lb8b0t2zCrpmhbQmijbqs/AP0ATbfFg94fQOug5azdT/vTIpwlnmO1+4G+9zoYpCSZSYiRrY8Z5ppwYwttLUl073Kx930NDG2hMvQ6vkoniRP5lM6E6PQtDsw76iQ5j+TkQ035cLPAM24ah70MSiRnPd2kTaTSM+nDvL8ObcSFashQNCpqKf29rYsCl0HsOtFg5fAHfOx9wEdfN5nsyi0NMczPnBtbaAI6DjNUkvWKTsav870RjFFZOQ94SxGKn0+i/GcZNH4QR/2ZGOpHTXR6Ffx+8+/wJ8HncXN+FpWTCdSfiqP8j3FU/iKN6jfiKB5XUJ4MEJZ/inNol2C4v45M3GWZMdcFLDRCBJXrqNK8LHIugtpNyas/gn37aoON4jyascODsZXi0qKCnhkd2ssmZEeCtZvKTSpLV1ujlWBQ+Rnf48AeCFfT3lXYaJmsuBn2HXNjwEK7ApIsQ75Es9XXCikpbpyVoNsK9EEqNZUIep8PpdtttdcWztP4JimmrMCrSa1OlJV0BIukJlrZkGMhzR9CMUlCb3ezxBXNtfbQxKvYJ2/gKqQ8hrlasNA2EEUhPKeK0spF5BfGaZhAcfkinNoinOo83EYBQUCJ5xKRRDwDqctXP62Ic+wOfWUQRYhEp+gFpfUoU1CSoVDSkru8Vsuy3pQKf0qG1hVAH/ERrkhonqVxLiW1bTQdpbswoJJ1mcZRkotWAx50nQQnHrLfKCbaCPGYlNuso1GeRX5psrUvVhYnUC3NoV6eo/0yBY8mYp8x1xMstA1EoY9K+TyWpr6L+YmvY27861gY/wYahWfRyD+FavEEmk7hkkJTSWa2aCvoKhstjHQ0/B7UIwXuggRnTELjomjfTIF5p9tqNNI5acA7qSNcpLJyhErKgw3IeQneyxqa4wrCOQPabkp0sQjuJI07RdNSSeqQJFOpELZoEu9NQnOogq1XZ1CcfwKz579K++MbmLvwNZTmnkCj+EMUFp5CpRm2xMcw1wsstDXElUMvaGKp/DSU6AuIq3/9Y0PdeZoO4vlLphLRZHWs1aDaG93wTlGUTsQ7P4UVPQnHDhBWyTdNIPtoGfE763B+YKH2P2IkNFqDhNgOspGQDK1EeIHk9bc2lv+rBvX+ChL3VqAiQDBNCS0RYV71ke0kqcVXv+t1aBF1SnCN5ino0Y/vhy77Cxju+iHyVQlueJUNzjDvABaagPZCvgY8f55KMPF89WVu3ZCUEMsVCRdmVZpobaSA5JGwI2yhEnBmidLNJTpP+WlwSSpNN4Zs3yEkf/4BqF0xKhXJZrS+EqVBryaes1zVZ0TfGS7KaJw0UfkeCW567elzKkfDkgS9qdJscusBdpnWVaEEZr/Hg9JF8wsnrVuYli36PDhPy5qnsta4zEPsIplNF0PMLgM10TECe425DmChrSFunBfHZV830N0FdGV/fOjrIXFRmhHl2BsOYJKBRo5LkCwiEmOrQcZ3iKQFqHpxSow70NE9iL4HHoDcnYNLwmz+UMfyf0khLGuIP+wg+U/qMG53W+fSwpqEoEq/1iTJ+Q4H8U9WkPxEDQ7JKf+VOKrPmPDqtA1qgFsebCApngldl9kaLsnRpm3p6o6Q67j0vujqiNDTF8CjaCs6T2ehMdcDLDRCPH9erGiYWs6iVO+nUmoA5XqilVRcGooVYKXajWJ9ACuNfiw3OuDRQS+qu3XEEwamDmwnGfr1SLQL+dOji+avNfjBCMliF8LKBfquMho7RlHPdqM54aH2vAnnhAGtP4B1exP2neJGWxdan9/qlCV+hwf7Lg/GzU2YB1w4R/XWc5/OWQ2hHiF+j4tte2gacYPt+nkwsT30tlzXUWp2oEjbmq/RvnD6KIUprX1Rb1goVLtWx7v9mK900D4zELDUmOuAG7vXJzoAq3UJp+ZyODyxCxeWdyNUdtIBPIKpQhLjS3GML3djbKkbTngQFWcbCW2YhJYjySnIWCXolHTWu7sUpWpnApiZkFGfUREaEdQd3ls38EjpTt3mIznkYWWZJjhnI0xuRXzPzcgMdKMy/hLc0hyCbAckw4RcrkAqVxFRQpNbJ/RpBWgQt2iY21woHT4UlVbGl+FXyVdLKprfteCVZXh2CGsvyewXmugdCFrd8rWg16av4cxsH16e2YLJyl4UmjtQaIxgqTqIk3MaLuY7qQzdQuN2oeZuR4k+W6x10/sEZCrHc0nRKOXa8hjmXYZ7faJj/uR5HX/54mN4eukjeN9eBbmUQmKS8cq0j1dmPVSpjOs2JDy6x0DaBGpOhHNzIZ49U8J/fOzf4NYtK0hatKz1vUg+Esnuqa+bODuuInfIw9ZbHJx/0YD6xURLXsoHaxi5q4lTL+mwPp+AawDGQw303dvA2TM2vKe2IH3nL9A0Q0iVj+KZL72E/uFO6KMDcPQBNI4vovH//ReYotVGKvmkOEUs2hbRBlrm05VW71D1JywE83rrnFlwUUEg0zifpj3kYPixBu6lEhUbz/XRes+Usvijr34Mx7ybcWA4g9GsDIfmmS9F+MYFSoVehO1ZA4d6FQymV2PdRF7Ba9Nl3Dv4OP7Ph/5mtXZnmGuA6PXphk9oHoZhpQ5BMfvw0rklPD3m4ORihJGsig/vN/HgTgM7OhR8/7yLp89WsEghZKjLwgf2hzjQ8Tg6YvXW+bPXIbGJZokGtwZI9IWYLkhoKgEaKyq0M5dIaGNqS3IRpSWp08BC4xFsf/g3kdtzAAnDgVydwtSpWSTTNpRMErH+bYjtvg3e/v2oLhWgzE0jWC4gaIRQmgaaP7TgHLYQLdIXVSVEcyQzEuxsjBLZxwIc+oiL3dspxb35zxjtiyCyUfb3Y8vAME4tKnjiTA3nFxx0pOL42CEDj+w2MBAHxhYa+NqxAl6erKMnqeCu0RD3j05gJPEqJzTmmsEJjVLNfGE7npz+EI6V7kLOqlEZ1YBpxhGEGhqeCp8MZEoeLDOE69VhqBo0PUnzVfHLo7+HrV1LsCko/diBTD6pORLyZYmSUYjjxw0sfTuHqhPAuG0F2+9yMfGqDvnECJAcgXXzMLr2DKPh5nCsWoZLyasDAbqcEuTiEgxLR1lJoGCmUNZIjE0PB2n9dNFD+swkvItTUKaX4U4twGlE8GI2mnH6rq4y9tzhYXCnh+xQhHgmpGRH6eoS67tS68IXnvsUls19lOhIhpEDVVWRSXVgOk8VLM2W0GmZaNC2VVqzxWl9VkoV7M0+gV+55e9bV1UZ5logEhoLjYT2jxOP4Ympu+A6DahyhWQWg22asAwFYeCjWC4hlC0okoNI9KqrxpFSPPyz3f8C23KXEdrauamQxjcdYJoST2kyjkIljlo8BbW7B+XKEKxwBFqiF1pXF2LZTshUGh65eBavLU5joV6E2nAwVGkiYdooxCzkNbnVH8KAkcD79xyCruvwikX4S8sIFvMoTI5TqpuEZU3ASi8i1VvHwJYAPR0hyYlWSKznpX7jJLR8owtffPlX8f3F7ahFCnSZkhyJLdRTyIpmvWmjiiTkukvSl+pwJB2GYsIIPTww/CR+9dBfs9CYawaXnCQdcUVvqdqJgmjRtXYCSWsKsj+HtF5DSnegBHno3gTVYxdhqZMktWlIwRJ6TB83d/0QGSrlWj2HXwbhNU0DOjIR+kcc9AwpSGcyMI1udPX0onPQRpzKW51EJe73EI9fxaCRCCPU6WdHyKeokqBSkFIJWLEYOvQYCc2mcleHrTaQjDWQ6WoiM1RHasRF364Ctuy6iB17V7Bla0ifR8JXlxbZBtzQxEx5Kxaq4hLtDGxtEiam4Luz6Lc8kngJrjsB3z+HjD4NWVkkmU2j02xid9c8dnaeesvvYJifFVxykm3mqJSap4NYUZPY0XUERoxGB8D44ha8NjuKhZqKA7kF7B04gxiJQ6StmeU0jk3fhLtGnkdnmoS2nnzeDsJw6wN9T54qt4VyL0ruDjSVUTSiLFSrq9U7uiyrcNwIy0UHyQRJTRcXLGhG0b2dW0OzOIaUVkCntUCCmYCtX1y9618sWyDW6SdYr5oXx7HJQ1BRxZbcBG1bvlVmFvIaDk/cjoZvoTd5Adtz46vNLRHTi8DZhZ1IxGTctoWEJm7fYJhrAJecxOodD8IAEqUYOnrFxbu1cetdCYuPZdF07NqeWv9MTP9OOx9ZvZdNNI29ug5rX976LtGbElWcrYfTxWhx177oSU9fuwgRyatrKOYWM7Re38lvkxYWrrWmIXrFEoNArE64mvFa37H6Wevt6qqKHUTv5bXpGeZawEJbR1hBsHFPrI/byPrnl5r+Z4BYvDgHJwaBuN9NDJdatavGxoVv3L7LjResf/bm8QzzLiKEtvpn90ZHHIhvPhjXx20c1nnz+58RwhMK/YbEOToxiJ9/pjITXGp7BZcbL7jceIZ5l2GhXe9sFAlLg2GuCAuNYZi2gYXGMEzbwEJjGKZtYKExDNM2sNAYhmkbWGgMw7QNLDSGYdoGFhrDMG2DFL3Ijz4xDLP5yTyShjT/73MsNIZhNj27/kiGdPSOLSw0hmE2PQ+cq0M6bG9noTEMs+n5gFmB9FwHC41hmM3Po1GFr3IyDNM+sNAYhmkbWGgMw7QNLDSGYdoGFhrDMG0DC41hmLaBhcYwTNvAQmMYpm1goTEM0zaw0BiGaRtYaAzDtA0sNIZh2gYWGsMwbQMLjWGYtoGFxjBM28BCYximbWChMQzTNrDQGIZpG1hoDMO0DSw0hmHaBhYawzBtAwuNYZi2gYXGMEzbwEJjGKZtYKExDNM2sNAYhmkbWGgMw7QNLDSGYdoGFhrDMG0DC41hmLaBhcYwTNvAQmMYpm1goTEM0zaw0BiGaRtYaAzDtA0sNIZh2gYWGsMwbQMLjWGYtoGFxjDMpidce2WhMQyz6alGUeuVhcYwzKZnTlrNaCw0hmE2PRciFhrDMG3CKwharyw0hmE2NeUowg/htX5moTEMs6n5prQqM4Es7MYwDLMZEf76u8hdewf8/114Nn9IEkRbAAAAAElFTkSuQmCC;" vertex="1" parent="1">
          <mxGeometry x="245.99999999999994" y="1116" width="50.37" height="35" as="geometry" />
        </mxCell>
        <mxCell id="9gKRPX79BNtoWNbofs5v-48" value="&lt;b&gt;END&lt;/b&gt;" style="ellipse;whiteSpace=wrap;html=1;aspect=fixed;fillColor=#f8cecc;strokeColor=#b85450;" vertex="1" parent="1">
          <mxGeometry x="1000.5" y="1748.5" width="80" height="80" as="geometry" />
        </mxCell>
        <mxCell id="9gKRPX79BNtoWNbofs5v-49" value="Spanish Call is entering into the Wave iX" style="edgeLabel;html=1;align=center;verticalAlign=middle;resizable=0;points=[];" vertex="1" connectable="0" parent="1">
          <mxGeometry x="315.0833333333337" y="1199.9966666666664" as="geometry">
            <mxPoint x="-3" y="-1" as="offset" />
          </mxGeometry>
        </mxCell>
        <mxCell id="9gKRPX79BNtoWNbofs5v-50" value="" style="shape=image;verticalLabelPosition=bottom;labelBackgroundColor=default;verticalAlign=top;aspect=fixed;imageAspect=0;image=https://www.ibex.co/web/assets/images/wave-ix/waveix-logo-black.svg;imageBorder=default;" vertex="1" parent="1">
          <mxGeometry x="40.67000000000007" y="1290" width="294" height="90.16" as="geometry" />
        </mxCell>
        <mxCell id="9gKRPX79BNtoWNbofs5v-230" value="" style="edgeStyle=orthogonalEdgeStyle;rounded=0;orthogonalLoop=1;jettySize=auto;html=1;" edge="1" parent="1" source="9gKRPX79BNtoWNbofs5v-55" target="9gKRPX79BNtoWNbofs5v-194">
          <mxGeometry relative="1" as="geometry" />
        </mxCell>
        <mxCell id="9gKRPX79BNtoWNbofs5v-231" style="edgeStyle=orthogonalEdgeStyle;rounded=0;orthogonalLoop=1;jettySize=auto;html=1;exitX=0.5;exitY=1;exitDx=0;exitDy=0;entryX=0.5;entryY=0;entryDx=0;entryDy=0;" edge="1" parent="1" source="9gKRPX79BNtoWNbofs5v-55" target="9gKRPX79BNtoWNbofs5v-48">
          <mxGeometry relative="1" as="geometry" />
        </mxCell>
        <mxCell id="9gKRPX79BNtoWNbofs5v-55" value="If Not Able to Handle" style="rhombus;whiteSpace=wrap;html=1;" vertex="1" parent="1">
          <mxGeometry x="973" y="1499" width="135" height="90" as="geometry" />
        </mxCell>
        <mxCell id="9gKRPX79BNtoWNbofs5v-60" value="Mention the trunk SIP URI here" style="text;html=1;align=center;verticalAlign=middle;resizable=0;points=[];autosize=1;strokeColor=none;fillColor=none;" vertex="1" parent="1">
          <mxGeometry x="724.3399999999999" y="480" width="190" height="30" as="geometry" />
        </mxCell>
        <mxCell id="9gKRPX79BNtoWNbofs5v-61" value="Mention the TFN Here" style="text;html=1;align=center;verticalAlign=middle;resizable=0;points=[];autosize=1;strokeColor=none;fillColor=none;" vertex="1" parent="1">
          <mxGeometry x="1401" y="30" width="140" height="30" as="geometry" />
        </mxCell>
        <mxCell id="9gKRPX79BNtoWNbofs5v-63" value="Route Call to the Wave iX Translate configured for Chinese" style="rounded=1;whiteSpace=wrap;html=1;fillColor=#f8cecc;strokeColor=#b85450;gradientColor=none;" vertex="1" parent="1">
          <mxGeometry x="25.480000000000018" y="1036" width="120" height="60" as="geometry" />
        </mxCell>
        <mxCell id="9gKRPX79BNtoWNbofs5v-66" value="" style="shape=image;verticalLabelPosition=bottom;labelBackgroundColor=default;verticalAlign=top;aspect=fixed;imageAspect=0;image=data:image/png,iVBORw0KGgoAAAANSUhEUgAAAKwAAACECAIAAACCrFfUAAAAAXNSR0IArs4c6QAAAARnQU1BAACxjwv8YQUAAAAJcEhZcwAAEnQAABJ0Ad5mH3gAAAASdEVYdFNvZnR3YXJlAEdyZWVuc2hvdF5VCAUAABSISURBVHhe7Z15mBxlncfTMz09M909XX3fV3VVoQESIwEEshBBEJUnIQFcwi6yiLsIIYvgAayQdRFRQDkEVzmFcBMwAkIAQYi42ccQjiBIDoiENel+6+iuu+bf/b3Vc2RqeiZzp7q7nufzzDPdXV1dVe+3fsd7/GpeJUM7tDmOCBwcEYxDetQ7LYojgjGI0ZUgU4m3hRQcETSCoNGCEruigE4i8ctW10G7iiBB47vc8mYdsAF5mr8oVftlBJ1CVlI0xrJNa9GWIsjRaD6F5pcqERqT3O9eh/aO0NyqrLyxT3nZWylRWC6OJWhBChR3Xp5fk0EpshKmsEkAHUDzw98IjY4glY2+/v55ytO+cifT8mYAaEcRlL0Mf25W2UToOz3iujj75SK4gHI3U/ExlV5aeTFgVDv7jXnKbx0RtDBxGpVK1cvihtSp7/WoW3rlxwnheyluVV66L2yUu/oNF3wkP0Y4Imhpggx7fF5+nujXXGD5Dd6tvu1VXunTK56Bd9gu6d6wI4KWBowBTfHnZ8ES1Fvdgo480gNhHDaG6ErUDBcse2gh5kQEEF3bMMCGGDBfkjaEDOS2KAAwam7llQB3ZhbNL6IChe0BxI+QKVh20hLMiQjsefnq7cpQ6pYeiwIGMOYZcof6nr96YxItJsvzmHIX05Lp4uyLAAzvUSX0mZLtdACmnqDZFUXtL93W5h8CdCB16P/Xpb3VI60n+Msz+EQKo3bV5MyyCNJ02cfwF2T5NVl0tJ10ADYgRaOlBeWFPoPttLa9BblT39Mrvxqs3pRGXyIrpOkdLDtsZmZfBG6mdlNUejLMn5+rBOwRHEATJmh2aV66P9ivNogKAUNwax/0Qr4gPUCIPwtX/yPB/1uGPb2AjilV8uYeLPtsZmZZBHCxorT8aEDb1Vu7MY4zLjuE2RASLi7WbgqDtR9ocqnDqLohAhgSgbrNW7s1yZ5RgKChHMBdSZheBo8stFxYMJsiAAXEaHZZUdnk61c65fUE7pU76PcQNCFB134QNfgus+07DNShvuVX/ofQdnqHRCA9QaDjSKxaCB1a674fzWyKIA43EF29LqVt74F7Tt3sRV8gcRscxGuKFcBU1ybll0LS8+HqzxLcOVm0oIByJFpACpcmh0XwawLHgOHWVwAwmyKI0WUPLT9LGDxOxLWd3cIP0viygkW1bDmXQLayuMiekEefK6JDS6hkDiDBUYVodHRBeY0watgpiLeEcPO3gQKAWRMB3HNpGq6y9k5vv17viHXLzwXxqB0YWMvGc0yILgcYAPwCTljgUOFNkGaW4s7O6h96+g2XeH2o4mdGfKt1mTURwA1HUvzFOX1PV93A9msufWcPOpQcMX5vK8AkeGmIXQzkrv0wVO5xRDBNgjRiSOmpqMENZ+EG6uQuyCHanKlh2d4OgDqDDHdWQXnVX1sbdkQwbUAEiwr6J95+dTjvAncrPhyDEAzbYcv2NiFFl3109coU/7WsI4LpAbdUkeLPyfQrHUO5OEZ1adt97JK8fUUAxHAogxgzYLR8NBZg2Jp5mHF2RABm4EiydltsuPnrGPMM0c2fm67kKFtfNWj+yTgsdBiFs4yDm/VMg1kRQdnPcF/JKZsJqwhMaj+NgUTwOP2oLzYlYZo/P8OdkcPR7ljGA1JNEL1dE85ZEAFciyAtXJAykMfS/HXkTQR3eq7sbQmPaw6OSPcGpYdC7Cl5nP1CY8MVGPwUvwRl5CkIhyFdGv7ITsyCCCA5nE9Vr49a2n4Io9ItXJRsJRHUbonq+7qVl31oYalCMMOuBBTgZ8odDPo8yV2YZ1cW8SQl++lg5kVQ7mW4FXn5uca+AKO5ajdGKpOKvGyLKYLq2qS23QvJsPKSHx1udoSAs/Mx4CnY04vS/RF1q7f2o7A9FQDMggg8TPU7SW1nr7Xt90N+hmCXF8pwmUZ9vckwRcCvyShb/Djs5Tulxwj2yAJaUIIkU7w9orzq1/d6lM19/NdTePzM8nV7MNMiMF2geHvIEMebqaG9761ekWqF2Vpw/D0M9095+ZUAPjXQgdwp/SIo3hpWXu0zWNxbakidtZ/ETE8x6uv2YEZFANEvQaPjSfm35hUZG4PvEn8Zxhel2UdoQAR+hj25KK0f0/2p2/zcsmwlYF+zN6MiSNBlFyN8L6O+MzwwPxbKc350RAm7ySbVATS/mfiVfXgJs3hn0HKCA+iu6nVJbAYi7SQCaV0YL+GwXItRqNu8/OVZCCCaNTwM0eVOpgy+4Ny8tCGk/73RKSsd2kc+dGQB9yPZ2PENiiCCo/rpUwnQkCntP14wFvo+j/RQpNxlztwatZ9JgS3tXCopzIALQIeW+NUZ+WFC3eLVK10NV7AYcoe204/mF/HkSoiWLPuxDQMiQMcW+W+kq5cmhTVJ4ZKp8u/J2tVx/cPBseNxwRfoL73CJSlhdcq6n4mzJlm9LMGvyuJZQHPQawt3c4RGS4vC6oR0Z1Dd4uuX8NJVy6kNo7kM5BFviKBFhUrQvjoYEAF7akG8I6ZuC2gfebW/9U6RPb1GpXsiZmAAsJa7vNruUfuZOB/1Kn8iqmtT6BgShxcjz23mgSAgyLArC+LdIXWzV30XDqBbL3twKmROnGmIwXlq10XRwqJte8oH3UGQRoeR0iMRfbenXx7zfGyE4TKqHdr7Hv6KNKLmNvuK0xDosSuKENPUbk5Kj0fUPwb0Xd1wPPsfHpYF/DVf6qhbvCmKMiV7GoNBEYChA7capPjVWfWd8fp5bIJRdSvPEXhqgt9cSzTHYRe0JRgeUF4vXfHRlT6KW5mXnh9OEAzJDQbAqA16RsOMge6O2GXS/UgGRQCArcNBLMWenBPvCU0kwj9YqO/6qv+VwAYWLigc89wnmaA5+OmEKQWgj2GXkuL9kaEjlB4kuBVZdkmOOy1TvSop3hWTng3Lz4ar309XYrYbdN5PBACcG/itBM0uKVSviSt/7msY9B40jHmG1iH9huAvSqOF5mC0Te6qKI2OKFVvGJg/oe3uEVYnsX0yjxB8BzqWZE8pcMtz8BdbXJvNrhspgjpwZfEMQTMFejagl93jBcBzBc4mdvRIdxHssjyek2KrIAuuWJESLh5YtiD+OsweXxgOU+BTAq/JxPjtWPWikQjqgJUL0OhEUnqI0Hd59l+iNfcYfKf6hrd2QxwP1AI27F8K0NxpaTMndHMrM7ilbXa7j8PYIgDgTPoYiGWEb6W0D3wHzR7o8+TfE9yqHB5wshyhfQARfCWtoy5pQxSPJtt1rKgh44oAMMMflKO4ZTnp8bC1eWYbyAOFrtp1MfS5QiVh14nqdQI0e1JO2RxglxYr+SZbu34gEdSBaDZLgZ+rro1pO3on0R00DQzerbweEL6WQovMsqI2i6itQGy4kOTXZHC8Msf56rSZmAgAaIMQnjcmXJpUNkK0OKG+4Smj7eyWHgjx/5zFqwQhOrH/jQVHmKfQ4aYNaFkRAHBucVwJkjsrJz0S0j6clY4EQ+rU3u6u3RRFS0g8D7GJ7CocanOOiE5GBINAnoMOL1WvSxiVzn7FNWMBo46XKKlv+7lzsAFokZmozcBURIAlb0aL7NI8hEK4CKylOaeEvq9LXBdDhxcrcTMGbCIb0ORMSQQAtJC5pl+4Kq19MEYJuEmibunBYwHQ/ECzudWmZqoiACBe89PV61ParrFLwE0GbWsPOs5MBGzSGdw2TE8EQUp+mTCEBhVBp4D+saf6kzRKU3jPlt9ymE2mKgIzU0AUqf9tZhQAgJjk1wiUNSsFWX7OYTaZqgiiNDqEEq7IGGhmokKMMc9gOxBVdEQwx0xVBEEafYaUno7UyzzNFIboEtak0aeaeJl3MzJVERA0uySnf9I9wxMOVJf0RAQdXcRDhZZfbArAS4ab7xEJUxIBpHB5iv+XlLUJp4/u0nZ4uS9mcWkxy4/aH0hq4jR7QhEPHzRV1+GUREAwaAkp3jXm4nMLBnLrFbchTdRxCOcnm7KzCEKZCFW7K46WFJvr+KciAnP4IKu+cYAFhwOAhX8mKD4eVd/1T9B31H6FBw7wA0pH/bStidAoU9L+6sPPRziyVAk1zfFPUQTV1bEDh4S6y2A91WsT6KgiXB325Lz4WMQQD2wPlM0B/pxsk40dmL4ALSrq+9zKJoJblsMzySzb2JXJiyDMoIUl8bbhEuEN0VGX/ALBr0ijw83J9iEImih0bLF6dVzbdoAZCXrZU7083mQV5GI0JDX8pWlD6IBzF/410UQinrwIwBecnZdfGrsQSf887YMe8d4wd2a23Mdgq1jvBgY3SeBCX8I3k/IGQt839ki07hJvD6FD7F3hzIJZsA28Xn0ypnhLGC2Yk5VxM8GkRVDuYqprE9qHjRaomCUa1Dd6aj+O4TrxDe1h3KxtdlpeeiCs7egey5zILwZAanj9HiRdlj0cdCDig9aNjADue3ZpTn3PV497lNf7+AuyuGLN/pvVNUHi5/SO2OHBZpIiSEMT0tJ9hDE6xIMIgHNrb/pxMbcYjW2A5bv7EwDjWRLWpvRPzEdNjJKCtqO3em0Sr9exW4wNosxCc1KV4CAhClftDlP8qmS/PnD8+r5u8ZYIipcwCXKAHIkWkuizJfwIZstuDyqTEQGcP3i+U4vKy/6h1hpC/6RbvDeGl9vFTTM+fuPBruDOCFPoaNhbgyEoUIb0iP0eUGpeAXZ5sXpDSlwXFx+Iiw/GpfVR6emIvDGkbt3vssAtgfADdLQPPfrHbn2PyUce9c997BcLeCaqnTzdZESQoCFYE/4zpb1v9QXKH/3Ct1J4qnXUjJMnYsNhM3Nj9qhC7caY9t7I4ibGPOU1H/oHc2R5InubM+B4shR/UVZ+Iaj/3aPv9ejlLogEDbbLqI0cRjFc/VoHqKH+Uv+4Gzwge0JuoJqhnU5qMiIAd97JyE8GDTQ4y1R3QSQv3UPwqzJoPtjGSZ4bbAxSgJBqMSlclpQ3Bgy4avU9g0f4a49wZQb3wNit9y1kTiw+Lw1uUUeeoWYeB1zC7scxdqm5LMl+U2YmLAI47hSNCpT2hrce+xjVDvVtr/hzs6sfmmo6kwBAPUUKz19dR+i7uw0FS8GodMlPhiuELacXwAGHaXRMUbwtom7xGfwYQ6nmg7eVTV7h22bZosCo/diDCYsggR9iwV2QxwUM4NzYTuV1H//tLO4AmJEaHBA5Qzbhp2s/j6nv9uK1/loH+B2UhyBj1MZ2APxCCJICmv9mVtnkH1GcYBC8fnKXj12exzq28ZqkCYsAbCBZEh+NQ7xjSG7pkRBOAj0zutreNDblXpo7L6e81gcXUd/r5s7N44dkzOCvzCxwwN24jqFSr2NoEQFyiw/HUbGEbxXLF+3EhEUAnntBQd/bpW7rEy5JokOLONmF23fG3Rvc92mKPTEv3hrBidaDMRxv2vYimhVNhatS6vuNqvapLm1PNzrULFhk+aKdmJgIwPQVKMhtpGcI/rwMOmSW6w/CztM0hBrChUksgsNsvL7TFIF0Z7D+xDcAYltcxWhoGr7u4s/PDDxzzfJd2zBhEZQodGyJPbOALfMc9IbCL0awGrhVkFOZmrNsYAfqwTJNKb8zewg0F2SM0oNE7UcxaT2h7R6YhC3eH4UQ0s7TZCbsDqBVcHQzt7034HF7zCfTWt63CXA/gEzPy6tbvIbYoX3QI90XRoeVyn00e1KhdkcUP49dwQ/f55a3T1nbdiMKGqVrNye1nT3qOz7hyjTu4gQDBtrtY+BT9sy8tt1n1DqFCxP2lbIjgmkBptFHK38gpPUR7uxcJWWunqtHymAvcUZDIZIUfxEDobCnFWw7zcQRwTSA9s5RwnfT7KkFVBg1Qxo+BU2E8bRs9PkiHjeCl/tvYBscEUyDLF0hKdy60N7jhK6Q2oBVyI963zY4IhiDAXs+AeD+nstgeRZwRNAIs1FRtqmmNk0DRwQNKPsY7oxc9eokrpfW5Hf5RGhLEYxjwNNYAezpeenRsHR/yI5Tm2aB9hNBkkafxo+qxP24AWbEqjEw/gEaLSqJ94S17V5pXdARQYuSwDOeueU5/tw0e2IB/sdqCA30UlfiVPX6uLa9W0ce8S6zKLkjgtYkRle/H1Pf88p/CArXpNjj8ogkK0kKFSnu7Ky+G8+b0vd5xP+OOiJoXYIMOqZUuyOKZznr+Pl8yquE8J0Md07WQAPrrPU9PbWb444IWhdo1xgNHkF9sw/PENRdhtCp7/ZoOzxDqyW1j3prNyQcEbQ0MRpRJeHrKTzw32gBjL63W3o4ghbjB+vgx/lC0NC6fQbtKgIgQqNCSXqKaFhxxxA71Xe94q/CwsUJblkOfZbEX6lLoT5E1EK0sQggKUjS7Mqi9t7YJfgMUINb+d9A7cYYtzKDFhfQp0t4yKC1dNDGIoB7OkWjJaT21oHqMELcoLgM1KX8ieC+kUdMq3Unt7c7KJHqVt8BSyZoO3zShjAkk+iUInLcQesQotGRRenuMH6uZcPAsOyRXyGqP4zzZ6W4k3OwMfpUCQ8H48nQo/bW5LSlCEABi8jatXFcI6GuALXDqLoNfvghDuqbPuEas5geZAcBBhfSat0Eof1EYC6lEr6bVLf69XKXtr1Hed0rPxWQ7gvJTxJDVkH+fYD9xwJeXeP0E7QaYMkJBlpXWk+oW3ulJyLC2jT6Ai6tXu5g2CNyRtld7y+SXwywZxXwCFPLGf/RtJ8IojT6chEdReKlrn10xWsOHYGdJ+BTClyAvhcvI5F/R7DLio4IWhRICykKr6GLDlIP+OFvHPKFkryRMDi3vIFAXypifTgiaE3AzTds2gS2B9xXc+pmr/QEgZaSeAKxI4L2AtobMkCCrv00XLslio4zy485Img70nS5l2FPK7CrCrgqKWjCskEr4oigEUGmErHv0sEZxxFBIyBoaIPugSEcETg4InBwROAAOCJwcETg4IjAAXBE4OCIwMERgQPgiMDBEYGDIwIHwBGBgyMCB0cEDoAjAgdHBA6OCBwARwQOjggcHBE4AI4IHBwRODgicAAcETg4InDI0P8PND9/TFM6aa4AAAAASUVORK5CYII=;" vertex="1" parent="1">
          <mxGeometry x="25.480000000000018" y="1116" width="54.73" height="42" as="geometry" />
        </mxCell>
        <mxCell id="9gKRPX79BNtoWNbofs5v-229" style="edgeStyle=orthogonalEdgeStyle;rounded=0;orthogonalLoop=1;jettySize=auto;html=1;exitX=1;exitY=0.5;exitDx=0;exitDy=0;exitPerimeter=0;entryX=0;entryY=0.5;entryDx=0;entryDy=0;" edge="1" parent="1" source="9gKRPX79BNtoWNbofs5v-146" target="9gKRPX79BNtoWNbofs5v-55">
          <mxGeometry relative="1" as="geometry" />
        </mxCell>
        <mxCell id="9gKRPX79BNtoWNbofs5v-146" value="" style="outlineConnect=0;dashed=0;verticalLabelPosition=bottom;verticalAlign=top;align=center;html=1;shape=mxgraph.aws3.queue;fillColor=#D9A741;gradientColor=none;" vertex="1" parent="1">
          <mxGeometry x="603.25" y="1520" width="306.75" height="48" as="geometry" />
        </mxCell>
        <mxCell id="9gKRPX79BNtoWNbofs5v-147" value="" style="sketch=0;pointerEvents=1;shadow=0;dashed=0;html=1;strokeColor=none;fillColor=#505050;labelPosition=center;verticalLabelPosition=bottom;verticalAlign=top;outlineConnect=0;align=center;shape=mxgraph.office.users.call_center_agent;" vertex="1" parent="1">
          <mxGeometry x="733.6299999999999" y="1648" width="46" height="55" as="geometry" />
        </mxCell>
        <mxCell id="9gKRPX79BNtoWNbofs5v-148" value="" style="sketch=0;pointerEvents=1;shadow=0;dashed=0;html=1;strokeColor=none;fillColor=#505050;labelPosition=center;verticalLabelPosition=bottom;verticalAlign=top;outlineConnect=0;align=center;shape=mxgraph.office.users.call_center_agent;" vertex="1" parent="1">
          <mxGeometry x="610" y="1648" width="46" height="55" as="geometry" />
        </mxCell>
        <mxCell id="9gKRPX79BNtoWNbofs5v-149" value="" style="sketch=0;pointerEvents=1;shadow=0;dashed=0;html=1;strokeColor=none;fillColor=#505050;labelPosition=center;verticalLabelPosition=bottom;verticalAlign=top;outlineConnect=0;align=center;shape=mxgraph.office.users.call_center_agent;" vertex="1" parent="1">
          <mxGeometry x="860" y="1644" width="46" height="55" as="geometry" />
        </mxCell>
        <mxCell id="9gKRPX79BNtoWNbofs5v-158" value="&lt;b&gt;&lt;font style=&quot;font-size: 22px;&quot;&gt;CONTRACT QUEUE X- Separate Queue&lt;/font&gt;&lt;/b&gt;" style="text;html=1;align=center;verticalAlign=middle;resizable=0;points=[];autosize=1;strokeColor=none;fillColor=none;" vertex="1" parent="1">
          <mxGeometry x="540.71" y="1411" width="430" height="40" as="geometry" />
        </mxCell>
        <mxCell id="9gKRPX79BNtoWNbofs5v-159" value="" style="shape=curlyBracket;whiteSpace=wrap;html=1;rounded=1;labelPosition=left;verticalLabelPosition=middle;align=right;verticalAlign=middle;rotation=90;" vertex="1" parent="1">
          <mxGeometry x="745.71" y="1317.53" width="20" height="318.93" as="geometry" />
        </mxCell>
        <mxCell id="9gKRPX79BNtoWNbofs5v-163" value="[ContractX, English]" style="text;whiteSpace=wrap;html=1;" vertex="1" parent="1">
          <mxGeometry x="570" y="1720" width="140" height="40" as="geometry" />
        </mxCell>
        <mxCell id="9gKRPX79BNtoWNbofs5v-164" value="[ContractX, Spanish]" style="text;whiteSpace=wrap;html=1;" vertex="1" parent="1">
          <mxGeometry x="700" y="1720" width="140" height="40" as="geometry" />
        </mxCell>
        <mxCell id="9gKRPX79BNtoWNbofs5v-165" value="[ContractX, Chinese]" style="text;whiteSpace=wrap;html=1;" vertex="1" parent="1">
          <mxGeometry x="850" y="1720" width="140" height="40" as="geometry" />
        </mxCell>
        <mxCell id="9gKRPX79BNtoWNbofs5v-182" value="Router" style="sketch=0;outlineConnect=0;fontColor=#232F3E;gradientColor=none;strokeColor=#232F3E;fillColor=#ffffff;dashed=0;verticalLabelPosition=bottom;verticalAlign=top;align=center;html=1;fontSize=12;fontStyle=0;aspect=fixed;shape=mxgraph.aws4.resourceIcon;resIcon=mxgraph.aws4.router;" vertex="1" parent="1">
          <mxGeometry x="1282.63" y="450" width="60" height="52" as="geometry" />
        </mxCell>
        <mxCell id="9gKRPX79BNtoWNbofs5v-184" value="" style="verticalLabelPosition=bottom;verticalAlign=top;html=1;shape=mxgraph.flowchart.parallel_mode;pointerEvents=1;rotation=90;" vertex="1" parent="1">
          <mxGeometry x="1260" y="985" width="96" height="40" as="geometry" />
        </mxCell>
        <mxCell id="9gKRPX79BNtoWNbofs5v-185" value="" style="verticalLabelPosition=bottom;verticalAlign=top;html=1;shape=mxgraph.flowchart.parallel_mode;pointerEvents=1;rotation=90;" vertex="1" parent="1">
          <mxGeometry x="1260" y="879" width="96" height="40" as="geometry" />
        </mxCell>
        <mxCell id="9gKRPX79BNtoWNbofs5v-221" style="edgeStyle=orthogonalEdgeStyle;rounded=0;orthogonalLoop=1;jettySize=auto;html=1;exitX=1;exitY=0.5;exitDx=0;exitDy=0;exitPerimeter=0;" edge="1" parent="1" source="9gKRPX79BNtoWNbofs5v-186" target="9gKRPX79BNtoWNbofs5v-158">
          <mxGeometry relative="1" as="geometry" />
        </mxCell>
        <mxCell id="9gKRPX79BNtoWNbofs5v-186" value="" style="verticalLabelPosition=bottom;verticalAlign=top;html=1;shape=mxgraph.flowchart.parallel_mode;pointerEvents=1;rotation=90;" vertex="1" parent="1">
          <mxGeometry x="1260" y="1094" width="96" height="41" as="geometry" />
        </mxCell>
        <mxCell id="9gKRPX79BNtoWNbofs5v-189" value="" style="html=1;shadow=0;dashed=0;align=center;verticalAlign=middle;shape=mxgraph.arrows2.arrow;dy=0.55;dx=16.63;notch=0;rotation=90;" vertex="1" parent="1">
          <mxGeometry x="1281.99" y="810" width="52.02" height="35.71" as="geometry" />
        </mxCell>
        <mxCell id="9gKRPX79BNtoWNbofs5v-192" value="" style="shape=image;verticalLabelPosition=bottom;labelBackgroundColor=default;verticalAlign=top;aspect=fixed;imageAspect=0;image=data:image/png,iVBORw0KGgoAAAANSUhEUgAAATQAAADWCAYAAABfen6iAAAAAXNSR0IArs4c6QAAAARnQU1BAACxjwv8YQUAAAAJcEhZcwAADsMAAA7DAcdvqGQAAD1+SURBVHhe7b0HkCX3fd/57RxefjPzJqfNGYtFTgRIEIEkKIpUiTrSlKiTaJ2OLsmSda6yVWdaV3Vl6Vx1KpWsk05VtuWzZYsSRVKMYgAIEiCwyBuAzbsTdnJ6OXW+3//NDDgAdxcgscTuvP19yMab16+7X3fP9me+vw7/v5TO9kQg/jVM3C9p4keGYZjrmh9EHv4QzbV3P0IW//ltlhnDMJsI4SvhrTcjPwodH2SZMQyzyRDeEv7aiPxrbxrBMAyzWRD+siGtvSOhJaUfvWEYhtlMCH99XPpRKGudQ2MYhtmsfDD60SkzFhrDMJsakdLuxarUWGgMw2x6DkFpvbLQGIbZ9GyVVlXGQmMYZtPTG7HQGIZpE+Jrd2uw0BiG2fSsi4yFxjBM28BCYximbWChMQzTNrDQGIZpG1hoDMO0DSw0hmHaBhYawzBtAwuNYZi2gYXGMEzbwEJjGKZtYKExDNM2sNAYhmkbWGgMw7QNLDSGYdoGFhrDMG0DC41hmLaBhcYwTNvAQmMYpm1goTEM0zaw0BiGaRtYaAzDtA0sNIZh2gYWGsMwbQMLjWGYtoGFxjBM28BCYximbWChMQzTNrDQGIZpG1hoDMO0DSw0hmHaBhYawzBtAwuNYZi2gYXGMEzbwEJjGKZtYKExDNM2sNAYhmkbWGgMw7QNLDSGYdoG6bC9PVr7mWEYZtPyAbMC6egdW1hoDMNseh44V4c0/+9zLDSGYTY9u/5IhhS9aLLQGIbZ9GQeSZPQnmWhMQyz+ck8luarnAzDtA8sNIZh2gYWGsMwbQMLjWGYtoGFxjBM28BCYximbWChMQzTNrDQGIZpG1homwFp7ZVhmCvCQrvOEY9x+MHqK8MwV4aFdj1DyUzIrFCiV5+kJpIapzWGuSwstOsVEpfjAvNF4MgScHxKRalKvy6OagxzWVho1zFNDyg1yWEqsOSEqDgR/JA+4JTGMJeEhXYdo2mAZZDQKJUljBC6FkFimTHMZWGhXU9sPEdGr1UvhdnaFlTqGUyUdrXev87GaRmGacFCu44Qp8deP0VGsnpxZiv+4vBjKLi78EevfALPTI6iQSWo+OwN0zIM04IbeLyWbPhzEgSA46z+bJr0EUnrxLyGZyYMdMZdlHwTW2MN7Mp56EjStEJshEElqaKs/txCnGNjmBsQ0cAjC+3d4BKloTgvVqkDdX87JbARKicTiMKABKVBcsagaSpWmh14djqLL1/IYZddxsd2nsaWTpfmyaDS1JA0XchRFYYuI25pSFl1pLUXxZ+ptW95E/ybZtoYFtrPig0CE+LyfKDhAholKZUGN4yh2BhCvqyi0NBQdtXW/WaaGtCgwq0vk9AkuFIPxivdeHG2jpzcwHuGXZKWQ/N65CYZphbAdUlqFOcSdgIdiSwJsYm+2CtQUUFI3y0uIojvFIhXeT0V8m+daTNYaFebNZHV3Cy80CaZSQioBKw0LJTqEWwjgCn7qHk2pkvbUG/kSTJzJKZlWFoNhrpaLzY9mUrQCMVmEgtODjG9hmZzER1GJ6UySnHaCg2r0zq+TMKUSIhxuMEgSt4IDvSPQYEDP5RJkBF02YGt+QgVC4ocwlLLiOv51fXl3z7TJrDQriJiJ4ZCI2ESs/ldKDtpEky4KiY3h6YTkJhcKFKASi3AUrmEXPwl7OxpYLArooS1upx1SlXg1Ska5rPI9dxHqe17iFPq2tkD7OilCTacf/M8YJ789Oo0MDYloXfgg4CSaqUxWyfx+QV0xhskuw5yWETfO4uR7FlKjCVocnSpiphhNh0stKsFGUEksXI9hdPVX4ZbPo9G/TgltUVKUBLiRoi0pZE8JBT8g5hvDMCrfhGfuCNEwlotC9+clMTNtCdngefGcujs+RAapS9hW6qErZ30i0uICVana0Hzi8eiaq6E4xc0PDf9IFLGeQwmJ5AwVCo9I0wVQxJYiFBKkex2ozO7GyPWf0NvR5MSIi1jNfAxzKZFCI1v23inkEiaDiWk0iBOFR7CseNfwXLhMLoSS7hji49HbvLxnj0Bbt7qYGt3kzJcFfVaBbtycusK5es3yorfBEkMQi40+JS63AaJSk4j2fcwJb/tqDsxeEJka9O0BjEPLUNcB9ApbeWSHqWxceTSvRjp24Z9W5o4sMXBQwc83Lvdp++twMRruDD9OI4sfQRn57pbaZBjGtMOsNCuAjWvH5P5QZydmKNybhE7+8sY7fbQnQE6EhHSMVBJGbXOZymUkhQtoIAVkqxoZhKS4wNLiwpOv2zh1a/FcfjPknj2j5OY/L4J01BgW0lIahfmT9s4+nkbz/1pEsf/LoGTP4xh5ryGepVspJCTaHk6fYcczbQuRihKnBIglbM0iPXopHA2nPOwZ6CM4eQM5udPYKq0A8XmYOuiBEuN2eyw0N4JJADXBQkhh6VqCuXKSewcCLC1B8iSPMSjS+L+skoNKOUlNCoyeYdKT8PEci3ExTEVEy+YGPuOjfP/EMP4V21MfouGb1sY+4GJwkUN1tq5NUnRUS7rmHvFwOTXLZrGxvg/WDTYOEfznDtsYvqCjtkyCTLMwnfqVKYWUFqRW0NI0lRInsl4hMHOELv7XFjSayjV5JbQmkE3C43Z9Ch/8OvqH6z9zPyk0J+Dcj2OhdogFqoq3OAE7tkunrmkMpREUVtSURpXMTuuoCiS1IyKcqETZSeFplxBZTzC8uMWFh63UTqiI5pWEDkSNIXMYlDE6g8gb7UhWTejMH8MWFmCvRDAXlERUUkaXFRQO6dh/pSGuYsq8p6CubhBcroL8eUV6NNT9J0yytNksoa4GipDBDFVj2BawHIFqNYjGOYA0skkYtrFHzuXxzCbhf/rf5h8UeAdQUKbKdyM6UIPZlYWUG68go/fQTKrSJg8ZmH6CRuVw1or+Bg0iNe6HqK+pxvap+5FNP+3SH5RhrZAgqKycCNRTUJpyEHxQSA+uhP5mWXEnqsgczGE7b4xWEt1CY7toXhLCLxvJ5T5USSePgP95DRCEplAPIQQu9VD73vrGLi1gVgaePpEhGJdQTL9XmzvNbAz+w2+OMBsWvgq5ztlg9CWqwtoekcgF3RI34hBonIx8qXV82SEkJkYIleCmyZZ3U9l4FQdmQkVRp0mEh9uQCKh5aksrD5cx60PAONTAfz/HoNx3mhdTHgD4s4MUdrGfCx/rIaBpztgLdCv1aWRa7/d1gu9VcQ5tgEfwe0kyy012PQ+kXofRrosFhqzqeGrnFeBhD4Oy6giVDJwwwjzrg9nSaaEJbeuYMri7nxxwl7crU+Dq4ZwUk2kti+g58EqvE4PVSeCt/ZspiCixFXv99Ds9yFR2vPQgBz5UIYCeCQjkfLWicSVUJJfmAmgvbeJfQcaqA0VUZddSB6twNr3iu8X6xPQetUXFBSKq+unqnuQUGXE5OnVBTLMJoaF9k6g2GMbRcSMGkmLystqH5zTGtWVEiRxO4UYNhB4VPpRIqonA9RkD0EshL/dg3dLE86eBuokOq9Zg7u3CvP9deTuayKTDrH45RjciwYS+12kHq1DvZ2mzTiU/kiEWzz4d9bh39JAo9sjSclo2CFqtGwhzzcgbvOgQC6So3NBxsq8CG2jSNlNpI2ptRjHMJsXFto7gQQgno9MmXkktWW4bgK2oyAacOEnfHhRBFcjgZDIxIOVDTuAtM2FRRIrLyooH7aAHkpeD9YQ3FJDwwgQDg3CHQ6gjtaRGPVgkIDmv2+gcoZKWRKhvsuBtEtGsK2PviMBZ3cAhSSnHWyiMani4g8MxGxA3+3Sckh2yqqlXI/WhVbYSwSIsh5MI0RIJagcVhDXFxCnbWChMZsdFtpVIGVMoNc+jGzmDLb9CqW1/7lEiauJJgmo3ueSOMgUlJzqu1wYH6hj8AEHSdeA8owJpSBRcIqglyJoyxbUX/4U8GI3Fr6jYOJZHctnDDj3NFGgNDVzVMUEyS3/2iBSOx5CMzeAoGHDaipINlWoZ0l8fxfD6B4P3R+qQrrJRc2SEJDU6gqtC4msMuDAu6eK/t8u47Y7InQbz0APLtD6rW0Mw2xi+KLA1YBk4PpAqQLM03B6mQIZlXWZuEQlqYSxF0zIp3fBWynA6VmGn/OhTujwDlahPxmDOW2AvAMlrWHuw/vQ+aVzMPN1ROK815AH63fymPmqidgxG2ZNQTAch3vHEGp/ewFxx4NMZaw37KNBInPPqLD3e6g1ad58B+xaFl4wgb5PlJHpDbGwGGGpCAz1R7i1B1Qui5tx6S8b/2ljNjl8lfMqInaiCGLNEHjyr+K46IbQBwKkaWTtqyHiH/wMaq8cRzR+DgYZ0JMiyJ/Nw5+hfHaEhFdQIW0N4B1SYKw0IS2uGkZKkylVGZ7lUZpTITdlRAkZYY8Cb4LGHaX5JQnKHhfK7iaqR2ykTlN5WqzD37cP4faDCP/+y5A+XIe53UHhJC1jScFdv9jA9i1Bq0kjDmdMO8BCuxLrR/lPsnfEPCSIscMGzlMpuRQA/rQM+fMatE/vgevNQVrKQ3EkNC0ffn8AN5RgisGIEMZChGv3o4kLCIG4h4LKRb2iAwnxYHkIX1gzkmAoJDz6TFkhsdE4z48Q1ej7shHSYxZ9B5W6W3OI4v3A/zOGxt11qLc2kCL5DWoStt/pIZkK377MxIRiEKvH/2KY6xAW2qVYP8LpNV8GFqg82z20Nu7tHMxr8y+VZEzOK5g9o6D5jIH6nirQKVEZKcMnUUlmAGeCshqVe2aPBz1N+qIyVXFUElQaillHENThVBVYGiUyR4YU9xBoOiJPh+7VATtEpIUIwgjBLJWikyqimxxojgaaGrIeQSpJkJ6xoO5wkN3vYmQkxFAWsExaybe652x9XxDiEa4arZt4HtXS6c06/K+HuU5gob0J0QSPOBcWBBJCV8bx8QiHz0X4jffLUCwKRHJI1R+lIlENXmmvCRHQNCVKTFMrwCy9zi7TMqskHCo1I1tC3IpD00pwIxUrdR0VKiUTmo+RrjpKzq1I2pTmKgtYmRT3WqwS63WhJbvpq5NwnTPwad6LRROBJLf6Hei1HTT9OGq1GmTRXK1LkqPtsTI+hnoibEsCWRskJVrYW/zWxcdiEaIfUJ8SZJW2YXrRQioZoL/LhUrbIe5jE09pbfAew1wzhND4Wc51SEA+DRemgckLJiZfsDF2QcVSRGnkhRTKug4nIqGpwWq6eQshiM9FO2OZOJCm5S6WFThagFRHiO6ufhjGhzGQO4Mji734ZmE/joXbkbBs3D00h0g9hJRdg+TmUaaSch09Qd9NQovFszD0OdSiHnyxcgu+kt+JCnQ80FeBnbwfmrxAnzdARWcrve3s1HBwKGy1+iEE9JbrTusrHrovU6icL8i4MK/h2JSE01MuynWaOaLEKBqvpGl00UkLTc8w1xp+lnMdckZxUcXJJ20sPa5h4Z4qpGUNYUlBdbCJzhkN7tYQybM6hvsCbP35Grr6KLpsqLwuh0h9IuVcOKfg5deoZMuG6N0hYXYhiXgsjyqVhw3ZoDKUElzTR1KtoSkeXncdSmE0NH+Uf2SNyj3LgG2qUJQavIjmlazWvLbioUtv0vLiyCSqaFYjlC8oSDUkPPwJD5YieiEg3obMRO9Tr57VMDsVQ1Sh5VdqqFDS8w0SMqW+uETr26kjbhax/UADXV0hCZTm5X9JzDWES851SGizsyqe/lIMte8YWLmXokkqQBREaOoBElRbVUoqjFcsjI6GOPCpKnbtEmf81+Z/K8hJ1aqEp07ImKeEo1khSnkaTzLzSTjNFQlRQWndkhGS/MQNry1Z0m9GoZnja0WdyGoiYYlmgFQST50mUKiElMXJ/TSVgIkInhYiSriQDCpMAxmj9PmhO2lha8t7S2i5jQbw7W8ZuHDEhOGqqCUc+OJRrjglVNEaSF2DpGhQyy4e/PUKRvb6rR7eWWjMtYRLznVIEqIJ7QYN+SYwZ0qopXw0DRc1ElBEZeJKUYcdizC4x8Pw7gBJm47ejQewcI6IQOL1zQON1y0q4XwJRZJFsQTUyhLqlAKL8zLyEwrqEySJeRUuvXpzlORWSKD51aGjYMCi0jMmxtGgLpBcpgN4syS0mg7Fo9pWdKxCNXMkHn0iK6omJcFciJGBCAkqNVvreql1E8MlqBZpvQoBZus+5k0FMtWWjuoiH0VYCiXRBQu25HxsO+QhmVk7r8gw1xAuOTfQapOfyrvvvaThOyd1KruoTPM8BBUq53LAQtPEXXtcvO8mD9v7yFEi8WzAC0hQDRmhd4mgsnawTy8qmKE0tlwJUSyEaBR01EoSgpoEpSlDofmlOZqYViZGKUwXvQ2TZJOqAiWegCSTWOhjKfLhNKoQT1Slh5JQUyocKgcdO6S0JlFSc2GlPPRkgtYVzXicJrzMb1mTizBIVK1za+vQz6JZ8edPSfj6SyqmSja2JeIImkUUqX6uyxo6OwJ89sE6+roiUAV8OS8yzLsGl5zr0NHYan5HXI0sAp//roS5cRV2lQafij6dZNdZx0P3h7h9t2hOG7Apcb1+2wNJZnlZxatHDNSW6M36+EugaiQvqh2blPyWCjLKbgiNyjVxfqzQFCWdMBaVleJeNZJpmdZJ3Oph3/8g5FgStk0/07BOLq2SfEKUKV7qZLv+VAy6VIcsvcm4l6HH+Cb60jNI0TZtlJ7oZ+DMlILDryk4ciJArma21kmKhTD6ffRsc/HYrSRLc/UWEPG0AcNcS1ho65Aflkgcx2aBzrS434oE50mQSUx0CLcEE9Ebmw56lco6K5KxY0Dc37E2PwlqhkrFZ78Qg/YM2ekKLpGl1hJb8hBlbkBlrESLklypdf5MjI+S9B+FSl0/gkslZKEjg72f+xzM3p7W/IhCSoIin9Fk9N2i/wAxr2hpQ9UodofiuSf6oNVm0ZWRJ/93DNgvoitDGy3+JdC+aNLsp5eoNKb1Mg0qL10qKUP6oPU5rS/JSzxuFdAoCoIYSK1ezd0oRIZ5txFC+9Gf+hsccSK+UaeUJo5r2iuKQQeuuGvfIlOYYSulNegAz1OyKjVo4paV1lh1DALRNhmlKlD5uTrBjw9i1nwzQrEcoVKl5VOZq9D0ColKNL2tqTSQTDVKaoYnwyRrqBElRTsB24jB0G0aYjCtZGvQ9CR0Y/Vnw4xDUQ2oVhrnxl7D0aPPYnmlQPKxLj3QvBH0VofIGxGCrLskdhp8mkIRVzBpH7T2Be2XiGQrrtyKWzt82ififjWGuR5goQmEtzSgn1LGzDQwNQNMU1p78zA/Q7uLBCR6ULpSGhEJRgjwzYO4e9/tclG5rYr6e2oo3l2Da5ERxOJ0EsXa0HLfJRBfGYlb9sk4EpWX1VqNhOK3fpYpqolnOiuVElYm51C/eBaFie/h3Lmv4vzkBRKQj3q9ivzsHMpzi7QMMtKlNoJGqbT+CRE0KalNXGJfXBSvczRtSUaaSm+Lto1hrgdYaGvE6aAczgIrKzQUKEWVfnwoFigx0S4boOne8rGhNyHaI/MowTlaiNoWB9U7SWr7mq320lxKha54dnO1irwiPtWDtWIJ5VIRi2cv0DKbaBRKKM3Mo75cQP7kJNxXpzFYMDBASbAx/SrGJ19DtVpGbWIRBfq8NLVA1aj41V/CnCQ00VtVp0lio21cyl9iXxTFK5XOTRlZW7Qosjofw1xrWGgCOhjFBUXDlJDM2EgmU0gl060hKYZEqvVqJSwYMRm6SCRv8wAW1Zxoj6wqB6jaPpoVBbUzJpZJCDhnwSVpVAwf5ShA3aeFivNvV1h2neQlRDZ9/BSWX3wNfq2B5fMTGH/qOSweOYGF7x3D0FSAffV9OBg8ggPKXcgaNRQW5qAcmYFxoYDIc1uJ7rLQ95u0jUnbRDK2uh9e3x+0LxI0xBNJ2AlKhuLJrMskSoZ5t2GhrUMHpaKZyCXvpwP1M1Djv9saFPu3EGq/0npNJx5CwupZm+Ht4asRlrs9hJ8uwf3sCrw7a61WbkUidMQtHPdVUP21PBqfKGL5ZopwrXNwazNfgsgyoPoaul4uY3TrXtjxJLoP7sbALXvRXJnH0/XXsBJWaREh7CiN4fitOHTHx5F2LfSZWfRsHYEx2kNpkErdy5mTRovHpDqzBxHLru6H9UGyfhMN+ddQlD6J/oxo9YMmvoKAGebdhIW2AUlSEUsNonvkdgxsuxOD2+/A4I67kcodQqxjD+LpEUpn6Z/oAJYdCea4RmWehvklKi0XZXQUFWQTgE3xTFpRUSzKKM/KsE+S5WK08CuEp1qxiFJ+EWrWxsiyhuD5cTgzeRjdXei65RY8vO1uKhdTrScMCs0axoqLVM6unrlfNhwEXTY6unO0DVfeCHExVbeySPXsw/Due2h/3I6hnXeha/AWZLr2ob97G1RZnBVkmOsHFtoGxA0V4iqhZaco+aRhx1IwrQRUIwFFj1GCsyDL6tsXmjgvJoWoHKgiSnq0nAhBzoM72qTviNAcdhDSeNsOoed8lGh8NUHZ6gq/lWQmg+yOUThbMpheXoA+VUHw8hRKz5yDda6Cm9VBJCSztS3ivpCg6aFaKiN0fPhDKaA/BU2c9X8bSIoKzYjDon0g9oVliyuqCehmApYZa0mPYa4nWGhXIKIUE4qrij8l4kKir5DQDtWgUdmZykbQRz14OxzE4hSatpLk+jwkO0IkRBd1BxtoiM5L5MsbM0FC694+Cn17N5Z7VfhUu+riea3jc6i9Og215CKgdRZtrvkGrUNcgUoCkyihKbkk5LRF6/UTXNHYsA/EfGKfMMz1CgvtZ4w4/H0RiKiMFOfhDXGbQ4x2PO15m6RGgafVd4AIVEm79XJFwpASXODDiFlI3bcLxW1x2F1p9KU64MgBZovLKDlVFP068skQja0xZLJZSIaKiErPyPvpBc0w1zsstJ8x4mkA0XlKuQ5cXASWlgFyDp4/ThUpjRctW0wvAeengbnSqgCvhE8paWl+Hsef+j6VwwYUWydRqug10rgpM0RloISlQgFnC7NoZC0M7d8P3/NQy2poLBQRLJbXlsQw7QcL7SdFRCix19aHKyBplMBUGYMnU0hTRFPQAVVLo7ML2DYIUKhC3emiUi6FTpLSQD6G7KwG1b18ThMn4i2oSOQl9D0+j4FjVeRnFvGcPIvTO4DRrj5s7eonuQ1jxOxszSPJEtIdWThLRTSWK5CvdA5tfbv4/BizCXmLQ/IGY8NB3GrZgmrEkBJRo1aBJ1JOI0C5FrYSl7jBtHUqSrjhcnuRxsskE72uYqZwO16Y/R0cn/8lFMrp1iNDeVrOC7O/hG8v/EscrX4IRiitPmZ0BZmE4ikBTYGViWNycQbFfhPqvaNI3bsL1p5BzO6Lw0uoMFUd6koD7tl5uPRlorFIreJDd2j+N5/NF+svrnVQ6SsadyxQiFuh7StVHNQqRRRLVMLSIPpnUUiGirhpj2GuQ7g9NHFs0gEtboCtN1ScmhhAdVlDbWwKtWNH0Xj1FQTlU8CrFxDNnke0OI/mdBOFWRXLx3QsnNVQWlaRX1Qxf3a1/TLx6NO65EI1QiPt4WzyPhwtfJxGUIpKHUbMrrSeDniWJDdZvxNpeQkHcRjmpGh6g2ak9ZFIICHJox6z0fvQ+6HGYi3BisuLiqGhEDSg7+mDPZKDkYqTJAOUVgqQqg68WhNh3YUuWvAQTf6ML9G8EYyBLPRO8QxnRLJVkD/1bXgz86heVDB3Qsfyyzry0xrK4naSczLqJ8lslSkES2fgvHoK9QsX4RSriNwGUtpzSMQ9qLSNDHOtEe2h3dhCI2mIh6yrFRn5BQWLUwouTALlk/Oovfo8Gs88Cf/wc0j3jAFPHwHm5+GseCjNqajNaxj/iomZV3QUhQDmVRovIUYxZ2MACtUQzYyHlb4dKHj96NTPY2vmWSSTjVZnJZP590IPJGzTj2BbeBTmCRsQd99TWnqz0DQSmrjzS9U0mOkkgpSJOL3qmk4pso7S5Dwy5yn2kbhqlRoMSmOdkgV3sYSw5iLYSSXvUBaaeLaJVlKmcnj8H7+D/NMrKJzUMHOBBPeMjUZeQ8NR4J/NQ3r2FKTiWajeMZS+9QKaY+cpvRYh+SS6+RmgGbSSm0h4msZiY64dN7zQxP1epRUJp58z8fK3bEydUDHQk0d8fg7p3ApiiRDKogX7PQ0gaSJsaojsAMpWH6pJzjlHYlFIMHkFjTEZZSrVUgYpZ11oQkj0pkqhK7PHQ0diAgn1JRLCGFSaRtzvGlcb6E8cR6/2GhKlOmJjVHOKh9Rp3UQrFgEJrBGz0HX33VDi8VayEsiyjBgJTtySIe6kqK+U0Tg/j90FCymY8JtOK+gptoHpuIv0z9+K2EAnyU/YkhBCo5J66q+eRPTSMpK5AMn3N2h5JGSaRN9CK0efe7MxoCHBvsuBlLcQH3KQvmkKRnUChb/UcfpZSnVVBUoaSGdo34jFs9eYa4AQ2lphdINBMhEym5tQ8MKfJzH5l3FkVnRs/wAdiXTweiQ21VFhDdOEMR/lP2+QTFwoEellWoFM5aWaopKNBlFeRmaEMP7jR7HkSYiKtMiCTwnqFJLG48jFTiBJ84h+AZZJgDHjOXSnnoSljKNOoWddBvlGiKlSgPkyiWV+BUf/+b/FC//uT3H6+88iXyiQOFZTlhv4OP/kszjzxA/gJICx5Tmc2EbbN5pGMp5cXdgV0HMkxU4V3riKxtdiSD5cQzAlwZ8lMYv237b5UEaDVrd+6nAAbdSnbY7gi57dqU7v3B3CtCWMfc/A92lfth7aF0JflzrDvIvcmAmNDrYglPD8f46jctKAUqaEYURQewO4JKzqhQbqRgK17BZUu3ahNLgH4cBt8GMJGD1lJPuLJDGqCckpVd2FU6O0VZLhkI1S5o8SWj0eYHnUgbO7DqvHg0bTSlKAetCB2fK9CBwfCauGuNmARclPSwErVoDasgSDPJaUPBheDZHXhFYtwiZZqedOozE5jjyVoZnuHlw4fhTuyTkMVmxsQRapgMrPDhW+LvovqKJcLKFfTaEie5AT9BdMPHUuIt1aQpv4ynfRWJqB3BkAAyTsTIh4lwO730UtMYR8x/0wtt6CSB1BVetFZR5wx6rQJLkldK0/QBQP4S/ICMboe4cjJGkZqnjGk2HeRW7ckpOEE9J/RK9G0bQKxaGD0QpRtehgTW6DsecOWDfdC2vHbTC27YffPwCtYwesrIue4VkMjiwgmY2QGfKRHvWQowSjd4Qo1iLEA/EUJf2P0lkt4WNlRxPRkAudSlTRTv+KM4zxyqM4OvM/oemnkIlPwVYoxhE0K0rzChLLCqnRxER6GM/13YbTuZswltuDKbtbtPWN9MRJ+KUSmh0dkCmp6bRclWo9vS8LvzuGgIYwa6Ohk2joS3tCG8sdMpSOOFSdLLwmNPHsanPma+gdncSWu13k9vvo7ArQvcNFpi+An96PeveH0bFjP8yOLVB7tiA0cnC1HMLOLvjyBTguiZDibrgiUxqV0Pe+5mrpKW4WZph3kRtaaGIITAmlUyrqeRme5lNyitDYdw+6H/0oug7diVTfCKyOLgR08GsJ0WLsEnKpcfR1zyFLiSbT7aN7iASw24ecDTBDZZuxoK8uXvQJQAmtusOB0UEHOJWY4qpm0T+E8doncWTqEVTMGLZlDiOtzyIkAbolBbFjJmzPwsX0KH4wcA8eH34E57oP4Wz3zZjP9sGTZSQKi+gZew2LroOB22+H1pWl75Lhb83C6baojEwhsrTWrRpyqY6Up6O8Jw01aUMRjyi0oHJYUmBp38T2/ZPYdjMJrd9HBwktmaFSlBJe0zgAN/1+dPTmaBsyiHXlENH+cDtpPcwMGkeeQHOaZJZXWyWp3RPg4M/VWv0LrIVUhnnXuHHPoVFAERs+urNJacbFiuLDKQYwL/hw3QSVhrFWaxWB77/edr9INdWSj6WpECuTCiqV1R6eWl0v0fIUjcpEi5Zapffi6SL6kY5rxD2ZhKLAbirIhgoGKLoMqpTsohn4SgUmLTcV0eeOCntOx2hBxkW1F8dGbsHcyB6Yogdf0VeApKM/3sT0lt34yq6PohiqsP7xW2icPw+zJ4Peg7vQ1dWFbDYLSzfgOy7q83lUJ1dQDx2YVKKKCwhvxjAMSnc0nkrciLbFp6E8L2P2pIz8FE0Qha39sD6I5zlVVYMtxxE+Q9t83EDlqAbHi9Bznw9DPL7FNmOuETem0AQkISMG2IcCpAcjZEk4FsnF9qpQWj39vgk62ldOVnHuv0U4/H9n8LUv2KiLHpouswfFhQJjWUPq75MI/kO2NUh/kUXqL0/gtq/8G/xe8RP4rcd/B0P/car1WfifKFU9riEqFfG1jvfDGmngQ71PYr81AUmLobdcxyMDL+G+kfNAtgfPjn4ApmJg7rXXUF5chkES20g6nYY5kMFMro5vlY+hRlJ7K7wQmFsG/uFzCTz1+xrmH6f9EJHproBo10PcTNJBabXnplpLjGLfMsy14MYVGiHRAXzw1iZ2PdaEfItoNVac4wrpwL70ESl6Uhc9Qi0tRCgdBZVZax9s4PUWwuhFBKKYJSFjKKuDSSnNpBIVZQyVFrBVq6FbD5EIZcRFQqPS8EKUwGBvDXsHz+L24W/j3sGvQParuK3/WYxmX8Y9A1/GXbu+hee698OXNQRj44gWl36sxBNPA+SGBnHzow/j1o9+EMlUuvXUwiURm0sfRSGVvUUFbpXKV9HhyxVcFioyKh0mCjsdpD5cwpZHaujsoAWJq5wMc424oYUmDr5sNsTW2x3s+2QDN/8vEoZ3WdBJPuK8+UbEHfqi6RzRIa/lUok4oyOoi/Grn4tGLEpOhAottExCLAchKuIOfTdCc21oUPnWpOlFN3FOJYAnzrPRvCWZPldCWHENxc6tWDD6MFWUMDbtY2oxjkjWcdrrx9iSjPGLMibyncjHe9CkUhTLKwiLBdQadZRKpTcMDcdBpGlQqNys1+sol8pvnKZYgi9qTOE5GgJfQmHBQNJTodEIcUEhrDVWm+veUEcK38sxCTf9YoBbf7mJAz/nYGBPAJ0vBDDXmBv7SQFCnCM34yEyAyHS203UlFugp3ZC1qkepejikCiKk2Nwjx5DePoMzKVlWHWSgCth9OEGTHE/Gh3I+YqEMzOUyHIkNEpdXp0EIG6QHfFgbPdQ0UIE4h43LYI/7NI4H0XLR1hXWgL0DSp9qWycy4ziua674UtN5AtxXCjtxUhniKlaJ2xnAVMr3XipeAdCOYP7x74JmSQpk2X9pSVUT55E4+zZ14f6mTOonz79hnFvHM6QhI4imykgEQvhNEmYZ0xER3QydASJxK6QxEWLIZ6hQTUMeK5LonShag0cGPkmhnY4yOaovBbPoF462DLMu4K4KMAdDa9D/nHCJF5Z/DSkzochqQl4hRVUJ8aw+OKzwHefQszxoSomPJKgn/Xw8P9RRKonbF3BnFgCnjwjYWRrhDOPW1CfsClxkRQ+WkPfPgdnnjFgfCOOUPRv+Wgdwzc7OPmyhMSXMiiR/HzbRx8J7FxyCP/15n8GIxNCdwuUCGv4zI4n8I2Z++A1I8w0k7hAaS3jVfEHj/8eZJOkrAXQnCYiWo4kbvAV/yd5tvoatilZBhJCEq5k0HvRTR6lybBK72mzu34jwr4HQwz0UpqkUvO1Fy3M/ZWNIE8yCxoIVRnNnXthPvQAMtu3o6mpreQZs2q4Tf1dpMUjXCKZ8b8i5hrDHQ2vI45s2hPicSNRVhYLBUy8eBjn/uI/YOlf/Euk/+bLSPmghGJRaSlBTocY/vUmbEomrfut6GAWPZpbdPCnLCBtyohTahKtZ4jHG0Xflek4kFAlxKEgRbEwbUvIWDoS9HOuQ0KqQ0a13MDg1HMw3DLGghFUlF7sT04hEX8Sjwx/DQUzjvPKAaiUHlONOdhU3sqdEeK3a+g4lEIy3oGu9yXRcUcKma4sslszyH04ga77k0jFOpDZlkbnPSlk96eRQCfS6IIKEa1Wt8Ek2e69tQZ3j9vqbi+KRIfEOuJnTkH5wz/E+L/+fZz//OdRnJ6mv4QkXG014bb2H8NcB7DQhJBoL1SKwJnn6hj762+g8LnPIfzjP4H98nHE0x2QkhlI9SoqZh32ozUc/N8KuOlQc7XHo7VzaO8E0RO5S6Wqs88j2QHJ6mQrnXkkxJqrUMISE61OK8g1i3hk7iUYlg25l8S5w0XsoRpSny2g86MldH2ihNRvUhn5sTqSByLE7qXXX6uh89NldP0SpcoH6q27/APx9PsGxD8Gi+T78Geq2PW/1iDtr9B+WUGjVkaYSCHt+ug9/DySf/onKPzbf4fj39YxOaG0elhv3aPCYmOuMTe20EhmM7MaXvqajef/LIXZv4lDO1GFtlCCUSVhNelIpVKuIKkIHvkAsr/wHgw+0I3ebT5sQzxrcHWQSFx6NkDsFheSnMRDp7+JbTPPo+xJmAhHsLyUw5mFvSi7OXTX5nHo4g+xb/rF1vOesYzoQ1OCN6mj+ZwJZ4VeL+povGSheUKFWwK8BQ3+itJ6NMuhZXoFFVFTajnyjUqjfxC0UamOAFtubWLgF3dA/uQ/Qemm26gcDyBVS9BqNRi1JvS5Korf1HHu/03i5f+ewOmXddQatACWGnMNuWEvCoj2z1ZKBsaeMDH9pInKSR3SigbdpwPd9+AmE/CGh4B9e4A9+2C8536kt6royc2iIzb3xmRGyyo1JEzlJXRQCbgiWsw4r1G5Rp/tdtHRH2BlWoV8ymiVtfJ2D+lBH8uzCrTXjNYjT/ouD1madvGiiZ7FAixKhCKaebKNRT+BC6WdsAoODky/hFsuPoNsfQH1PRGSmgx1nsR1RkNAr8ZBD35FQvNFHT6tg1+XEJQV6Gl6pXX286sPonsnxcrR997ioGuLT+UqqW2D3UwrQjN9K4q9H4U9NASjMw0/ZpDYaNMdl/ZTiLBK8lzUUJunlFaUEdC2dW8Vd+iuLYRh3kVu6NY2IknCclFF8QUDuKBR4pIgZSX4fVRebhsFbj0E6bEPwfjVTyP18Y9BJblJBk17qVhzFTBp0R0DIcp31eHGddw0fxI/d/arODj2IhbPdUOfnMcdYz/AvZNPoq85jsawgeQ+SolyBG+RVqlMm0VSUhM+1B4XsrgYUJMQ5ukzOYBKy5fLJLEK2VOkKG31ey+J2D4SlyTJsDs7MPq+e5H7p5+B8alPInjPvXC3bkU42I2wL4JM4tOWFFRfMjBBQ6uEZ5hrxI0pNDpgpShCOlaDqXr0nkaIA3O7ivpjh5D43L/C9t//fez5yEfQPzSyNtPPGFoFcYI9N0JpzqRBNpANqvjg4vfwr175Y/zzF/8c988+jRiZqzRiwHykieRJE7F7G0j8RhHm++otUYWB6FtUhkwh0bjVQfo3yzA+WEb+CySzkErl/Q0YI6LlDbET1r77SoQRzeZDV1QM3Xw7BqgEtX73t9D87K8iui2EZwXwA1r3ZAhj8CqcUGSYd8CNKTRCnA/v6gRqZojxpo9mTxP3/HYZw3uzSKaSkKkmDTzvR89yvosMU8xRMlS6HnKw/CEXkzfHcdFMYS6tIPaoiz2/0kAuTRYpSNCqaks2aopK5ViEEpWZ1RcpevcC6i4fQS2C4Yh+OdcW/g4Q/X2KPjplinvJXBr3fbSO0X9aQ2N/E7VEgEyvqEfXJmaYa8ANKzSBuH8Mw0Hr9gu7IWF+PqISToIs7sAXUHK7Fh3rkn4QoxI4Nxxi6G4Hibua6LJUdCzrsAoKojkdzjfjCBdk1J8xUX/eWg2ZtzWg1JTWPWRadwCFBNd8MYbS3yQQVmU44zoaJyy4kyqiiqi7177w7bK+L6hcFy3mGlTWFk/TshZUpBIh4v3Nn3yZDHMVuaGFJtLEzrtcjNzhIaCDv1r60TF7raGqETaVwYmOAEbOR0yRYIZSq+nuVicskdxqKlsy6WeScBTK8E0Vcz19mNvai6piI2ookE0JknjoQfymaX4qIGlWEvVVCp6NaQl6j4+eOx309Io7dmkkS425RtzYQqPjb8duD6P3NRE76CKZboWP6wYh12hDCSelKUGmQigkOetWF9pBB8ZeB9qQ10pjtcDG93Lb8b0t2zCrpmhbQmijbqs/AP0ATbfFg94fQOug5azdT/vTIpwlnmO1+4G+9zoYpCSZSYiRrY8Z5ppwYwttLUl073Kx930NDG2hMvQ6vkoniRP5lM6E6PQtDsw76iQ5j+TkQ035cLPAM24ah70MSiRnPd2kTaTSM+nDvL8ObcSFashQNCpqKf29rYsCl0HsOtFg5fAHfOx9wEdfN5nsyi0NMczPnBtbaAI6DjNUkvWKTsav870RjFFZOQ94SxGKn0+i/GcZNH4QR/2ZGOpHTXR6Ffx+8+/wJ8HncXN+FpWTCdSfiqP8j3FU/iKN6jfiKB5XUJ4MEJZ/inNol2C4v45M3GWZMdcFLDRCBJXrqNK8LHIugtpNyas/gn37aoON4jyascODsZXi0qKCnhkd2ssmZEeCtZvKTSpLV1ujlWBQ+Rnf48AeCFfT3lXYaJmsuBn2HXNjwEK7ApIsQ75Es9XXCikpbpyVoNsK9EEqNZUIep8PpdtttdcWztP4JimmrMCrSa1OlJV0BIukJlrZkGMhzR9CMUlCb3ezxBXNtfbQxKvYJ2/gKqQ8hrlasNA2EEUhPKeK0spF5BfGaZhAcfkinNoinOo83EYBQUCJ5xKRRDwDqctXP62Ic+wOfWUQRYhEp+gFpfUoU1CSoVDSkru8Vsuy3pQKf0qG1hVAH/ERrkhonqVxLiW1bTQdpbswoJJ1mcZRkotWAx50nQQnHrLfKCbaCPGYlNuso1GeRX5psrUvVhYnUC3NoV6eo/0yBY8mYp8x1xMstA1EoY9K+TyWpr6L+YmvY27861gY/wYahWfRyD+FavEEmk7hkkJTSWa2aCvoKhstjHQ0/B7UIwXuggRnTELjomjfTIF5p9tqNNI5acA7qSNcpLJyhErKgw3IeQneyxqa4wrCOQPabkp0sQjuJI07RdNSSeqQJFOpELZoEu9NQnOogq1XZ1CcfwKz579K++MbmLvwNZTmnkCj+EMUFp5CpRm2xMcw1wsstDXElUMvaGKp/DSU6AuIq3/9Y0PdeZoO4vlLphLRZHWs1aDaG93wTlGUTsQ7P4UVPQnHDhBWyTdNIPtoGfE763B+YKH2P2IkNFqDhNgOspGQDK1EeIHk9bc2lv+rBvX+ChL3VqAiQDBNCS0RYV71ke0kqcVXv+t1aBF1SnCN5ino0Y/vhy77Cxju+iHyVQlueJUNzjDvABaagPZCvgY8f55KMPF89WVu3ZCUEMsVCRdmVZpobaSA5JGwI2yhEnBmidLNJTpP+WlwSSpNN4Zs3yEkf/4BqF0xKhXJZrS+EqVBryaes1zVZ0TfGS7KaJw0UfkeCW567elzKkfDkgS9qdJscusBdpnWVaEEZr/Hg9JF8wsnrVuYli36PDhPy5qnsta4zEPsIplNF0PMLgM10TECe425DmChrSFunBfHZV830N0FdGV/fOjrIXFRmhHl2BsOYJKBRo5LkCwiEmOrQcZ3iKQFqHpxSow70NE9iL4HHoDcnYNLwmz+UMfyf0khLGuIP+wg+U/qMG53W+fSwpqEoEq/1iTJ+Q4H8U9WkPxEDQ7JKf+VOKrPmPDqtA1qgFsebCApngldl9kaLsnRpm3p6o6Q67j0vujqiNDTF8CjaCs6T2ehMdcDLDRCPH9erGiYWs6iVO+nUmoA5XqilVRcGooVYKXajWJ9ACuNfiw3OuDRQS+qu3XEEwamDmwnGfr1SLQL+dOji+avNfjBCMliF8LKBfquMho7RlHPdqM54aH2vAnnhAGtP4B1exP2neJGWxdan9/qlCV+hwf7Lg/GzU2YB1w4R/XWc5/OWQ2hHiF+j4tte2gacYPt+nkwsT30tlzXUWp2oEjbmq/RvnD6KIUprX1Rb1goVLtWx7v9mK900D4zELDUmOuAG7vXJzoAq3UJp+ZyODyxCxeWdyNUdtIBPIKpQhLjS3GML3djbKkbTngQFWcbCW2YhJYjySnIWCXolHTWu7sUpWpnApiZkFGfUREaEdQd3ls38EjpTt3mIznkYWWZJjhnI0xuRXzPzcgMdKMy/hLc0hyCbAckw4RcrkAqVxFRQpNbJ/RpBWgQt2iY21woHT4UlVbGl+FXyVdLKprfteCVZXh2CGsvyewXmugdCFrd8rWg16av4cxsH16e2YLJyl4UmjtQaIxgqTqIk3MaLuY7qQzdQuN2oeZuR4k+W6x10/sEZCrHc0nRKOXa8hjmXYZ7faJj/uR5HX/54mN4eukjeN9eBbmUQmKS8cq0j1dmPVSpjOs2JDy6x0DaBGpOhHNzIZ49U8J/fOzf4NYtK0hatKz1vUg+Esnuqa+bODuuInfIw9ZbHJx/0YD6xURLXsoHaxi5q4lTL+mwPp+AawDGQw303dvA2TM2vKe2IH3nL9A0Q0iVj+KZL72E/uFO6KMDcPQBNI4vovH//ReYotVGKvmkOEUs2hbRBlrm05VW71D1JywE83rrnFlwUUEg0zifpj3kYPixBu6lEhUbz/XRes+Usvijr34Mx7ybcWA4g9GsDIfmmS9F+MYFSoVehO1ZA4d6FQymV2PdRF7Ba9Nl3Dv4OP7Ph/5mtXZnmGuA6PXphk9oHoZhpQ5BMfvw0rklPD3m4ORihJGsig/vN/HgTgM7OhR8/7yLp89WsEghZKjLwgf2hzjQ8Tg6YvXW+bPXIbGJZokGtwZI9IWYLkhoKgEaKyq0M5dIaGNqS3IRpSWp08BC4xFsf/g3kdtzAAnDgVydwtSpWSTTNpRMErH+bYjtvg3e/v2oLhWgzE0jWC4gaIRQmgaaP7TgHLYQLdIXVSVEcyQzEuxsjBLZxwIc+oiL3dspxb35zxjtiyCyUfb3Y8vAME4tKnjiTA3nFxx0pOL42CEDj+w2MBAHxhYa+NqxAl6erKMnqeCu0RD3j05gJPEqJzTmmsEJjVLNfGE7npz+EI6V7kLOqlEZ1YBpxhGEGhqeCp8MZEoeLDOE69VhqBo0PUnzVfHLo7+HrV1LsCko/diBTD6pORLyZYmSUYjjxw0sfTuHqhPAuG0F2+9yMfGqDvnECJAcgXXzMLr2DKPh5nCsWoZLyasDAbqcEuTiEgxLR1lJoGCmUNZIjE0PB2n9dNFD+swkvItTUKaX4U4twGlE8GI2mnH6rq4y9tzhYXCnh+xQhHgmpGRH6eoS67tS68IXnvsUls19lOhIhpEDVVWRSXVgOk8VLM2W0GmZaNC2VVqzxWl9VkoV7M0+gV+55e9bV1UZ5logEhoLjYT2jxOP4Ympu+A6DahyhWQWg22asAwFYeCjWC4hlC0okoNI9KqrxpFSPPyz3f8C23KXEdrauamQxjcdYJoST2kyjkIljlo8BbW7B+XKEKxwBFqiF1pXF2LZTshUGh65eBavLU5joV6E2nAwVGkiYdooxCzkNbnVH8KAkcD79xyCruvwikX4S8sIFvMoTI5TqpuEZU3ASi8i1VvHwJYAPR0hyYlWSKznpX7jJLR8owtffPlX8f3F7ahFCnSZkhyJLdRTyIpmvWmjiiTkukvSl+pwJB2GYsIIPTww/CR+9dBfs9CYawaXnCQdcUVvqdqJgmjRtXYCSWsKsj+HtF5DSnegBHno3gTVYxdhqZMktWlIwRJ6TB83d/0QGSrlWj2HXwbhNU0DOjIR+kcc9AwpSGcyMI1udPX0onPQRpzKW51EJe73EI9fxaCRCCPU6WdHyKeokqBSkFIJWLEYOvQYCc2mcleHrTaQjDWQ6WoiM1RHasRF364Ctuy6iB17V7Bla0ifR8JXlxbZBtzQxEx5Kxaq4hLtDGxtEiam4Luz6Lc8kngJrjsB3z+HjD4NWVkkmU2j02xid9c8dnaeesvvYJifFVxykm3mqJSap4NYUZPY0XUERoxGB8D44ha8NjuKhZqKA7kF7B04gxiJQ6StmeU0jk3fhLtGnkdnmoS2nnzeDsJw6wN9T54qt4VyL0ruDjSVUTSiLFSrq9U7uiyrcNwIy0UHyQRJTRcXLGhG0b2dW0OzOIaUVkCntUCCmYCtX1y9618sWyDW6SdYr5oXx7HJQ1BRxZbcBG1bvlVmFvIaDk/cjoZvoTd5Adtz46vNLRHTi8DZhZ1IxGTctoWEJm7fYJhrAJecxOodD8IAEqUYOnrFxbu1cetdCYuPZdF07NqeWv9MTP9OOx9ZvZdNNI29ug5rX976LtGbElWcrYfTxWhx177oSU9fuwgRyatrKOYWM7Re38lvkxYWrrWmIXrFEoNArE64mvFa37H6Wevt6qqKHUTv5bXpGeZawEJbR1hBsHFPrI/byPrnl5r+Z4BYvDgHJwaBuN9NDJdatavGxoVv3L7LjResf/bm8QzzLiKEtvpn90ZHHIhvPhjXx20c1nnz+58RwhMK/YbEOToxiJ9/pjITXGp7BZcbL7jceIZ5l2GhXe9sFAlLg2GuCAuNYZi2gYXGMEzbwEJjGKZtYKExDNM2sNAYhmkbWGgMw7QNLDSGYdoGFhrDMG2DFL3Ijz4xDLP5yTyShjT/73MsNIZhNj27/kiGdPSOLSw0hmE2PQ+cq0M6bG9noTEMs+n5gFmB9FwHC41hmM3Po1GFr3IyDNM+sNAYhmkbWGgMw7QNLDSGYdoGFhrDMG0DC41hmLaBhcYwTNvAQmMYpm1goTEM0zaw0BiGaRtYaAzDtA0sNIZh2gYWGsMwbQMLjWGYtoGFxjBM28BCYximbWChMQzTNrDQGIZpG1hoDMO0DSw0hmHaBhYawzBtAwuNYZi2gYXGMEzbwEJjGKZtYKExDNM2sNAYhmkbWGgMw7QNLDSGYdoGFhrDMG0DC41hmLaBhcYwTNvAQmMYpm1goTEM0zaw0BiGaRtYaAzDtA0sNIZh2gYWGsMwbQMLjWGYtoGFxjDMpidce2WhMQyz6alGUeuVhcYwzKZnTlrNaCw0hmE2PRciFhrDMG3CKwharyw0hmE2NeUowg/htX5moTEMs6n5prQqM4Es7MYwDLMZEf76u8hdewf8/114Nn9IEkRbAAAAAElFTkSuQmCC;" vertex="1" parent="1">
          <mxGeometry x="1293.63" y="1760" width="71.97" height="50" as="geometry" />
        </mxCell>
        <mxCell id="9gKRPX79BNtoWNbofs5v-193" value="" style="shape=image;verticalLabelPosition=bottom;labelBackgroundColor=default;verticalAlign=top;aspect=fixed;imageAspect=0;image=data:image/png,iVBORw0KGgoAAAANSUhEUgAAAKwAAACECAIAAACCrFfUAAAAAXNSR0IArs4c6QAAAARnQU1BAACxjwv8YQUAAAAJcEhZcwAAEnQAABJ0Ad5mH3gAAAASdEVYdFNvZnR3YXJlAEdyZWVuc2hvdF5VCAUAABSISURBVHhe7Z15mBxlncfTMz09M909XX3fV3VVoQESIwEEshBBEJUnIQFcwi6yiLsIIYvgAayQdRFRQDkEVzmFcBMwAkIAQYi42ccQjiBIDoiENel+6+iuu+bf/b3Vc2RqeiZzp7q7nufzzDPdXV1dVe+3fsd7/GpeJUM7tDmOCBwcEYxDetQ7LYojgjGI0ZUgU4m3hRQcETSCoNGCEruigE4i8ctW10G7iiBB47vc8mYdsAF5mr8oVftlBJ1CVlI0xrJNa9GWIsjRaD6F5pcqERqT3O9eh/aO0NyqrLyxT3nZWylRWC6OJWhBChR3Xp5fk0EpshKmsEkAHUDzw98IjY4glY2+/v55ytO+cifT8mYAaEcRlL0Mf25W2UToOz3iujj75SK4gHI3U/ExlV5aeTFgVDv7jXnKbx0RtDBxGpVK1cvihtSp7/WoW3rlxwnheyluVV66L2yUu/oNF3wkP0Y4Imhpggx7fF5+nujXXGD5Dd6tvu1VXunTK56Bd9gu6d6wI4KWBowBTfHnZ8ES1Fvdgo480gNhHDaG6ErUDBcse2gh5kQEEF3bMMCGGDBfkjaEDOS2KAAwam7llQB3ZhbNL6IChe0BxI+QKVh20hLMiQjsefnq7cpQ6pYeiwIGMOYZcof6nr96YxItJsvzmHIX05Lp4uyLAAzvUSX0mZLtdACmnqDZFUXtL93W5h8CdCB16P/Xpb3VI60n+Msz+EQKo3bV5MyyCNJ02cfwF2T5NVl0tJ10ADYgRaOlBeWFPoPttLa9BblT39Mrvxqs3pRGXyIrpOkdLDtsZmZfBG6mdlNUejLMn5+rBOwRHEATJmh2aV66P9ivNogKAUNwax/0Qr4gPUCIPwtX/yPB/1uGPb2AjilV8uYeLPtsZmZZBHCxorT8aEDb1Vu7MY4zLjuE2RASLi7WbgqDtR9ocqnDqLohAhgSgbrNW7s1yZ5RgKChHMBdSZheBo8stFxYMJsiAAXEaHZZUdnk61c65fUE7pU76PcQNCFB134QNfgus+07DNShvuVX/ofQdnqHRCA9QaDjSKxaCB1a674fzWyKIA43EF29LqVt74F7Tt3sRV8gcRscxGuKFcBU1ybll0LS8+HqzxLcOVm0oIByJFpACpcmh0XwawLHgOHWVwAwmyKI0WUPLT9LGDxOxLWd3cIP0viygkW1bDmXQLayuMiekEefK6JDS6hkDiDBUYVodHRBeY0watgpiLeEcPO3gQKAWRMB3HNpGq6y9k5vv17viHXLzwXxqB0YWMvGc0yILgcYAPwCTljgUOFNkGaW4s7O6h96+g2XeH2o4mdGfKt1mTURwA1HUvzFOX1PV93A9msufWcPOpQcMX5vK8AkeGmIXQzkrv0wVO5xRDBNgjRiSOmpqMENZ+EG6uQuyCHanKlh2d4OgDqDDHdWQXnVX1sbdkQwbUAEiwr6J95+dTjvAncrPhyDEAzbYcv2NiFFl3109coU/7WsI4LpAbdUkeLPyfQrHUO5OEZ1adt97JK8fUUAxHAogxgzYLR8NBZg2Jp5mHF2RABm4EiydltsuPnrGPMM0c2fm67kKFtfNWj+yTgsdBiFs4yDm/VMg1kRQdnPcF/JKZsJqwhMaj+NgUTwOP2oLzYlYZo/P8OdkcPR7ljGA1JNEL1dE85ZEAFciyAtXJAykMfS/HXkTQR3eq7sbQmPaw6OSPcGpYdC7Cl5nP1CY8MVGPwUvwRl5CkIhyFdGv7ITsyCCCA5nE9Vr49a2n4Io9ItXJRsJRHUbonq+7qVl31oYalCMMOuBBTgZ8odDPo8yV2YZ1cW8SQl++lg5kVQ7mW4FXn5uca+AKO5ajdGKpOKvGyLKYLq2qS23QvJsPKSHx1udoSAs/Mx4CnY04vS/RF1q7f2o7A9FQDMggg8TPU7SW1nr7Xt90N+hmCXF8pwmUZ9vckwRcCvyShb/Djs5Tulxwj2yAJaUIIkU7w9orzq1/d6lM19/NdTePzM8nV7MNMiMF2geHvIEMebqaG9761ekWqF2Vpw/D0M9095+ZUAPjXQgdwp/SIo3hpWXu0zWNxbakidtZ/ETE8x6uv2YEZFANEvQaPjSfm35hUZG4PvEn8Zxhel2UdoQAR+hj25KK0f0/2p2/zcsmwlYF+zN6MiSNBlFyN8L6O+MzwwPxbKc350RAm7ySbVATS/mfiVfXgJs3hn0HKCA+iu6nVJbAYi7SQCaV0YL+GwXItRqNu8/OVZCCCaNTwM0eVOpgy+4Ny8tCGk/73RKSsd2kc+dGQB9yPZ2PENiiCCo/rpUwnQkCntP14wFvo+j/RQpNxlztwatZ9JgS3tXCopzIALQIeW+NUZ+WFC3eLVK10NV7AYcoe204/mF/HkSoiWLPuxDQMiQMcW+W+kq5cmhTVJ4ZKp8u/J2tVx/cPBseNxwRfoL73CJSlhdcq6n4mzJlm9LMGvyuJZQHPQawt3c4RGS4vC6oR0Z1Dd4uuX8NJVy6kNo7kM5BFviKBFhUrQvjoYEAF7akG8I6ZuC2gfebW/9U6RPb1GpXsiZmAAsJa7vNruUfuZOB/1Kn8iqmtT6BgShxcjz23mgSAgyLArC+LdIXWzV30XDqBbL3twKmROnGmIwXlq10XRwqJte8oH3UGQRoeR0iMRfbenXx7zfGyE4TKqHdr7Hv6KNKLmNvuK0xDosSuKENPUbk5Kj0fUPwb0Xd1wPPsfHpYF/DVf6qhbvCmKMiV7GoNBEYChA7capPjVWfWd8fp5bIJRdSvPEXhqgt9cSzTHYRe0JRgeUF4vXfHRlT6KW5mXnh9OEAzJDQbAqA16RsOMge6O2GXS/UgGRQCArcNBLMWenBPvCU0kwj9YqO/6qv+VwAYWLigc89wnmaA5+OmEKQWgj2GXkuL9kaEjlB4kuBVZdkmOOy1TvSop3hWTng3Lz4ar309XYrYbdN5PBACcG/itBM0uKVSviSt/7msY9B40jHmG1iH9huAvSqOF5mC0Te6qKI2OKFVvGJg/oe3uEVYnsX0yjxB8BzqWZE8pcMtz8BdbXJvNrhspgjpwZfEMQTMFejagl93jBcBzBc4mdvRIdxHssjyek2KrIAuuWJESLh5YtiD+OsweXxgOU+BTAq/JxPjtWPWikQjqgJUL0OhEUnqI0Hd59l+iNfcYfKf6hrd2QxwP1AI27F8K0NxpaTMndHMrM7ilbXa7j8PYIgDgTPoYiGWEb6W0D3wHzR7o8+TfE9yqHB5wshyhfQARfCWtoy5pQxSPJtt1rKgh44oAMMMflKO4ZTnp8bC1eWYbyAOFrtp1MfS5QiVh14nqdQI0e1JO2RxglxYr+SZbu34gEdSBaDZLgZ+rro1pO3on0R00DQzerbweEL6WQovMsqI2i6itQGy4kOTXZHC8Msf56rSZmAgAaIMQnjcmXJpUNkK0OKG+4Smj7eyWHgjx/5zFqwQhOrH/jQVHmKfQ4aYNaFkRAHBucVwJkjsrJz0S0j6clY4EQ+rU3u6u3RRFS0g8D7GJ7CocanOOiE5GBINAnoMOL1WvSxiVzn7FNWMBo46XKKlv+7lzsAFokZmozcBURIAlb0aL7NI8hEK4CKylOaeEvq9LXBdDhxcrcTMGbCIb0ORMSQQAtJC5pl+4Kq19MEYJuEmibunBYwHQ/ECzudWmZqoiACBe89PV61ParrFLwE0GbWsPOs5MBGzSGdw2TE8EQUp+mTCEBhVBp4D+saf6kzRKU3jPlt9ymE2mKgIzU0AUqf9tZhQAgJjk1wiUNSsFWX7OYTaZqgiiNDqEEq7IGGhmokKMMc9gOxBVdEQwx0xVBEEafYaUno7UyzzNFIboEtak0aeaeJl3MzJVERA0uySnf9I9wxMOVJf0RAQdXcRDhZZfbArAS4ab7xEJUxIBpHB5iv+XlLUJp4/u0nZ4uS9mcWkxy4/aH0hq4jR7QhEPHzRV1+GUREAwaAkp3jXm4nMLBnLrFbchTdRxCOcnm7KzCEKZCFW7K46WFJvr+KciAnP4IKu+cYAFhwOAhX8mKD4eVd/1T9B31H6FBw7wA0pH/bStidAoU9L+6sPPRziyVAk1zfFPUQTV1bEDh4S6y2A91WsT6KgiXB325Lz4WMQQD2wPlM0B/pxsk40dmL4ALSrq+9zKJoJblsMzySzb2JXJiyDMoIUl8bbhEuEN0VGX/ALBr0ijw83J9iEImih0bLF6dVzbdoAZCXrZU7083mQV5GI0JDX8pWlD6IBzF/410UQinrwIwBecnZdfGrsQSf887YMe8d4wd2a23Mdgq1jvBgY3SeBCX8I3k/IGQt839ki07hJvD6FD7F3hzIJZsA28Xn0ypnhLGC2Yk5VxM8GkRVDuYqprE9qHjRaomCUa1Dd6aj+O4TrxDe1h3KxtdlpeeiCs7egey5zILwZAanj9HiRdlj0cdCDig9aNjADue3ZpTn3PV497lNf7+AuyuGLN/pvVNUHi5/SO2OHBZpIiSEMT0tJ9hDE6xIMIgHNrb/pxMbcYjW2A5bv7EwDjWRLWpvRPzEdNjJKCtqO3em0Sr9exW4wNosxCc1KV4CAhClftDlP8qmS/PnD8+r5u8ZYIipcwCXKAHIkWkuizJfwIZstuDyqTEQGcP3i+U4vKy/6h1hpC/6RbvDeGl9vFTTM+fuPBruDOCFPoaNhbgyEoUIb0iP0eUGpeAXZ5sXpDSlwXFx+Iiw/GpfVR6emIvDGkbt3vssAtgfADdLQPPfrHbn2PyUce9c997BcLeCaqnTzdZESQoCFYE/4zpb1v9QXKH/3Ct1J4qnXUjJMnYsNhM3Nj9qhC7caY9t7I4ibGPOU1H/oHc2R5InubM+B4shR/UVZ+Iaj/3aPv9ejlLogEDbbLqI0cRjFc/VoHqKH+Uv+4Gzwge0JuoJqhnU5qMiIAd97JyE8GDTQ4y1R3QSQv3UPwqzJoPtjGSZ4bbAxSgJBqMSlclpQ3Bgy4avU9g0f4a49wZQb3wNit9y1kTiw+Lw1uUUeeoWYeB1zC7scxdqm5LMl+U2YmLAI47hSNCpT2hrce+xjVDvVtr/hzs6sfmmo6kwBAPUUKz19dR+i7uw0FS8GodMlPhiuELacXwAGHaXRMUbwtom7xGfwYQ6nmg7eVTV7h22bZosCo/diDCYsggR9iwV2QxwUM4NzYTuV1H//tLO4AmJEaHBA5Qzbhp2s/j6nv9uK1/loH+B2UhyBj1MZ2APxCCJICmv9mVtnkH1GcYBC8fnKXj12exzq28ZqkCYsAbCBZEh+NQ7xjSG7pkRBOAj0zutreNDblXpo7L6e81gcXUd/r5s7N44dkzOCvzCxwwN24jqFSr2NoEQFyiw/HUbGEbxXLF+3EhEUAnntBQd/bpW7rEy5JokOLONmF23fG3Rvc92mKPTEv3hrBidaDMRxv2vYimhVNhatS6vuNqvapLm1PNzrULFhk+aKdmJgIwPQVKMhtpGcI/rwMOmSW6w/CztM0hBrChUksgsNsvL7TFIF0Z7D+xDcAYltcxWhoGr7u4s/PDDxzzfJd2zBhEZQodGyJPbOALfMc9IbCL0awGrhVkFOZmrNsYAfqwTJNKb8zewg0F2SM0oNE7UcxaT2h7R6YhC3eH4UQ0s7TZCbsDqBVcHQzt7034HF7zCfTWt63CXA/gEzPy6tbvIbYoX3QI90XRoeVyn00e1KhdkcUP49dwQ/f55a3T1nbdiMKGqVrNye1nT3qOz7hyjTu4gQDBtrtY+BT9sy8tt1n1DqFCxP2lbIjgmkBptFHK38gpPUR7uxcJWWunqtHymAvcUZDIZIUfxEDobCnFWw7zcQRwTSA9s5RwnfT7KkFVBg1Qxo+BU2E8bRs9PkiHjeCl/tvYBscEUyDLF0hKdy60N7jhK6Q2oBVyI963zY4IhiDAXs+AeD+nstgeRZwRNAIs1FRtqmmNk0DRwQNKPsY7oxc9eokrpfW5Hf5RGhLEYxjwNNYAezpeenRsHR/yI5Tm2aB9hNBkkafxo+qxP24AWbEqjEw/gEaLSqJ94S17V5pXdARQYuSwDOeueU5/tw0e2IB/sdqCA30UlfiVPX6uLa9W0ce8S6zKLkjgtYkRle/H1Pf88p/CArXpNjj8ogkK0kKFSnu7Ky+G8+b0vd5xP+OOiJoXYIMOqZUuyOKZznr+Pl8yquE8J0Md07WQAPrrPU9PbWb444IWhdo1xgNHkF9sw/PENRdhtCp7/ZoOzxDqyW1j3prNyQcEbQ0MRpRJeHrKTzw32gBjL63W3o4ghbjB+vgx/lC0NC6fQbtKgIgQqNCSXqKaFhxxxA71Xe94q/CwsUJblkOfZbEX6lLoT5E1EK0sQggKUjS7Mqi9t7YJfgMUINb+d9A7cYYtzKDFhfQp0t4yKC1dNDGIoB7OkWjJaT21oHqMELcoLgM1KX8ieC+kUdMq3Unt7c7KJHqVt8BSyZoO3zShjAkk+iUInLcQesQotGRRenuMH6uZcPAsOyRXyGqP4zzZ6W4k3OwMfpUCQ8H48nQo/bW5LSlCEABi8jatXFcI6GuALXDqLoNfvghDuqbPuEas5geZAcBBhfSat0Eof1EYC6lEr6bVLf69XKXtr1Hed0rPxWQ7gvJTxJDVkH+fYD9xwJeXeP0E7QaYMkJBlpXWk+oW3ulJyLC2jT6Ai6tXu5g2CNyRtld7y+SXwywZxXwCFPLGf/RtJ8IojT6chEdReKlrn10xWsOHYGdJ+BTClyAvhcvI5F/R7DLio4IWhRICykKr6GLDlIP+OFvHPKFkryRMDi3vIFAXypifTgiaE3AzTds2gS2B9xXc+pmr/QEgZaSeAKxI4L2AtobMkCCrv00XLslio4zy485Img70nS5l2FPK7CrCrgqKWjCskEr4oigEUGmErHv0sEZxxFBIyBoaIPugSEcETg4InBwROAAOCJwcETg4IjAAXBE4OCIwMERgQPgiMDBEYGDIwIHwBGBgyMCB0cEDoAjAgdHBA6OCBwARwQOjggcHBE4AI4IHBwRODgicAAcETg4InDI0P8PND9/TFM6aa4AAAAASUVORK5CYII=;" vertex="1" parent="1">
          <mxGeometry x="1420" y="1760" width="65.15" height="50" as="geometry" />
        </mxCell>
        <mxCell id="9gKRPX79BNtoWNbofs5v-194" value="" style="outlineConnect=0;dashed=0;verticalLabelPosition=bottom;verticalAlign=top;align=center;html=1;shape=mxgraph.aws3.queue;fillColor=#D9A741;gradientColor=none;" vertex="1" parent="1">
          <mxGeometry x="1163.25" y="1520" width="306.75" height="48" as="geometry" />
        </mxCell>
        <mxCell id="9gKRPX79BNtoWNbofs5v-195" value="" style="sketch=0;pointerEvents=1;shadow=0;dashed=0;html=1;strokeColor=none;fillColor=#505050;labelPosition=center;verticalLabelPosition=bottom;verticalAlign=top;outlineConnect=0;align=center;shape=mxgraph.office.users.call_center_agent;" vertex="1" parent="1">
          <mxGeometry x="1293.6299999999999" y="1648" width="46" height="55" as="geometry" />
        </mxCell>
        <mxCell id="9gKRPX79BNtoWNbofs5v-196" value="" style="sketch=0;pointerEvents=1;shadow=0;dashed=0;html=1;strokeColor=none;fillColor=#505050;labelPosition=center;verticalLabelPosition=bottom;verticalAlign=top;outlineConnect=0;align=center;shape=mxgraph.office.users.call_center_agent;" vertex="1" parent="1">
          <mxGeometry x="1170" y="1648" width="46" height="55" as="geometry" />
        </mxCell>
        <mxCell id="9gKRPX79BNtoWNbofs5v-197" value="" style="sketch=0;pointerEvents=1;shadow=0;dashed=0;html=1;strokeColor=none;fillColor=#505050;labelPosition=center;verticalLabelPosition=bottom;verticalAlign=top;outlineConnect=0;align=center;shape=mxgraph.office.users.call_center_agent;" vertex="1" parent="1">
          <mxGeometry x="1420" y="1644" width="46" height="55" as="geometry" />
        </mxCell>
        <mxCell id="9gKRPX79BNtoWNbofs5v-198" value="&lt;b&gt;&lt;font style=&quot;font-size: 22px;&quot;&gt;CONTRACT QUEUE Y - ACTIVATION&lt;/font&gt;&lt;/b&gt;" style="text;html=1;align=center;verticalAlign=middle;resizable=0;points=[];autosize=1;strokeColor=none;fillColor=none;" vertex="1" parent="1">
          <mxGeometry x="1108.71" y="1411" width="400" height="40" as="geometry" />
        </mxCell>
        <mxCell id="9gKRPX79BNtoWNbofs5v-199" value="" style="shape=curlyBracket;whiteSpace=wrap;html=1;rounded=1;labelPosition=left;verticalLabelPosition=middle;align=right;verticalAlign=middle;rotation=90;" vertex="1" parent="1">
          <mxGeometry x="1305.71" y="1317.53" width="20" height="318.93" as="geometry" />
        </mxCell>
        <mxCell id="9gKRPX79BNtoWNbofs5v-200" value="" style="shape=image;verticalLabelPosition=bottom;labelBackgroundColor=default;verticalAlign=top;aspect=fixed;imageAspect=0;image=data:image/png,iVBORw0KGgoAAAANSUhEUgAAATUAAADLCAYAAAAP8ATZAAAAAXNSR0IArs4c6QAAAARnQU1BAACxjwv8YQUAAAAJcEhZcwAADsMAAA7DAcdvqGQAAD2FSURBVHhe7Z0HfFTXne9/0/uozKj3SgdRbTAGl+CKe01cY8f2vrdJdjebl7J5z5v95O17G2/eJ5tskrUTO7HjuOOCK7bBgI3pSCB6EUJCvWuk0fSZ9//fmQGBBUgwwvHw/9qH0dx77jnnHn3+P/3/956iMk7/TgRfQBVNfj+KM+2457b5+M4DS7Bm0248/Zd1WLnuIGDTRrOeD6iFWk8IF03Mx9NPPYoUmwE/efxFLFtRiwGtBlCPcAuJRk39EQkD3ggqC9Jx19KZ+PF3b8ZbH27Bb36/Cuu3N1Kf6GKZzwMqDZYOteHGgXaUe90IqYEw/9oE4QKHTIFgTQjTP6F4ou8h+sevgtOWhisWTYbBpMPEiiwUZdiAQX8sHxn5sWso0f/nzAnt4ER1BCKwp5tQPDkDxblpSLNZMWVWEUoqMkhkqJ3xfPFruIxzJRIr61gbuHyqi+rLT0/H3JllUKlUmD61FNn2FKi5HcGT+oMTlyMIwnkjKmpstK4A0DkE9AwCHW76mZLLA4tejbLiDOjIIyorzENeeT6QYqQ8nmiebi/QRanHRyLIRqyUeHaoqTlDJA5cXielXiqzl+poG0CJzYKLq4o5k5J1+pQiVOaSqLVTe9u5LdR2bksvCe4A3ctZw+4O1eHnsqjMLr5HSlwH33PfALJT9aiaXqTkLs5JR+GEbNhtJqCJ8nH9nOJ9Qh4mNFSeeFGCcF5QGSd9OzJ9YibmTslDSY6TnAsyQBKmQNBHthhBRUkubrh2HomamuxSjU07DmLd5v0Ikb1GS6CjqjBc7iHsPNiBTzfWYSjMhjwWK+a8lKis6xdWooo8QpNOSw4jhZbUGI+HwuBCB+bPK0dlUa5yRXufG1u2HUJ19T5FDA0GE10eFY/2bhfeXr0d7f0Bug9qy2iVlurnrCrSxJmTHLh4WiFyMtPJ8Yv2iT/gQTgYxMxppbhmyWzoNNEQfEN1HbbtqENfTz/0JrNyTI0wel0D2H2gHR9yuG7gMHksfXIGJPwUhBFRGad8N1KYacFVl1TiuiumU4hZqJwIhfyKDdqsJmSkp9ER8uZIMfoH3OhzucnQWXCidHT1YMO2g3j53e3YV9cBHz97GrMBU35VBJfNLMVNX5uChXPKYbFYlTP+YAAWsxHONCuMOn5uFUGAtKpvYBC9vf1KHq3OQKITJBE5ihWra/H+6v3o9wdJpGOCNpowkJscUUFFZRdTn1x/5SQsWTSVhL2ATyAY9FMxYaTarch0pMYvgGvQi/7BIXi9Xmi1BjpGzmVHFwn8AbzxUS1q97cCOhbcsfbJaYiJ2lJXC0rdLm42664gXPCojNP/LgJfENPLsnDdZVNw7ZLpmDyhCGajbpgunWwu0ROBUARHjrZj3Yb9eG/lTry3kbymcwq1wkg3mbB4ViluvXom5s4tRW5mmhL6nq7QCAlWr2sI1buO4J2VNSRotWjiUJG8y2M3MaZnW3SdN4jZk7Jx7eVTcc3lMzB1Uj70Wi3pEpfHZXGifDGxH96+A3VtWLtuL5Z/XItVNYeoHadu+1lD3uONBjdu1rhQGqZQVxAEhdjbTzJOTxCpei0umlOA733nNkwrz4TdZiSNihsxGzATUUTER65SfdsAXly2Bu+8vQ3767qA9KiXctaEqC4NuUnuIEocKXjk4YW48ep5yM9Oo/By+NvW420JhkIYGPDis00H8MtnVmFjzZGoV2QgsQlzvmgIG01jga4dDCDdbsAlC8rw429fh9K8DFgtJmhYuI/1SbTsMFXnI8+wh8Li3/5pJd5+YyvqmnuBDCOdHwe8Ydw9MxNfn52NSqctdlAQhONDOuhfFXleukAYJpMB/+fHS3HT1bPgSEuJnjwmJKR/Xh8O1rfgwf/5PBoO9ZLAhRHSklUnKrwi0dT4IrC6VFhy2wR899FrMXd6WezkibS09eC1N9bhqd+tRZPHh4CJREwTvaVzhmI6dVgFLSmWhWLSJ352G4WjM5Dl5HCcOd4nAxR+bqmtw49+vgyNBwcwGKbQV0ftGHMYPko6vXj0/kX41gOXYnJJduygIAgnjlPjn/jFYYcX//IvN+Gu2y5GUU567ETcgCMYIvHYf7AJt9/zO7R4hgAzeVH8kD6R8LsGiqomT07Dv/7gdixZOC12Ik602YcbOvGbZ1bg5be3o5ffWOpOH6qOCeXFASVPCGoKZ//jN1/H9VdVKSFxlOP37CJR++zzvbj3gf+CP9WEsJ6uGyc9U6D2PPrgYjz68BWYUs4vT7g/xrNCQfhqMEyJ2Agp6cjj0kfgSLcjxWo6fm4YehKO1FQ7tHYjqSIL2vgYk1qtRnGBQwmDo7DhRsUsjsmkR1FRFmkZiVnC7TreJ5ToPp0UEpuMHGJzJSdWZNTrqE8sMKQYoGJBS7DGnwp+FBD7KfYpCBc2XzA9jSqCnBI7igrSkGozKc+Jmtr68O6qWtTua0L/gAdarRZpqVaUTstVnjGNy1gCCoU1vhDmV5VSuBcNgdkb2rT9INZu2o2WDhdCVK+VhHfOrHKYeNhFkAybPatEKRsLRiQMHYlaZpEN+XlpylvYIW8AdUe78cZH1di5r5H6ZAh6ErVM8uBmXVwCM7+hDcbKEAThvHKip0Yhnz6swcKLSpHhsFKYGVDCu+UfbsNj//Q8nnz2E1TvqEd/PxkxeWtL5pQgx2qJDrpNOCRqmggmVxTDbjWjp38Qm6nun//2XfzkiVfx7ic7cJTElh2p8pI8pKSYSGz5uvjbyERA9xUMw6LV4KKZechIs8PvCypvN196exPu/cEzePLPH6Nm52FF2FLIc73la1VIVempT7gdgiCcbzTarIt+qmgb60AgBIsngvvvmYeZU0tRs6sB//Hb9/HMbz/CANnoni0N2L23ASFtCPOqyukaPzavP4SjLX0Uf/GzrEShgoq8HXO2BX//4JWKw/RfL3+KH//7Wziwrxdt7R6sXbkbR4+2oKg4BcW5GdhRV4/Wjh4Muv18V1RGAoSWH/KTOGWRd3b3nXMwc0oJ1mzYh1//ZgVeevZzBKiePRuasafuKN2/GlMmFCPFpsb7b2xD16AnwX1yEu4gZlcVY/bMEmQ67HSA7zdRYi4IX11iohaDQi2jQY0lS+bhgzW1ePnNTdi2pwUuthWjCiEKw1yeIPYd7sSamv0oyM3Fll31aO7uRcxNSgzkMaZZ9FhA3pFZo8Ffnvsc7360E50eL0W6EYSpHQHSi/bWQdTtbIEnNACfyoSjTT3o5qlNSlsSIGpcRCAIJ4Xh114zHy+/vQHL3qvBjoPtGOQRutRXIarKNeTHnv2tqN3TgLLyImzYWYden0+JhscNETVBGJETRY1jOa0KniEfNm6rw4GGLgz6A2S8ZLkcqGrUyrzu3gEvGtv70N/nwaGjbRj0UZ6Evv1UKWPBVCQcB/Z2YcvOBrT2D0THn3E17EFR8ngD6Ox2oamjC009brR09GPIH4yeTxRUVoTSgNuNTzcdwOGmXrhJ6FjQFA0hgfWHooN/mztdiqgeaGqFm8JUnlI7boioCcKInDikI24Tfp7YSa4Qv1EcUSD4GCWeV8ljwjiP8oA+UcTKUpF4DNDP/PKT30COVAePemXh5bewiuIlsh0ECz1P++I+UekUYT9ln3BPcp/wTC7lugS3ZTixIR2PPHQ5plbk0QFWUL5/QbiwOdEK2Cg56QyU2Ds7lVFyJjIinv7DHtqYjZevPx2xhvD8UiuVz9OdTlUHr+yhDLPg51fjICLKkAkqV0/KymPgTtcnFBor3iR36xn7hMsVBCHRsAWOH+ytsGfDiX9WIGNWkzczWqNm0VKxYCWqqVzOmQRnvDmpD1gMle/jJMyCcAGRKKUYGfZyeMFGjox4oUeDFpm8FltYic+ULGeEQz9OSiGJIAKHyYB0SlAlqsyxwPdN4hWmRFGzTa+hfqH+UPpEEIRzZXxFjWFhIydETaHbpMo8LJ5TCfSTNY92dVol2yjzjgZ/BLMmFmDhrGLkp1uUcWiJLH50kLCRB6omkZ83sxTzJhcBA346zCN2R98YXjFEdSwcFg9PEJgTXxSMF2SrhfnpuPuG2SjKSMXffv8vQIqeHJbzbIh8p/1BfP9vrkRRYSpWrN6F91bvi85d5TBXYby7g++ZEol9fp4d//3rizDU58X//uV71CfkvfHMiNEIVF8AD1w9CfdfPRETs3ltN0EQmPEXNS7dG8Qd183Ew3cthJrCrdu//QcMDvnJWaOT51PXyDvUkZf47z+9FRfPLcV7q/bgZ//2LuCgUJRfRiiMt6gRHPV6Qrj1xin42/uuRGPLAP7+/76K/n7v6H3nsBo3Wr24xe5FGa+QIgiCwviLGoeZnW784Ps34t47L0HA78f//q83sfLjegwEKQw9X4+SqB2qYASFuRb8/Id34bKLKrFq7S7c89AfgEwKQ/XcDZQUT2mc4cF+HV488cSduOna2ejq6sfv//IJnl9WizCvIcDvC84Er3zracf1rlaUDgzEDgqCkDgLZq+LjXV44vmPfjpHXkVZfgbys1LgSLXgioumwuQlF22I4tKTr1Emx5+j+zZSWzxBqDs9uGr+BBQXpMNiNaGwKBOV07NhYBXx0jU8h3X4NaN97ncq+Prh5cUTv+g0GTB1QiGyHHbkZKVhzrQKqHjDFt6V6uT8yvCQEfqE7pN/gVoeqMxDSZRE9yJJ0gWcTpxRcDYoQzVUMOt1KM60wmE3HktpNj3S7DrMm16MG6+dhRISETZAq9mI9VsPwmBUwZlmOpY/w2GGyaiJjnVlQTwLbTOQYTutBpTmpiPVokO6zRBtCx2z08/33DUf0yYVKpPkg+EweoYG4eofUoa6OewmZKZYkW7XI9dpJz0Jw8ubIZwVKqRYDCjJtSn3mE71p9uifZKRbsKMyUW444Y5yMqwQafVIhQO4dONu+BwUn+kxvokxYhM6hOLUR/dsZBfasT7RKVGZWAQE/1uOEIBZdYDJ0XlJEm6gNO5h58samRwmWSEl83Kw4SKAhIWHt3PjkqEHK8wJpcWYN6sMjJgXkKInBFfEE+/vBZDgx5lCBvDjfCRcW7aXo/t+9vR2Udei5qMeIzYSBTL89Nw5fwpsJn0x8rniQcBquQ2Etci8hqNBj0GhrzYebARm7cehtvjgU6lJaHXkcAE0Nbhwsoth7C/sTvaWWOFPM7CbBvmz8hFFQlYmLxAXvuMN4LRalUoycvBZQsnIi2FQl9SqnYKQf/0yifQUFipjo3pY0fPF/Zj/bbD2HmgA139vuOhqewmJQgjkphnaiRqOeRd3LCoDN+460pMKM5WdqGKruUfh6vhxJYXt75o1QHyQPpdg9i7rxm/f/VTfLKlDj2DATozdlGzGDSYXJyJh2+/FJdeXIlcCu2MPA5sFLAIe31+RdDeenczXnq/BrvqOyi+i2UYCxRZ52dYcdXCCnz7m9ciNzOFPFQKdE/ok/j9fbFP/OQh9vQNYveuRvzqxY+xubYZ/dwn8U1cRNQEYUTOPfxkyKDcngB27GzDiyu3Iz/LjvICB4zK9CVmuDgNN+Ao7Z19eGX5OvzT/3gL2w60YSh2PG7gY4GjxbaWQXyyrBYBtQcF1I4sZ3zIA7fjZMvnY1HB9Qb82LGvEX//+It4650daO4ZQIRXsR0rPDyE/h9w+7FzXzuefWcjJpXmkMCmwEyhZJSTBXu44KvQ2N6N10lYv/vYSzjY1gsvH1cEMdYnsfBzAoWf6UEKP+n0mGerCUISkhhRYyhkCqtVCJKHsn/LEbQ2dcHuNCA/28EnKbFBRg02jtvrw+qNe/C7P36M15fVoC3gQzABa/sri+CSc9bY2Itd+5vhDwdRVuKksJgFJS6UJ1ZS39SNF17cgCd+/gEOkKC4wyGElbmtZ9MYqiNWDUtXMBTG7nVH0NvbB3uagcQt3icnJ2CIYuQVa3bg9898jDdfq0aXNogwrwiidF+87YSImiCMSAJFjZIyul2FXpcb7W19CA8FMXdOCfR6/bHnRMPZc7ARy9/bhrc/2ImWPg/CRrLcRAzI5SJ0KmUsXGf3ALwknrwq7QTylqKcXIcKL720Ec+/ugm7jnbCr4kgwu04Nlr/LOHLlSLUFEq60NHcA4NGi8mTC2DhaVojsHN/A15bthErVu5By4AbsMYWFji5KSJqgjAi/Pc/sXCJFh3aXUM4VN8VHRUxzMEYDu9o3tVOxt46eNx4E4lRo4SALa19aOnopQPckJHqUKGJBKe5u5/aoYkKa8KawgVRsmlR196Hg0e6Eea3FqfA43Gj5UgvOjopCLfHQ1VBEEZL4kWNbZhsNj3ThtKp2cq+ofxwPBgMYdDtUTZPiVNakI38XOfxh9/jQSCMXGcqpk8tjh2gsHfIS+3wwMeLPcbUa/LMbEyYlIHE7y0QU/WwCpZMKzJL+Blf9C0wC/6g20se5fEd1iuL85CdnQqtnsT1FH8MhqN4Z/Hui1UlSdKFnBIvavwKLuhFYZYN0ysK4wfR2+/C5u0HsHbDrtgxIMORhvS8NMDBbyfjYxUSjC+IHHsKplaW0pfo7VbvOYS1W/agsZW9tygTS/NQQSKrDMJNOCSUgQhmlGRjZkU8BA7DTQK6ccdBbN1x4NgxZ3oKCic64Syy0Ncz/3ooUFY2tld+JoULU/9LknQhp3GYJkUW1uHFjVfPwHf/7mpcNK0Y22rr8cwfPsaW6nrorWbMubgUf3PfYpQXZ2Pluj345TMrsWH7UURXjI2WkhDIS8u0mvDoNxbhf3xnKYZ8ITzzwgp89O5utB3tQ0mJE/c+eAmWLJ4KfyiEp37/Cf71F+8BuWa6mAUlLv/nAv/pIFFrCeLBexbg4QcvxcTyfNTsb8Nvn3wX+3c3wWQz4OIF5fjet65CpjMNb6+oxtMvfUbCexgwn0rs1bFpUkdQPNCmHIkktPME4avJOIgaiYE7iIfuWoiH770Ue/ccwXvLa7CehK293w2dUYd0pwXzSwpx862zYE01Yc26ffjN02uU504Jfa7mCWLx/Em4/foZqCABe/n9ndi8dT8aj/RicMALm1mH6ROzsHjxBFxzxSxs2lqPn/3iTbiUye3cjgR1DRfVG8AP/vYqXEF17dvXhhXv7caGA/XopzBYp9OQmFmwaGoZbrlpjjK5/r2PavHci59HJ9uPhF+FuytsuKvcggrLmT06QbhQSLyokQFbdDpcvWgKZk8uwHsrtqN6Sz28PCxB2TKOquPHVt0BXL6oHLNmF8Ll8uIPL6ynCxMvalcvnoJJ5Vlo7ejGKyv3UGhM9StvNul8MASVx4+8HBuuu2YuQuEwPlpTi6PdHjqZwG6h6kwqDe64Zjoy0ixYvWY/qqsbgHQTeafUEGW6AyX6Y3DdlVMxbXo+6ho6sWx5dXSJppHoD+Jbt8zCw7fNxcSirNhBQRASL2rqELLMFpgNOgz5A2hv85JF8/Ho6RNw+ZDtsCA1w4J9vHdoosMnEorSHDtC3hAaWgZibxNZUWNwdTzUhMQEdCotxYxUsxH1HYN0gvMlomuoDAo/HUYzbFYNhgYD6GgdIrE6xSwHlx9FeSlQ0x+A+k5efeMUfdLhwWMPXY5HHr4cU44NVREEIfFxi0qHdrcPR7oG0c7zNy3knZ2qllQj2nwh7G8gQRvLvgWjhbyg+g43GkkoYOcwbpigMVwdv4I0kcBo9OgdCOJIa4KX8WHRpD7pJo+woWMIHbwyScopQkomRYPGPje1w6WI4emIkIcXObYP3+nzCsKFQuJFjW2LDFlZlkwxytMYGwuKOoIID+ngNfsT7akRvCFVhLfxU9px0u1ydcqKt3SeR+vzoFt2oKhNUcVLADzmIszCRn3CO28plZ6mbOq4CLUpwlOiRvH2UxCEExml1ZARBnxRETqT8EQoDydFKJQD/M/pUfKdodzhhOJ1jBYWtFibhqMcih+nFG/7aMrm9ZECFForWU/Xdi6P8g6vJ3rRKaCyuLix9okgCApnFjUSMl4tenJJOlLM+qg+nBY2Yk6xr4mCytOR95KZakBJnl1ZVigqsmfghLaMkD8uYEq+Yel0UL1mrRYzKrJg5mWWzpT/WJ9wvjPlFQThXBiVqJlIyO68fg6K8tJjB78EqA02vQ7zJmXh6kXlyE2L7QR1vhjuNAXCcOoNuP/2hch1WqMTIkSrBOGvgtOIGp1SngFFwPPMv37jZSiryIPGSJ7JaKPWRBIKwWE2YekVc3HtomnItZKoDfHLhfMAixY/e1M+6R9fGGlqI+6+9UrMmlqAVJ6cfuyBvSAIXyanVie2UR6Rn2rFtddUwUKh52VVBZhRSN6alxdwPJ9QMz1hmAIqTJhQQEJSgXQSOATOdzuIQAT5+SmYf2WZssruJbOLkZ9pi45/EwThS+cUokaHeYiFx48MnQGLFk2BwajH7CkFmJBNosYb755PyAuypxpRUpmByuIspNmtqJySg/xiags7a4le3eNkWK+U53ek9P4w8jJTMW9uEbQaFeZMLUaONUURXUEQvnyiMVWQlIHHT/WR58Njy/iznz69QWVZ7umTC6DXaVBWlIW8/AyoeLiBko+viaVBKuOco0FqCztfg1wmlx+ro9+LnDQzplcVIj3Foqz6Mb2qGJPKc+i8N5Yn1g4XJU+sISOs4XZ6SLiUhRjpOhYxN5UT75Pe2KfLi+wUK/VJqRKNlhXxSiNpsGgpLB+pT5TNUsbaDkEQzhaNNuOin9r0KuRYzCi0pSDDbECmxULJhMxMO2bMLcZt182EyaCDyWjE0d4BNHb0wRlSUx6rkjfLakE6iZ/aqIbXH4g+Mx+zHfMFKmRbzcin8nKoHRncBq7DasCcGYX42hXTUUaeGouPVq+Dq2sQXQ3dyDTbKJ9ZSRnUDotZhyFS2PBYG6Fkp9ZHNMqb3nyzFXl0fxkWY+xe6TPFgIULJuK66+ZBT56a0ahDU1cvBvrdsFB4HM1nRpbNglSLARqDCm5liaME4w5iNgn77JklyHTY6UBMjAXhAkdlLP2byOKFJbj/zgW4/OLJ8Lp9sVNRzCYDsjLia/yTgbqHlE1SfDxXMYaeBK+9ux+vLd+IP72ylZw88mp4TuOoYWPk/CH88FuLcOvXpsGZmkJ1KPKowHVYSNxSSWSiqKgdQ8qKssPhdtXsbcbjv3gN7b1BBHiM2PBlsM8EZVeTBl1zZRkevnsRqiYUwkdh+HDsNjMcaTb6idschss1gIFBD/zDnqsZTHo0tnRi+Qfb8Kvff4YICW1CVvWN0+HBow8uxiMPXY6pFXl0gH8fY+lzQUhONNq8i3/ac3QAHS39ymoRC+dVUshpUcJOTmazERpl1H0ULYVZJpMRVvKobLG0c18T/vzS53jj9Rr0q8LRpbDPCjUO7ekkEQmjsjIXJQVZx9phoXYYlWXBY5PiCd4v00LenM1qpGSBm8Llt1Ztxy+fW4X2Di+CYxU0FlcVj+iPoKPZhdamfuj1Wkybkg9nWsqxtpiM1A6lT/g+ecs7LfWTifqE+y3aJ9W1DXjxhU148/UdcJspX6Kf+5GnNmdWKWbPLkWmIrAJLl8QvqJEJ7R7QxRuGVBWkoEF8yvx4C0LUJrvIOPlOUNxUTjRaPiRUz95KMs/3o4Vq3eiekcDjna4AROLzlnCAkSeVjF5aYtmFmPp9dNw2aUzSCSMsQxMVEiGt4dX19hWewjvvL0DK9bvx662TsrCghYTwPgtjIpY+eRs8gbI5UWZWHzJBDxKXluWw6o8W4zChUY9teg1KqUdQz4vXntnKz5aVYtt2xvQ1M1Llesp+5gacWYGgrjv8nLcd0UFJmRHV9IVBIEs8dgqHRw6kX1aSEDuXzILt900G1Mn5yPFxktsxA2YiSAQCKGDjPXN5Zvw6kfV2FXXAo8/xNujR9XubCEvT4G8kFStHhfNLsQNN8zBkkunoTB35IG//QNDqNnZgNff2ICPVu9DYw8JK6/GoaIYkkVNGckfyzwmSKh4OhY1Kcdhx/3XzMatN88m4c8krzE+If24wPoDQTS1dlO4uRWvr9iOA3VtGOAwnMf1KRNhE0xIhVsygNucEZTrzqHPBSHJGLb0EBsoGR+v0d/kwuP/civuvvNilOQ7o6eV81EG3F7U7m7EvQ88iTavJ7oOWiKfFzGBCNRDEVRMSMHPf3IXrl40PXYiTrTZdUc68f+eeg9vvrQFfezpsVekhHoxgTwnooLFS3yrmwbxyyfvx/VXVylDOob3BzPgHsKn6/fi9vv+E2DR45U/lMUmx4nYZsbXu5pROtB3TLfjn4JwoXJc1JQlciiRc4HGIfz8iTtx5+1zke3kN2vDDTgCj8eLfQebcfut/wny0WLhVYINmDw+nnM6d3IW/vl7t2Lx/MmxEydyuLET//nsh3jlrc3o9fkAHYlJotoS9xzpFtXNfvzqD/fjuiVTkav0CXO8Ho/fj/VbDuCGm36JSBb1B4ep4+GhxYmJmuzQLggnErU69mzYICIUQmpJ1fL0yCtKhyM1+qaRt3Rr7+yBx8tvRlUwGAzIy81A2aw8WG1mCl2VbImFmqLxqikELUVmRlxEWFKBQT+FwBwaEnabEfNmlsPkIe/Im2Ahia5bBOjVUBUaUVCUCruFQ0/etDmMnp4e+uSbj1DkrUUGhallsxww8Ji1+G4ogiCcV6IKwPrAz55IKPRkjAvmFCM3J0V5u9jdO4D3P67B44+/gmdfWI19h5qVN3881GNmVT7SbSR842LAEWgoVU0uQka6jbxDH2r3HMFP/+MN/OM//xkfrd2pDOkwm/SYXJEDQ4qRVJBvh9uSwPaQx2g16DB7Ro4SdpoMejS39eDN9zbie997Hk8+/zEOHGmjvwtqpKVY8LWFE2HTUVvGQ+gFQTgjsR3aYyIQDMEcVOPuW2ZhzoxytHf14/2VNXh9eTU++GQnmtr7MDDkVea5O9MtCIcC2LGjGa0dLsWbSRikrxoKhdMorP1vD1xOWqXBxq2H8No7m/HKe9XYvP0IBnkfAfLm7CRmWZl2fEqhX+eAG34eP6eM4I96cudMIAKnxYRbrpmEeVUVONrcgw9X7sBrFO6++8lutPQMwO31U0eqlfFrVpMOn605hF43tW9MY/XGCP0SZId2QfgiMVEj4+OH7BRKmcJq3HHbbNILLd5euR3PvrwWW3e0IGDToa19EHsOtqCprRsZ5JVkZKZg/aY6NLT2kKhRmJYoyDrNeh1KSlJwxYKpqNneQO1Yhzc+rFG2EwiTyB3Y3YbGIx3Q6ECiloq2nl40tfSit5/ERPHYEidqmeSN3n7zLPQN+bF8RQ1efWsrttU2k7Kb0dnhwe4DzfQHoA8Ouw1FBRn48ONadLuHEBnXFwUiaoIwEjFRiwsAhZ8mYEJlBX773Bq8/dEO9PM8Sgsph4Y+SWh8AaDuUAfeX1GNjLxc1Da2oGOQNypJoEVRValmPWZOzsa+A6146c+bUL2nFUg3sAsXDZotarR3ulC96TD2Hj4KJ7Wl6WgPOrvIa0zkju+REGx0/xMnT8BPf/UOVn1+AD0868LKSzAROhV8wQgO7GnH5vUHkVOah72NR+Hy+uCPPfcbF0TUBGFETtpNKqLohdNkgMsfhpcnurPgKcbC2dhy+EfKR8lhsWAg6I/lSyBUh5Y8R4s2TPWY4faTQChvDk7yBsMR3lYAJvISDXoVhYERaguFnwl0GhkdCanDoEc3hZnxFxRf0HBqi456z0Ghan/QR0IXpkOxvOOBvP0UhBE5KT5SgSeBdwwMwctrlbGRHDOU2A/8oaZ8FOLxMyyvfxyeiFMdPBa4nxyiXt8Q/LwRysmCxlA7QpQGSYC73Z6ouI7DihgsZG39bvrk53V0YKQqqB0BEuI216AyEHlcBU0QhFMSCz9PQlnldRTiwKHgmfLx+XieuJ3zLlP8DE/hFNfzNWoe1Mv5WHtPlY8St1eR51i7T5E1Cp/nMjnTaTOeCD+nO+O9UlL6JPr1tMT7RekG+ife/tESCz8rfYNII082wiJK5SnFCcIFzEnhZ4Jh4+ZXpQyFZwYSH61WDTfvwqRA5877gyA1zEa1MoLF44uF118GLMTUCBN/kn/sCVNblP35eMDvKNoUn1HQ34wSVz8foMvpj8D57k5B+CtjfEXtGBqoeKJ6thXpqSZs29cJaKnaL8MAqdrpxVkIRULY29yBMD+MOu/wjaupTwKYVJRGuq/B7iN9sRccoxQ1un6ptwPXDzShZLCLvrMg8qMAvl4QLlzOm6hlpxhx4xXTkO9MxeP/axmQYx7fcVwjwXfq8uMbd8xFJgnshi112LS9FdCTmHwJAptiCuObty1C0AX85slVQB55WsqMiFE0JgDcXmrE3ZPSMTk7jQ7wNefhVykIf+WMs6iRoXHpfj+unFuG++64BHarBQ//3R/gIu8kpJw8j4bIVfX68PgPl2La9DysXL0bTz21DkjTk5cUF9hxbk9cezxBLJ6bi/92/1Xo7Q3gp0+8hXbf0Oie3TF9fnzzxhl46JbZmFySEzsoCML4ixqPM+gewLcfvhz3ff1SxWB/9G+vYFNtO4aCfuWx2nmB7lIVjiDbasS//vhWzJ9Xjo/X7sJ3/+FFIN0Ujd5i+cYV1it+tdvpwd9953Lce8el6O4dwv97cgVWrq9DxEAZRtMnHR489s3L8Aj165SyXDrADR+FGApCkpM4SWGb4sc5PI4rnnjMGE9bIu0qKsxGXq4D6akWXDl/Ikw8X9RH54bn5+f2JDznLCx8/QnlUgqEoCbvaPasAhQVpCOHwuCK0myk5lijL1jpPO8tesI15zosgy//Qp9Q4uWdqF+mTi5DVlYacnl3qhklUPGOVNxfw/NzOkWf8BvPCJ+Lfot9CsKFTcJEjX0EHXllOjJYJZFg6bwh6DwB6LNsyCt0Kqt+pKSYcfHcybCRsfI5JV8s6f0qaIMqqI8Z6thRqdTQ0G2d0A5OnhD0fQFcMrscudnpMOh0irAtmFcAOwmNzk15vHQPSn5qN13LuwSeCzy8TkdlnNAOTmoVDIXpmFyZi4xUKxwOKyaV50Pv9kb7bHheulZLfaU6V4EVhAuEBISfpIuhMPKdFixdPAF6tYYctBA5GFQs/c8remQXOHHz12ahsjgbYRIs18AQ/vMPH6Crv49ViARRQx8qZdXdQ42dqN3fjvqWAURdqLGghtOuw+SSNMyeVgSvO6DUp0AfVAu+cfelmFCaC6vJhJ5+F1av345tNUfh9ngUZSZJRUQVhEFtxCfVjdh9hN8ssrs1RshLLS9wYEFVEdJMOvjJCwzHvCm9Xo+CvCzcecNcZDnt5CBG0NDcSX2ynHLwsIxoGMk9Y9Bo0NDRh+q9rWhspz6JTwGTjVcEYUQSIGpkZOTpOOwGLCKv54Gb5iMrIx0aHjNFJsqek8VqQma6DRaTXskfIhGsa2iHzx/fuYqEhAz7QH0r/vLGJmzYcRQuX/AsRE2ljPuqyE/DfbfMxtyqCpiPLb1NZ0ksCvOcyiYuvJlMIBBUhK2ndwjBUHRmRCQS3dJuxcfbsHzVHuw/2jN2reDFJclrzSEPbNHsIjx06wLY7RTmaqOzInjVEd7AJctpUzZ24XZ7vH7qk1al/jh+fwD1jV146tXPsWN/GwaG+BlkrE9E1ARhREaeUXAWhEmoBoe8MER0yMt1orw0C8UFmch0piDNboZeEbmowaop/OIt5rLoXJYzTQkF99W1Yc3K/dhY24h2F78FpLzH7XvUBElg/RSywR+B1a5HRVk+KkpykJORqrTFQCLCa58xvCmylQSOF3fkdvDOWd0uL1ZuOIR1mw/iSHMPPDwNLOY5jRplxoJa8cB8niCFoBoU5DtQXpKNovwMpT7e+0EzbOoXr12XSeFwlpJSFHHbf7Adqz/Zh/W7GtBLoekJ/SH7fgrCiCRG1MiWONzs6/Vh0/p6eD1+8soMSE2zwKasFBvLdCxFvQ3erKS1sx/rthzEMy98hnfeqUUnh4G8IxXrzlgdNYbEkOejHtzXhv1HjkKt0yMtxQY7hbY6xVOKFxoXgOj3vn43duxuxLJ3qvGLZz9GQ1MfPDyXlAR47ESvYYHt6hrC55/tR4jXqqO+sKeaYDYaYsXGPSv+Er3GR23nDVxWrd+N515ajzdfr8EgD6o9eeURETVBGJGEeWqKN8NjvYx67K1uwqG6VuitGsydUaaEoCcaHP+sQmd3P156az3+7XcfoGZnOwI2Oh5fbPJsBC0OFRMxatDbF8CnGw+i1zWI6ZPykZFmpZNx44+3h7+rsXbTbjz1+0/wl+c3RXejUsaLRXOcNXw9O6gWLXaub8Dh5jbobTpMqCiCMRaKntgWFdo6evDki6vwuz+uRu2uNkQy6Y/CSEspiagJwojEXYXEwSVmarG/sQ0fL9+B1vZu8lhGfo24p+4oqrc0oP2gC7BRyBh/XpQodGTk1J7DR9rx2YY9dICfOw0XkeN8vOogVlc3ALxpijK2hFOi2kMClqPD7j0t2PTJQfLe+mLHv8juQ0exe0sLOo6Sx2qPD54TBGG0JF7U2AEhr82YaoAj34wUuxVq9npGIDczHU7yngK84Yvq+DO3hMHFeUJI1RuRn+uIHTi5juj37FwrMrPNpHssfImGytRq4TfroUszISO2oc1IFOc4YKUwld8gK88VBUEYE4kXNXZugmHkZ9sxdWqB8qZRTSLX1TeI6l1HsLHmADyxpXLys53IKnJAnUre0Xit1uELITvFjCkVPJWI64hgz4FmbNp+CA2tPFwjypQpeZhcmq2IYOKhTvGTYBU6MaEyR3m+x8d6+93YsuMwqncegddPGYiCXCcKip1IcZLAnrZPuKNP9iTjxyRJunDTOIgaGaIviHxHGqZOKFK212tq6cHqT/fiuVc+w9MvrcUnm/ajrduljNfKIg/KmZ/Gr09jBSQQEk6TUas8c8px2uBye7FzX5OygcszL3yKdz6oxsH6Nrg9XlQWZaOcBEVZr1x525lIkaWyPEFML8pAVUX2sd3cV322B398aR2eW/Y5Pt92CD39g9AbDCgtz0BhIfUJzz44FfSbU1qpZOF/EtleQfjqMg5zP9VQtbtx3+3z8b3vXw9nilF5s/nCs+twoLEToO+WdAv+z/dvxNWXTELdkTY88+pneGPFzujmLYm0TX8I5QXpeOTuhbj3tktQu68Zv/ivD7B16xH0tw0hI8WKpXdMwwPfWIiKwgy8+Pxn+OHPliGsiCw1JMKh6Ll2D98QKVDHEL7z2EI8cM9CWI02vLp8PZ56Zg2ae4fAGzAX5aTj//7TjVgwpxw7yaN99tV1eP3DXYD1FM/V+vx4jPr4W19fgEkTyMMch79PgvBVZFwmtKfpDfjGDXOxcH4F/rJsHaq31KGbwjo/j2PQsHuohsOrws03Tceci8vIa3HhZ//2LsBhaCKfI7kDuGvpLCy8uBR9XYN48tdr0KsPwwveP4Af/0VIM1SwZ6Xhuw9cgbDXj9+/sAZ1lDfhhNT4/iNXYkJROt5+dyvWrzuEfuqPoPIMkqdTqeDw6fD1+y7CtFmFqK5pwG+e/iS6gshIkOjebA7gVrMPFdrowGFBEMZD1MhQnUYj8rJsMJDndaC+G65Bj7KngTJMgj0frnEogLxMG4oLHcpQkM/Je0q4pxYMY1p5JtLMerS39WN/gwswcTuoEq6Hp3LxJHa1DpMzUpBmM6DD68PBNsqnvClNENQnKST0JSRoXG3DkS709LkBA3lhcQeLVdYdRnFeKopLHOinkLhmV8vxIS4nwyvfejtxo6cD5T43QoEQVLw+3VgHCgtCkpF4USOjsui0CAeD8CjPp7TsEtFn9PQJkOgYtBqKvtQY5BU9WGQSjFlH/hgZvMdDbeEpU0pIeRJhEgO3D2ajFsY0M3oG+aF9IkLPGCRqNgoxef6nj1cD4dD2VFPAKGQ2GXWkWSrS/dM8Zxy+m5THHX1bymPfRNOEC5wxihpbzGizc15Op/F42KtgD4Vtl1efjU8+PyVjqT8GCwhfFxfWEYdsDPNwjgnradp9AqNsk5JtuNd1qvIpo1IcfSpvAU5RtmyRJwgjMtzKRgFbzWgvYWM8gzCwgHCRPERtVIJ2FlbLA3p59yqu65RWT+d5Ejonpc2cRsso28WiqYjUmcqnfBweswifzf0KwgXOKBSKDYuy8eJi0fEDXxJcN6cx6vAx+NrThHMsqmcU1jjcJ5S4T/ia0Vym5BtVRvo/lsYkroIgMGdWiFAYJrLFu66ajiKHFQh8SW/aIipYDTpUVTpw9dxC5KaaT6tR44o/hAy9Ho/cPB+ONGqHgnhVgvDXwGlELWakFJLxW8zbr56LiSWZys/n34CpvgBPd9JiycUTcf0VM5CflqLMFjhvxJ+5sbdKXpTTbMb9Ny/A1JIM2IwUP4/ayxMEYTw5vahRuGQmISkrzsTsqWWompqPbCd5a6HzbcDUliCLmgaL503EwounITPFphw7b8R1nPrEatajuMiJ2dNLsHBmMbJtpugeB4IgfOmcPvz0RZBrteOOq6pgNulxyaxSTCvNAryBWIbzh5pUxWY2obIsC+WFTqRlmqGzkNd4vvQ17on5VSjOdWDRpeX0RYVLL56EwgwH9ZU8/xKEvwZOIWp0WEWehyeIdK0ZC+ZPgNGgw8TyfBSxAfOuR+cT8siyM62YUVWAnEwHtBotLppThhkT8khgg4gO6h1P2E0jAVVTPdQnOeQlzqoqUSLSiRNy4LCYqR0SfgrCXwNkpfS/nzyvHh/Q4qXkpjRIaYBCKi+sWTpUlmQqq8ZmOlKQW5CGlBRdLB9fw8mjzG2El34e1Ru+U0FtGSCRaueyXcfraB9EQaqVhKQUWmoHi8kkErSynBSgqwdoova2DmtLF93H2cDPy5RhHdSOAJXVzf3Bicun/mimz74hZKWYMK2yQLkkzWZBYbkTGQ4KQVuoD5Q28Ce1ndvhHaewNDYvNRwJIhikOgkevaLcgiRJF3IyTvlupDDThFnlBZiQy8vzxL0w+jSoUD4xF/feMp++k6GTEW3ecRhrP9sLtyIcfIy9mAj63AOoqW9E7YEuclroWp7nOVbokvmVuZhWmIU0K685xmXwILYgyioycdH8SlTy8kBER+8ANm06gG0b99E3Xson2ha3x4eG9i6s3XsYgyQoYRbZ0TYleivkpKpQkm1EVVkRCp1OGHj60THCmENe4tKls+hnviCMTzcfQPXWevR1kJDF+olTa78b24+0o3ZvQ3S6U/xlQ0JQYamnHdf1N6JkoANqrY5awvtVcd2CcOGiMk76TmRahQO3XDUTN3xtJsqKMinU1JP9xQ0waqDHjTVO9OdgKIy2The2VNfh1fc2YeXnhzDID/DPZmI6eUl3XDYVty2pIuEoR14WL+wYJ15eXHT5+/A2Av2uIeza34L3Vu/C88s/J6ENIcjjvVi+RwWVF1FBFQyjakIGrr+qCksunYJpZbkwmVg443B5nE6+x+ixQCiEptZeErs6vP5BLT5eu4P+QFD/nY3Qnwpyrm91qnBbqg+lkX7lUJjEX0RNuNCJTpNyBeBMM+PyRZX4x28tQVlJDswmg7Jn53ED/qKoBQIkaD39ePP9zXj+1Q3YdaAXsHE+Pn02xkXXtvswa0om7rl/Lu659QpYzAZoSCD5v6iIsKid2BY2ZPeQH5u31eFPL32OZe/XKEscKfEYt+Ns2jIUhMaixw1LpuBHD1yOiRVFynZ2Ua0fXt7xPuJqAsEImjq78cIb6/D68mrsP9gHpPOQD2r3WTTjlPT68eh9l+Lh+xZiUpEzdlAQhKiohSPK/GojWWxeqhE//sF1uGJBFTIdqZQlarBR42Wilhkgb2b7ngb8+x8+xmebD2GIwj5l7dZzdUbCIej9EWqHFZdfPRH/8NgtKMpOgU7x/OKixhyvyB8I4dd//gBvvbQd++q74DZTnnP1ilihyOE0k+c2vSgbP/zBUiygsNNuiw+2jfbD8X4BBod82HGwGY//+l3s3lmPIRLagIbD53jeBNLhxaMPLsIjD12GKeW876cgCEx0NykSswiJQIBszzUUwKGaRthSdMjMtMN+7NlWXCRUGHD7sH3fUTzxr29iw66j6CVBC7HhJiK8oraEqI4hH4VwzS5sralDcUE6ivKGeyPH62ls7savn16BN9/ejkMtvXBzqKnjAcLnKCTsktH/5Iyid8CLfVsOwerQw+HgPhk+iyDaFl5Vd2vNYfzzT17CzsMdGPAGolNNFW93HHAHju0mlUVtUppL/0iSdKGn4xZHX3hdswB91ta0obfbQ84KC8MXxUFF4kW+HWq2NaGn2x0Vs0QImgKVo1PDT7rUQWUfbW4njyf6di8K13O8LvbSOjr60NTSDzfvss7PrhLlGXGfUFvcgQC2balHv8tHUWS8T05sB4fAAyRsG7ceJo/NE32myIJ2NqHvWXG+6hGEv26ionbMNiMkWBEYU8zIzclAmt2mHA1Hwujrd5GA8KDbCEwGHQpzHMjIToXeQOFVwg032iAteV0XzSZPJCPWjnAYPp9PEQ8Ofzkfb2IyZ2Y5TPr4std8PFHtiXUMD1Gzm1FSlIsUe3QnqGAohJ6+fuWTMVE/ODOscBalQ6ss7CgiIwhfBjFRixkviYZGG0HuZDuyC9JgsZhIyMLo7h3E+m170dDUgSGvn5wyEhOzFlULcpGWZkj8tCnliXsIGncIVdOK4aTwKhQKY2BgCPvrmlCz8wjaO13KfqLcxulTS2AMkrjyXPuEeYwMlRVRQWPUwjrJicKiDNgtRuqTINo6evHphp1obeuBx+sjJ1eNbGcq5l9aBIveSG1JZDsEQRgtUVGLL4tDhqj363HFvEpkO2zwk0jsPNCK//XzV/H3f/sy/uEnL2D5yu28Ejd0Og15SEVw8hzM8RhfSsKpNmhQWZCFFKsJrV39eGVFNW78mz/i3keewtN/Xo2D9e0wG3WoKHZCX0gelJluJ6ETy8nrI48wVWPA0jllSOGVc0notu2ux+O/WIZvP/Yivvuj57BiVQ2Fpm5lv85F88ph05DXeLqdoARBGDeiLwrYI2HHglTM4lHjsYcWIiMjFW+vrsUv//QRtmxrQPuQF10DXuw91IHDjR3Iy7IjI92KjRsOo6G5J/YsK0GQMBl1apSU2PHNuxaTd9aK5/+yDste24wjfYPKMtfNdd04QqIWVAUwZUIeag+Q99bRD7eblPjYUJRzhD1YXxg55J09eO882EnAl32wRdnWbgP1SZfPj84BH3btaUFrez+cWWZU5Dvx/kf70DU4xPFzrKBxgO4z/qKAtwCM3q94h4JwXNQY8tb05IHNnFWKLRsPY/mHNdi8qwFubwgREi0feS0d3YNoauxGT0sf9BYzNu+sR2uvS3nJkDDIQbKa9JhY4USIvMIP1+7FqnX7UNfcDZg0ilj09XkU762powdH6dPnj6CltR+9/Z5YCJoIUaN7CoVgM2swvaoMa0ms3lm9E9sPtqDf7ae2aOGj8Ly9axBt1B8u+rSnmLGh5jD6vN7xXe5NRE0QRiQmajE0akQohPN4I1i1chcOHWkH9NroEAkeKsG6RYIx2E8eW+1R9JHIHe7sVt4OJtSgIioYdFqkWo1Yt+Uwqnc3o8vtpfCSx3zFIJH1BIPkJfZi/a56GLQmdJLgDnpIbBImapyoHBJsr0+N99/djkZ+lsceWHzGBPcJne/rHUL9/jb0eHxo7ukjbzJIkWsC2nAqRNQEYURO2niFjYKslEVKGZJwBiPxk0vFBp7Qh/MxlJcFVD4JHPT0M9dxwsYlJ8F5R9PmsRCf3B4mUecHjLw5zOmKj7eZ54rGX76MFx0ePPrgYjzy0OWYWsGDb2NtFYQLnJOsgPWNgiYOJVkc2DBPFonhx9h4EykicbgOXk6IPUQjtUlFnxFKp+N0bT5buE4WUhY3DntPVSzXF69b8WoTVL8gCGOGlSD6MTzxsyT+ZC9J8Y6GpeHH4vkSneJ1cPkRDjmHnTtVOl2bzymxQHGZ/DnSeUpKnbHz49UnX0hc38mwt8Z/mCRJunCT+gu2cnI69iztDMcSnYY9w4t+jqHOhLWPy4mVdboyWV9imnbekkZDDiylY15pvBGCcGGjmjfpm2StwleOgTBuWjoDS6+rQlHO8CWaBOHCRvVc1hUial9RMvLtcGTZodfqY0cEQVCtccwTUfuqEqJfoPz2BOEEVJ+KqH1liW5TIL8+QRiOaq2ImiAISQS/RxMEQUgaRNQEQUgqRNQEQUgqRNQEQUgqRNQEQUgqRNQEQUgqRNQEQUgqRNQEQUgqVKstMvhWEITkQbWuSCa0C4KQPKgO/egJETVBEJIGVYSI/SwIgvCVR14UCIKQVIioCYKQVIioCYKQVIioCYKQVIioCYKQVIioCYKQVIioCYKQVIioCYKQVIioCYKQVIioCYKQVKgikZBMkxIEIWmQuZ+CICQVqu41G0XUBEFIGlQ77/9HETVBEJIG1WrzVBE1QRCSBtVahyznLQhC8iBDOgRBSCpE1ARBSCpE1ARBSCpE1ARBSCpE1ARBSCpE1ARBSCpE1ARBSCpE1ARBSCpUa9Nl8K0gCMmDanXqRSJqgiAkDao15lkiaoIgJA2qo796XkRNEISkQRVye0TUBEFIGmTlW0EQkgoZ0iEIQlIhoiYIQlIhoiYIQlIhoiYIQlIhoiYIQlIhoiYIQlIhoiYIQlIhoiYIQlIhoiYIQlIhoiYIQlIhoiYIQlIhoiYIQlKhqv/dszKhXRCEpEG1Yd7NImqCICQNsvKtIAhJhWqtQzZeEQQheZAXBYIgJBUiaoIgJBUiaoIgJBUiaoIgJBUiaoIgJBUiaoIgJBUiaoIgJBUiaoIgJBWqtaky+FYQhORBtdYyW0RNEISkQbX5uvtE1ARBSBpU3es2iagJgpA0qCJE7GdBEISvPPL2UxCEpEJETRCEpEJETRCEpEJETRCEpEJETRCEpEJETRCEpEJETRCEpEJETRCEpEJETRCEpEJETRCEpEJETRCEpEIV9Hhl7qcgCEmDqv6PL4qoCYKQNKg2zr1RRE0QhKRBtcZWJaImCELSoFrrkD0KBEFIHuTtpyAISYWImiAISYWImiAISYWImiAISYWImiAISQTw/wHURHSN4Nx3OQAAAABJRU5ErkJggg==;" vertex="1" parent="1">
          <mxGeometry x="1167.28" y="1767" width="65.45" height="43" as="geometry" />
        </mxCell>
        <mxCell id="9gKRPX79BNtoWNbofs5v-201" value="[ContractX, English]" style="text;whiteSpace=wrap;html=1;" vertex="1" parent="1">
          <mxGeometry x="1130" y="1720" width="140" height="40" as="geometry" />
        </mxCell>
        <mxCell id="9gKRPX79BNtoWNbofs5v-202" value="[ContractX, Spanish]" style="text;whiteSpace=wrap;html=1;" vertex="1" parent="1">
          <mxGeometry x="1260" y="1720" width="140" height="40" as="geometry" />
        </mxCell>
        <mxCell id="9gKRPX79BNtoWNbofs5v-203" value="[ContractX, Chinese]" style="text;whiteSpace=wrap;html=1;" vertex="1" parent="1">
          <mxGeometry x="1410" y="1720" width="140" height="40" as="geometry" />
        </mxCell>
        <mxCell id="9gKRPX79BNtoWNbofs5v-204" value="" style="shape=image;verticalLabelPosition=bottom;labelBackgroundColor=default;verticalAlign=top;aspect=fixed;imageAspect=0;image=data:image/png,iVBORw0KGgoAAAANSUhEUgAAATQAAADWCAYAAABfen6iAAAAAXNSR0IArs4c6QAAAARnQU1BAACxjwv8YQUAAAAJcEhZcwAADsMAAA7DAcdvqGQAAD1+SURBVHhe7b0HkCX3fd/57RxefjPzJqfNGYtFTgRIEIEkKIpUiTrSlKiTaJ2OLsmSda6yVWdaV3Vl6Vx1KpWsk05VtuWzZYsSRVKMYgAIEiCwyBuAzbsTdnJ6OXW+3//NDDgAdxcgscTuvP19yMab16+7X3fP9me+vw7/v5TO9kQg/jVM3C9p4keGYZjrmh9EHv4QzbV3P0IW//ltlhnDMJsI4SvhrTcjPwodH2SZMQyzyRDeEv7aiPxrbxrBMAyzWRD+siGtvSOhJaUfvWEYhtlMCH99XPpRKGudQ2MYhtmsfDD60SkzFhrDMJsakdLuxarUWGgMw2x6DkFpvbLQGIbZ9GyVVlXGQmMYZtPTG7HQGIZpE+Jrd2uw0BiG2fSsi4yFxjBM28BCYximbWChMQzTNrDQGIZpG1hoDMO0DSw0hmHaBhYawzBtAwuNYZi2gYXGMEzbwEJjGKZtYKExDNM2sNAYhmkbWGgMw7QNLDSGYdoGFhrDMG0DC41hmLaBhcYwTNvAQmMYpm1goTEM0zaw0BiGaRtYaAzDtA0sNIZh2gYWGsMwbQMLjWGYtoGFxjBM28BCYximbWChMQzTNrDQGIZpG1hoDMO0DSw0hmHaBhYawzBtAwuNYZi2gYXGMEzbwEJjGKZtYKExDNM2sNAYhmkbWGgMw7QNLDSGYdoG6bC9PVr7mWEYZtPyAbMC6egdW1hoDMNseh44V4c0/+9zLDSGYTY9u/5IhhS9aLLQGIbZ9GQeSZPQnmWhMQyz+ck8luarnAzDtA8sNIZh2gYWGsMwbQMLjWGYtoGFxjBM28BCYximbWChMQzTNrDQGIZpG1homwFp7ZVhmCvCQrvOEY9x+MHqK8MwV4aFdj1DyUzIrFCiV5+kJpIapzWGuSwstOsVEpfjAvNF4MgScHxKRalKvy6OagxzWVho1zFNDyg1yWEqsOSEqDgR/JA+4JTGMJeEhXYdo2mAZZDQKJUljBC6FkFimTHMZWGhXU9sPEdGr1UvhdnaFlTqGUyUdrXev87GaRmGacFCu44Qp8deP0VGsnpxZiv+4vBjKLi78EevfALPTI6iQSWo+OwN0zIM04IbeLyWbPhzEgSA46z+bJr0EUnrxLyGZyYMdMZdlHwTW2MN7Mp56EjStEJshEElqaKs/txCnGNjmBsQ0cAjC+3d4BKloTgvVqkDdX87JbARKicTiMKABKVBcsagaSpWmh14djqLL1/IYZddxsd2nsaWTpfmyaDS1JA0XchRFYYuI25pSFl1pLUXxZ+ptW95E/ybZtoYFtrPig0CE+LyfKDhAholKZUGN4yh2BhCvqyi0NBQdtXW/WaaGtCgwq0vk9AkuFIPxivdeHG2jpzcwHuGXZKWQ/N65CYZphbAdUlqFOcSdgIdiSwJsYm+2CtQUUFI3y0uIojvFIhXeT0V8m+daTNYaFebNZHV3Cy80CaZSQioBKw0LJTqEWwjgCn7qHk2pkvbUG/kSTJzJKZlWFoNhrpaLzY9mUrQCMVmEgtODjG9hmZzER1GJ6UySnHaCg2r0zq+TMKUSIhxuMEgSt4IDvSPQYEDP5RJkBF02YGt+QgVC4ocwlLLiOv51fXl3z7TJrDQriJiJ4ZCI2ESs/ldKDtpEky4KiY3h6YTkJhcKFKASi3AUrmEXPwl7OxpYLArooS1upx1SlXg1Ska5rPI9dxHqe17iFPq2tkD7OilCTacf/M8YJ789Oo0MDYloXfgg4CSaqUxWyfx+QV0xhskuw5yWETfO4uR7FlKjCVocnSpiphhNh0stKsFGUEksXI9hdPVX4ZbPo9G/TgltUVKUBLiRoi0pZE8JBT8g5hvDMCrfhGfuCNEwlotC9+clMTNtCdngefGcujs+RAapS9hW6qErZ30i0uICVana0Hzi8eiaq6E4xc0PDf9IFLGeQwmJ5AwVCo9I0wVQxJYiFBKkex2ozO7GyPWf0NvR5MSIi1jNfAxzKZFCI1v23inkEiaDiWk0iBOFR7CseNfwXLhMLoSS7hji49HbvLxnj0Bbt7qYGt3kzJcFfVaBbtycusK5es3yorfBEkMQi40+JS63AaJSk4j2fcwJb/tqDsxeEJka9O0BjEPLUNcB9ApbeWSHqWxceTSvRjp24Z9W5o4sMXBQwc83Lvdp++twMRruDD9OI4sfQRn57pbaZBjGtMOsNCuAjWvH5P5QZydmKNybhE7+8sY7fbQnQE6EhHSMVBJGbXOZymUkhQtoIAVkqxoZhKS4wNLiwpOv2zh1a/FcfjPknj2j5OY/L4J01BgW0lIahfmT9s4+nkbz/1pEsf/LoGTP4xh5ryGepVspJCTaHk6fYcczbQuRihKnBIglbM0iPXopHA2nPOwZ6CM4eQM5udPYKq0A8XmYOuiBEuN2eyw0N4JJADXBQkhh6VqCuXKSewcCLC1B8iSPMSjS+L+skoNKOUlNCoyeYdKT8PEci3ExTEVEy+YGPuOjfP/EMP4V21MfouGb1sY+4GJwkUN1tq5NUnRUS7rmHvFwOTXLZrGxvg/WDTYOEfznDtsYvqCjtkyCTLMwnfqVKYWUFqRW0NI0lRInsl4hMHOELv7XFjSayjV5JbQmkE3C43Z9Ch/8OvqH6z9zPyk0J+Dcj2OhdogFqoq3OAE7tkunrmkMpREUVtSURpXMTuuoCiS1IyKcqETZSeFplxBZTzC8uMWFh63UTqiI5pWEDkSNIXMYlDE6g8gb7UhWTejMH8MWFmCvRDAXlERUUkaXFRQO6dh/pSGuYsq8p6CubhBcroL8eUV6NNT9J0yytNksoa4GipDBDFVj2BawHIFqNYjGOYA0skkYtrFHzuXxzCbhf/rf5h8UeAdQUKbKdyM6UIPZlYWUG68go/fQTKrSJg8ZmH6CRuVw1or+Bg0iNe6HqK+pxvap+5FNP+3SH5RhrZAgqKycCNRTUJpyEHxQSA+uhP5mWXEnqsgczGE7b4xWEt1CY7toXhLCLxvJ5T5USSePgP95DRCEplAPIQQu9VD73vrGLi1gVgaePpEhGJdQTL9XmzvNbAz+w2+OMBsWvgq5ztlg9CWqwtoekcgF3RI34hBonIx8qXV82SEkJkYIleCmyZZ3U9l4FQdmQkVRp0mEh9uQCKh5aksrD5cx60PAONTAfz/HoNx3mhdTHgD4s4MUdrGfCx/rIaBpztgLdCv1aWRa7/d1gu9VcQ5tgEfwe0kyy012PQ+kXofRrosFhqzqeGrnFeBhD4Oy6giVDJwwwjzrg9nSaaEJbeuYMri7nxxwl7crU+Dq4ZwUk2kti+g58EqvE4PVSeCt/ZspiCixFXv99Ds9yFR2vPQgBz5UIYCeCQjkfLWicSVUJJfmAmgvbeJfQcaqA0VUZddSB6twNr3iu8X6xPQetUXFBSKq+unqnuQUGXE5OnVBTLMJoaF9k6g2GMbRcSMGkmLystqH5zTGtWVEiRxO4UYNhB4VPpRIqonA9RkD0EshL/dg3dLE86eBuokOq9Zg7u3CvP9deTuayKTDrH45RjciwYS+12kHq1DvZ2mzTiU/kiEWzz4d9bh39JAo9sjSclo2CFqtGwhzzcgbvOgQC6So3NBxsq8CG2jSNlNpI2ptRjHMJsXFto7gQQgno9MmXkktWW4bgK2oyAacOEnfHhRBFcjgZDIxIOVDTuAtM2FRRIrLyooH7aAHkpeD9YQ3FJDwwgQDg3CHQ6gjtaRGPVgkIDmv2+gcoZKWRKhvsuBtEtGsK2PviMBZ3cAhSSnHWyiMani4g8MxGxA3+3Sckh2yqqlXI/WhVbYSwSIsh5MI0RIJagcVhDXFxCnbWChMZsdFtpVIGVMoNc+jGzmDLb9CqW1/7lEiauJJgmo3ueSOMgUlJzqu1wYH6hj8AEHSdeA8owJpSBRcIqglyJoyxbUX/4U8GI3Fr6jYOJZHctnDDj3NFGgNDVzVMUEyS3/2iBSOx5CMzeAoGHDaipINlWoZ0l8fxfD6B4P3R+qQrrJRc2SEJDU6gqtC4msMuDAu6eK/t8u47Y7InQbz0APLtD6rW0Mw2xi+KLA1YBk4PpAqQLM03B6mQIZlXWZuEQlqYSxF0zIp3fBWynA6VmGn/OhTujwDlahPxmDOW2AvAMlrWHuw/vQ+aVzMPN1ROK815AH63fymPmqidgxG2ZNQTAch3vHEGp/ewFxx4NMZaw37KNBInPPqLD3e6g1ad58B+xaFl4wgb5PlJHpDbGwGGGpCAz1R7i1B1Qui5tx6S8b/2ljNjl8lfMqInaiCGLNEHjyr+K46IbQBwKkaWTtqyHiH/wMaq8cRzR+DgYZ0JMiyJ/Nw5+hfHaEhFdQIW0N4B1SYKw0IS2uGkZKkylVGZ7lUZpTITdlRAkZYY8Cb4LGHaX5JQnKHhfK7iaqR2ykTlN5WqzD37cP4faDCP/+y5A+XIe53UHhJC1jScFdv9jA9i1Bq0kjDmdMO8BCuxLrR/lPsnfEPCSIscMGzlMpuRQA/rQM+fMatE/vgevNQVrKQ3EkNC0ffn8AN5RgisGIEMZChGv3o4kLCIG4h4LKRb2iAwnxYHkIX1gzkmAoJDz6TFkhsdE4z48Q1ej7shHSYxZ9B5W6W3OI4v3A/zOGxt11qLc2kCL5DWoStt/pIZkK377MxIRiEKvH/2KY6xAW2qVYP8LpNV8GFqg82z20Nu7tHMxr8y+VZEzOK5g9o6D5jIH6nirQKVEZKcMnUUlmAGeCshqVe2aPBz1N+qIyVXFUElQaillHENThVBVYGiUyR4YU9xBoOiJPh+7VATtEpIUIwgjBLJWikyqimxxojgaaGrIeQSpJkJ6xoO5wkN3vYmQkxFAWsExaybe652x9XxDiEa4arZt4HtXS6c06/K+HuU5gob0J0QSPOBcWBBJCV8bx8QiHz0X4jffLUCwKRHJI1R+lIlENXmmvCRHQNCVKTFMrwCy9zi7TMqskHCo1I1tC3IpD00pwIxUrdR0VKiUTmo+RrjpKzq1I2pTmKgtYmRT3WqwS63WhJbvpq5NwnTPwad6LRROBJLf6Hei1HTT9OGq1GmTRXK1LkqPtsTI+hnoibEsCWRskJVrYW/zWxcdiEaIfUJ8SZJW2YXrRQioZoL/LhUrbIe5jE09pbfAew1wzhND4Wc51SEA+DRemgckLJiZfsDF2QcVSRGnkhRTKug4nIqGpwWq6eQshiM9FO2OZOJCm5S6WFThagFRHiO6ufhjGhzGQO4Mji734ZmE/joXbkbBs3D00h0g9hJRdg+TmUaaSch09Qd9NQovFszD0OdSiHnyxcgu+kt+JCnQ80FeBnbwfmrxAnzdARWcrve3s1HBwKGy1+iEE9JbrTusrHrovU6icL8i4MK/h2JSE01MuynWaOaLEKBqvpGl00UkLTc8w1xp+lnMdckZxUcXJJ20sPa5h4Z4qpGUNYUlBdbCJzhkN7tYQybM6hvsCbP35Grr6KLpsqLwuh0h9IuVcOKfg5deoZMuG6N0hYXYhiXgsjyqVhw3ZoDKUElzTR1KtoSkeXncdSmE0NH+Uf2SNyj3LgG2qUJQavIjmlazWvLbioUtv0vLiyCSqaFYjlC8oSDUkPPwJD5YieiEg3obMRO9Tr57VMDsVQ1Sh5VdqqFDS8w0SMqW+uETr26kjbhax/UADXV0hCZTm5X9JzDWES851SGizsyqe/lIMte8YWLmXokkqQBREaOoBElRbVUoqjFcsjI6GOPCpKnbtEmf81+Z/K8hJ1aqEp07ImKeEo1khSnkaTzLzSTjNFQlRQWndkhGS/MQNry1Z0m9GoZnja0WdyGoiYYlmgFQST50mUKiElMXJ/TSVgIkInhYiSriQDCpMAxmj9PmhO2lha8t7S2i5jQbw7W8ZuHDEhOGqqCUc+OJRrjglVNEaSF2DpGhQyy4e/PUKRvb6rR7eWWjMtYRLznVIEqIJ7QYN+SYwZ0qopXw0DRc1ElBEZeJKUYcdizC4x8Pw7gBJm47ejQewcI6IQOL1zQON1y0q4XwJRZJFsQTUyhLqlAKL8zLyEwrqEySJeRUuvXpzlORWSKD51aGjYMCi0jMmxtGgLpBcpgN4syS0mg7Fo9pWdKxCNXMkHn0iK6omJcFciJGBCAkqNVvreql1E8MlqBZpvQoBZus+5k0FMtWWjuoiH0VYCiXRBQu25HxsO+QhmVk7r8gw1xAuOTfQapOfyrvvvaThOyd1KruoTPM8BBUq53LAQtPEXXtcvO8mD9v7yFEi8WzAC0hQDRmhd4mgsnawTy8qmKE0tlwJUSyEaBR01EoSgpoEpSlDofmlOZqYViZGKUwXvQ2TZJOqAiWegCSTWOhjKfLhNKoQT1Slh5JQUyocKgcdO6S0JlFSc2GlPPRkgtYVzXicJrzMb1mTizBIVK1za+vQz6JZ8edPSfj6SyqmSja2JeIImkUUqX6uyxo6OwJ89sE6+roiUAV8OS8yzLsGl5zr0NHYan5HXI0sAp//roS5cRV2lQafij6dZNdZx0P3h7h9t2hOG7Apcb1+2wNJZnlZxatHDNSW6M36+EugaiQvqh2blPyWCjLKbgiNyjVxfqzQFCWdMBaVleJeNZJpmdZJ3Oph3/8g5FgStk0/07BOLq2SfEKUKV7qZLv+VAy6VIcsvcm4l6HH+Cb60jNI0TZtlJ7oZ+DMlILDryk4ciJArma21kmKhTD6ffRsc/HYrSRLc/UWEPG0AcNcS1ho65Aflkgcx2aBzrS434oE50mQSUx0CLcEE9Ebmw56lco6K5KxY0Dc37E2PwlqhkrFZ78Qg/YM2ekKLpGl1hJb8hBlbkBlrESLklypdf5MjI+S9B+FSl0/gkslZKEjg72f+xzM3p7W/IhCSoIin9Fk9N2i/wAxr2hpQ9UodofiuSf6oNVm0ZWRJ/93DNgvoitDGy3+JdC+aNLsp5eoNKb1Mg0qL10qKUP6oPU5rS/JSzxuFdAoCoIYSK1ezd0oRIZ5txFC+9Gf+hsccSK+UaeUJo5r2iuKQQeuuGvfIlOYYSulNegAz1OyKjVo4paV1lh1DALRNhmlKlD5uTrBjw9i1nwzQrEcoVKl5VOZq9D0ColKNL2tqTSQTDVKaoYnwyRrqBElRTsB24jB0G0aYjCtZGvQ9CR0Y/Vnw4xDUQ2oVhrnxl7D0aPPYnmlQPKxLj3QvBH0VofIGxGCrLskdhp8mkIRVzBpH7T2Be2XiGQrrtyKWzt82ififjWGuR5goQmEtzSgn1LGzDQwNQNMU1p78zA/Q7uLBCR6ULpSGhEJRgjwzYO4e9/tclG5rYr6e2oo3l2Da5ERxOJ0EsXa0HLfJRBfGYlb9sk4EpWX1VqNhOK3fpYpqolnOiuVElYm51C/eBaFie/h3Lmv4vzkBRKQj3q9ivzsHMpzi7QMMtKlNoJGqbT+CRE0KalNXGJfXBSvczRtSUaaSm+Lto1hrgdYaGvE6aAczgIrKzQUKEWVfnwoFigx0S4boOne8rGhNyHaI/MowTlaiNoWB9U7SWr7mq320lxKha54dnO1irwiPtWDtWIJ5VIRi2cv0DKbaBRKKM3Mo75cQP7kJNxXpzFYMDBASbAx/SrGJ19DtVpGbWIRBfq8NLVA1aj41V/CnCQ00VtVp0lio21cyl9iXxTFK5XOTRlZW7Qosjofw1xrWGgCOhjFBUXDlJDM2EgmU0gl060hKYZEqvVqJSwYMRm6SCRv8wAW1Zxoj6wqB6jaPpoVBbUzJpZJCDhnwSVpVAwf5ShA3aeFivNvV1h2neQlRDZ9/BSWX3wNfq2B5fMTGH/qOSweOYGF7x3D0FSAffV9OBg8ggPKXcgaNRQW5qAcmYFxoYDIc1uJ7rLQ95u0jUnbRDK2uh9e3x+0LxI0xBNJ2AlKhuLJrMskSoZ5t2GhrUMHpaKZyCXvpwP1M1Djv9saFPu3EGq/0npNJx5CwupZm+Ht4asRlrs9hJ8uwf3sCrw7a61WbkUidMQtHPdVUP21PBqfKGL5ZopwrXNwazNfgsgyoPoaul4uY3TrXtjxJLoP7sbALXvRXJnH0/XXsBJWaREh7CiN4fitOHTHx5F2LfSZWfRsHYEx2kNpkErdy5mTRovHpDqzBxHLru6H9UGyfhMN+ddQlD6J/oxo9YMmvoKAGebdhIW2AUlSEUsNonvkdgxsuxOD2+/A4I67kcodQqxjD+LpEUpn6Z/oAJYdCea4RmWehvklKi0XZXQUFWQTgE3xTFpRUSzKKM/KsE+S5WK08CuEp1qxiFJ+EWrWxsiyhuD5cTgzeRjdXei65RY8vO1uKhdTrScMCs0axoqLVM6unrlfNhwEXTY6unO0DVfeCHExVbeySPXsw/Due2h/3I6hnXeha/AWZLr2ob97G1RZnBVkmOsHFtoGxA0V4iqhZaco+aRhx1IwrQRUIwFFj1GCsyDL6tsXmjgvJoWoHKgiSnq0nAhBzoM72qTviNAcdhDSeNsOoed8lGh8NUHZ6gq/lWQmg+yOUThbMpheXoA+VUHw8hRKz5yDda6Cm9VBJCSztS3ivpCg6aFaKiN0fPhDKaA/BU2c9X8bSIoKzYjDon0g9oVliyuqCehmApYZa0mPYa4nWGhXIKIUE4qrij8l4kKir5DQDtWgUdmZykbQRz14OxzE4hSatpLk+jwkO0IkRBd1BxtoiM5L5MsbM0FC694+Cn17N5Z7VfhUu+riea3jc6i9Og215CKgdRZtrvkGrUNcgUoCkyihKbkk5LRF6/UTXNHYsA/EfGKfMMz1CgvtZ4w4/H0RiKiMFOfhDXGbQ4x2PO15m6RGgafVd4AIVEm79XJFwpASXODDiFlI3bcLxW1x2F1p9KU64MgBZovLKDlVFP068skQja0xZLJZSIaKiErPyPvpBc0w1zsstJ8x4mkA0XlKuQ5cXASWlgFyDp4/ThUpjRctW0wvAeengbnSqgCvhE8paWl+Hsef+j6VwwYUWydRqug10rgpM0RloISlQgFnC7NoZC0M7d8P3/NQy2poLBQRLJbXlsQw7QcL7SdFRCix19aHKyBplMBUGYMnU0hTRFPQAVVLo7ML2DYIUKhC3emiUi6FTpLSQD6G7KwG1b18ThMn4i2oSOQl9D0+j4FjVeRnFvGcPIvTO4DRrj5s7eonuQ1jxOxszSPJEtIdWThLRTSWK5CvdA5tfbv4/BizCXmLQ/IGY8NB3GrZgmrEkBJRo1aBJ1JOI0C5FrYSl7jBtHUqSrjhcnuRxsskE72uYqZwO16Y/R0cn/8lFMrp1iNDeVrOC7O/hG8v/EscrX4IRiitPmZ0BZmE4ikBTYGViWNycQbFfhPqvaNI3bsL1p5BzO6Lw0uoMFUd6koD7tl5uPRlorFIreJDd2j+N5/NF+svrnVQ6SsadyxQiFuh7StVHNQqRRRLVMLSIPpnUUiGirhpj2GuQ7g9NHFs0gEtboCtN1ScmhhAdVlDbWwKtWNH0Xj1FQTlU8CrFxDNnke0OI/mdBOFWRXLx3QsnNVQWlaRX1Qxf3a1/TLx6NO65EI1QiPt4WzyPhwtfJxGUIpKHUbMrrSeDniWJDdZvxNpeQkHcRjmpGh6g2ak9ZFIICHJox6z0fvQ+6HGYi3BisuLiqGhEDSg7+mDPZKDkYqTJAOUVgqQqg68WhNh3YUuWvAQTf6ML9G8EYyBLPRO8QxnRLJVkD/1bXgz86heVDB3Qsfyyzry0xrK4naSczLqJ8lslSkES2fgvHoK9QsX4RSriNwGUtpzSMQ9qLSNDHOtEe2h3dhCI2mIh6yrFRn5BQWLUwouTALlk/Oovfo8Gs88Cf/wc0j3jAFPHwHm5+GseCjNqajNaxj/iomZV3QUhQDmVRovIUYxZ2MACtUQzYyHlb4dKHj96NTPY2vmWSSTjVZnJZP590IPJGzTj2BbeBTmCRsQd99TWnqz0DQSmrjzS9U0mOkkgpSJOL3qmk4pso7S5Dwy5yn2kbhqlRoMSmOdkgV3sYSw5iLYSSXvUBaaeLaJVlKmcnj8H7+D/NMrKJzUMHOBBPeMjUZeQ8NR4J/NQ3r2FKTiWajeMZS+9QKaY+cpvRYh+SS6+RmgGbSSm0h4msZiY64dN7zQxP1epRUJp58z8fK3bEydUDHQk0d8fg7p3ApiiRDKogX7PQ0gaSJsaojsAMpWH6pJzjlHYlFIMHkFjTEZZSrVUgYpZ11oQkj0pkqhK7PHQ0diAgn1JRLCGFSaRtzvGlcb6E8cR6/2GhKlOmJjVHOKh9Rp3UQrFgEJrBGz0HX33VDi8VayEsiyjBgJTtySIe6kqK+U0Tg/j90FCymY8JtOK+gptoHpuIv0z9+K2EAnyU/YkhBCo5J66q+eRPTSMpK5AMn3N2h5JGSaRN9CK0efe7MxoCHBvsuBlLcQH3KQvmkKRnUChb/UcfpZSnVVBUoaSGdo34jFs9eYa4AQ2lphdINBMhEym5tQ8MKfJzH5l3FkVnRs/wAdiXTweiQ21VFhDdOEMR/lP2+QTFwoEellWoFM5aWaopKNBlFeRmaEMP7jR7HkSYiKtMiCTwnqFJLG48jFTiBJ84h+AZZJgDHjOXSnnoSljKNOoWddBvlGiKlSgPkyiWV+BUf/+b/FC//uT3H6+88iXyiQOFZTlhv4OP/kszjzxA/gJICx5Tmc2EbbN5pGMp5cXdgV0HMkxU4V3riKxtdiSD5cQzAlwZ8lMYv237b5UEaDVrd+6nAAbdSnbY7gi57dqU7v3B3CtCWMfc/A92lfth7aF0JflzrDvIvcmAmNDrYglPD8f46jctKAUqaEYURQewO4JKzqhQbqRgK17BZUu3ahNLgH4cBt8GMJGD1lJPuLJDGqCckpVd2FU6O0VZLhkI1S5o8SWj0eYHnUgbO7DqvHg0bTSlKAetCB2fK9CBwfCauGuNmARclPSwErVoDasgSDPJaUPBheDZHXhFYtwiZZqedOozE5jjyVoZnuHlw4fhTuyTkMVmxsQRapgMrPDhW+LvovqKJcLKFfTaEie5AT9BdMPHUuIt1aQpv4ynfRWJqB3BkAAyTsTIh4lwO730UtMYR8x/0wtt6CSB1BVetFZR5wx6rQJLkldK0/QBQP4S/ICMboe4cjJGkZqnjGk2HeRW7ckpOEE9J/RK9G0bQKxaGD0QpRtehgTW6DsecOWDfdC2vHbTC27YffPwCtYwesrIue4VkMjiwgmY2QGfKRHvWQowSjd4Qo1iLEA/EUJf2P0lkt4WNlRxPRkAudSlTRTv+KM4zxyqM4OvM/oemnkIlPwVYoxhE0K0rzChLLCqnRxER6GM/13YbTuZswltuDKbtbtPWN9MRJ+KUSmh0dkCmp6bRclWo9vS8LvzuGgIYwa6Ohk2joS3tCG8sdMpSOOFSdLLwmNPHsanPma+gdncSWu13k9vvo7ArQvcNFpi+An96PeveH0bFjP8yOLVB7tiA0cnC1HMLOLvjyBTguiZDibrgiUxqV0Pe+5mrpKW4WZph3kRtaaGIITAmlUyrqeRme5lNyitDYdw+6H/0oug7diVTfCKyOLgR08GsJ0WLsEnKpcfR1zyFLiSbT7aN7iASw24ecDTBDZZuxoK8uXvQJQAmtusOB0UEHOJWY4qpm0T+E8doncWTqEVTMGLZlDiOtzyIkAbolBbFjJmzPwsX0KH4wcA8eH34E57oP4Wz3zZjP9sGTZSQKi+gZew2LroOB22+H1pWl75Lhb83C6baojEwhsrTWrRpyqY6Up6O8Jw01aUMRjyi0oHJYUmBp38T2/ZPYdjMJrd9HBwktmaFSlBJe0zgAN/1+dPTmaBsyiHXlENH+cDtpPcwMGkeeQHOaZJZXWyWp3RPg4M/VWv0LrIVUhnnXuHHPoVFAERs+urNJacbFiuLDKQYwL/hw3QSVhrFWaxWB77/edr9INdWSj6WpECuTCiqV1R6eWl0v0fIUjcpEi5Zapffi6SL6kY5rxD2ZhKLAbirIhgoGKLoMqpTsohn4SgUmLTcV0eeOCntOx2hBxkW1F8dGbsHcyB6Yogdf0VeApKM/3sT0lt34yq6PohiqsP7xW2icPw+zJ4Peg7vQ1dWFbDYLSzfgOy7q83lUJ1dQDx2YVKKKCwhvxjAMSnc0nkrciLbFp6E8L2P2pIz8FE0Qha39sD6I5zlVVYMtxxE+Q9t83EDlqAbHi9Bznw9DPL7FNmOuETem0AQkISMG2IcCpAcjZEk4FsnF9qpQWj39vgk62ldOVnHuv0U4/H9n8LUv2KiLHpouswfFhQJjWUPq75MI/kO2NUh/kUXqL0/gtq/8G/xe8RP4rcd/B0P/car1WfifKFU9riEqFfG1jvfDGmngQ71PYr81AUmLobdcxyMDL+G+kfNAtgfPjn4ApmJg7rXXUF5chkES20g6nYY5kMFMro5vlY+hRlJ7K7wQmFsG/uFzCTz1+xrmH6f9EJHproBo10PcTNJBabXnplpLjGLfMsy14MYVGiHRAXzw1iZ2PdaEfItoNVac4wrpwL70ESl6Uhc9Qi0tRCgdBZVZax9s4PUWwuhFBKKYJSFjKKuDSSnNpBIVZQyVFrBVq6FbD5EIZcRFQqPS8EKUwGBvDXsHz+L24W/j3sGvQParuK3/WYxmX8Y9A1/GXbu+hee698OXNQRj44gWl36sxBNPA+SGBnHzow/j1o9+EMlUuvXUwiURm0sfRSGVvUUFbpXKV9HhyxVcFioyKh0mCjsdpD5cwpZHaujsoAWJq5wMc424oYUmDr5sNsTW2x3s+2QDN/8vEoZ3WdBJPuK8+UbEHfqi6RzRIa/lUok4oyOoi/Grn4tGLEpOhAottExCLAchKuIOfTdCc21oUPnWpOlFN3FOJYAnzrPRvCWZPldCWHENxc6tWDD6MFWUMDbtY2oxjkjWcdrrx9iSjPGLMibyncjHe9CkUhTLKwiLBdQadZRKpTcMDcdBpGlQqNys1+sol8pvnKZYgi9qTOE5GgJfQmHBQNJTodEIcUEhrDVWm+veUEcK38sxCTf9YoBbf7mJAz/nYGBPAJ0vBDDXmBv7SQFCnCM34yEyAyHS203UlFugp3ZC1qkepejikCiKk2Nwjx5DePoMzKVlWHWSgCth9OEGTHE/Gh3I+YqEMzOUyHIkNEpdXp0EIG6QHfFgbPdQ0UIE4h43LYI/7NI4H0XLR1hXWgL0DSp9qWycy4ziua674UtN5AtxXCjtxUhniKlaJ2xnAVMr3XipeAdCOYP7x74JmSQpk2X9pSVUT55E4+zZ14f6mTOonz79hnFvHM6QhI4imykgEQvhNEmYZ0xER3QydASJxK6QxEWLIZ6hQTUMeK5LonShag0cGPkmhnY4yOaovBbPoF462DLMu4K4KMAdDa9D/nHCJF5Z/DSkzochqQl4hRVUJ8aw+OKzwHefQszxoSomPJKgn/Xw8P9RRKonbF3BnFgCnjwjYWRrhDOPW1CfsClxkRQ+WkPfPgdnnjFgfCOOUPRv+Wgdwzc7OPmyhMSXMiiR/HzbRx8J7FxyCP/15n8GIxNCdwuUCGv4zI4n8I2Z++A1I8w0k7hAaS3jVfEHj/8eZJOkrAXQnCYiWo4kbvAV/yd5tvoatilZBhJCEq5k0HvRTR6lybBK72mzu34jwr4HQwz0UpqkUvO1Fy3M/ZWNIE8yCxoIVRnNnXthPvQAMtu3o6mpreQZs2q4Tf1dpMUjXCKZ8b8i5hrDHQ2vI45s2hPicSNRVhYLBUy8eBjn/uI/YOlf/Euk/+bLSPmghGJRaSlBTocY/vUmbEomrfut6GAWPZpbdPCnLCBtyohTahKtZ4jHG0Xflek4kFAlxKEgRbEwbUvIWDoS9HOuQ0KqQ0a13MDg1HMw3DLGghFUlF7sT04hEX8Sjwx/DQUzjvPKAaiUHlONOdhU3sqdEeK3a+g4lEIy3oGu9yXRcUcKma4sslszyH04ga77k0jFOpDZlkbnPSlk96eRQCfS6IIKEa1Wt8Ek2e69tQZ3j9vqbi+KRIfEOuJnTkH5wz/E+L/+fZz//OdRnJ6mv4QkXG014bb2H8NcB7DQhJBoL1SKwJnn6hj762+g8LnPIfzjP4H98nHE0x2QkhlI9SoqZh32ozUc/N8KuOlQc7XHo7VzaO8E0RO5S6Wqs88j2QHJ6mQrnXkkxJqrUMISE61OK8g1i3hk7iUYlg25l8S5w0XsoRpSny2g86MldH2ihNRvUhn5sTqSByLE7qXXX6uh89NldP0SpcoH6q27/APx9PsGxD8Gi+T78Geq2PW/1iDtr9B+WUGjVkaYSCHt+ug9/DySf/onKPzbf4fj39YxOaG0elhv3aPCYmOuMTe20EhmM7MaXvqajef/LIXZv4lDO1GFtlCCUSVhNelIpVKuIKkIHvkAsr/wHgw+0I3ebT5sQzxrcHWQSFx6NkDsFheSnMRDp7+JbTPPo+xJmAhHsLyUw5mFvSi7OXTX5nHo4g+xb/rF1vOesYzoQ1OCN6mj+ZwJZ4VeL+povGSheUKFWwK8BQ3+itJ6NMuhZXoFFVFTajnyjUqjfxC0UamOAFtubWLgF3dA/uQ/Qemm26gcDyBVS9BqNRi1JvS5Korf1HHu/03i5f+ewOmXddQatACWGnMNuWEvCoj2z1ZKBsaeMDH9pInKSR3SigbdpwPd9+AmE/CGh4B9e4A9+2C8536kt6royc2iIzb3xmRGyyo1JEzlJXRQCbgiWsw4r1G5Rp/tdtHRH2BlWoV8ymiVtfJ2D+lBH8uzCrTXjNYjT/ouD1madvGiiZ7FAixKhCKaebKNRT+BC6WdsAoODky/hFsuPoNsfQH1PRGSmgx1nsR1RkNAr8ZBD35FQvNFHT6tg1+XEJQV6Gl6pXX286sPonsnxcrR997ioGuLT+UqqW2D3UwrQjN9K4q9H4U9NASjMw0/ZpDYaNMdl/ZTiLBK8lzUUJunlFaUEdC2dW8Vd+iuLYRh3kVu6NY2IknCclFF8QUDuKBR4pIgZSX4fVRebhsFbj0E6bEPwfjVTyP18Y9BJblJBk17qVhzFTBp0R0DIcp31eHGddw0fxI/d/arODj2IhbPdUOfnMcdYz/AvZNPoq85jsawgeQ+SolyBG+RVqlMm0VSUhM+1B4XsrgYUJMQ5ukzOYBKy5fLJLEK2VOkKG31ey+J2D4SlyTJsDs7MPq+e5H7p5+B8alPInjPvXC3bkU42I2wL4JM4tOWFFRfMjBBQ6uEZ5hrxI0pNDpgpShCOlaDqXr0nkaIA3O7ivpjh5D43L/C9t//fez5yEfQPzSyNtPPGFoFcYI9N0JpzqRBNpANqvjg4vfwr175Y/zzF/8c988+jRiZqzRiwHykieRJE7F7G0j8RhHm++otUYWB6FtUhkwh0bjVQfo3yzA+WEb+CySzkErl/Q0YI6LlDbET1r77SoQRzeZDV1QM3Xw7BqgEtX73t9D87K8iui2EZwXwA1r3ZAhj8CqcUGSYd8CNKTRCnA/v6gRqZojxpo9mTxP3/HYZw3uzSKaSkKkmDTzvR89yvosMU8xRMlS6HnKw/CEXkzfHcdFMYS6tIPaoiz2/0kAuTRYpSNCqaks2aopK5ViEEpWZ1RcpevcC6i4fQS2C4Yh+OdcW/g4Q/X2KPjplinvJXBr3fbSO0X9aQ2N/E7VEgEyvqEfXJmaYa8ANKzSBuH8Mw0Hr9gu7IWF+PqISToIs7sAXUHK7Fh3rkn4QoxI4Nxxi6G4Hibua6LJUdCzrsAoKojkdzjfjCBdk1J8xUX/eWg2ZtzWg1JTWPWRadwCFBNd8MYbS3yQQVmU44zoaJyy4kyqiiqi7177w7bK+L6hcFy3mGlTWFk/TshZUpBIh4v3Nn3yZDHMVuaGFJtLEzrtcjNzhIaCDv1r60TF7raGqETaVwYmOAEbOR0yRYIZSq+nuVicskdxqKlsy6WeScBTK8E0Vcz19mNvai6piI2ookE0JknjoQfymaX4qIGlWEvVVCp6NaQl6j4+eOx309Io7dmkkS425RtzYQqPjb8duD6P3NRE76CKZboWP6wYh12hDCSelKUGmQigkOetWF9pBB8ZeB9qQ10pjtcDG93Lb8b0t2zCrpmhbQmijbqs/AP0ATbfFg94fQOug5azdT/vTIpwlnmO1+4G+9zoYpCSZSYiRrY8Z5ppwYwttLUl073Kx930NDG2hMvQ6vkoniRP5lM6E6PQtDsw76iQ5j+TkQ035cLPAM24ah70MSiRnPd2kTaTSM+nDvL8ObcSFashQNCpqKf29rYsCl0HsOtFg5fAHfOx9wEdfN5nsyi0NMczPnBtbaAI6DjNUkvWKTsav870RjFFZOQ94SxGKn0+i/GcZNH4QR/2ZGOpHTXR6Ffx+8+/wJ8HncXN+FpWTCdSfiqP8j3FU/iKN6jfiKB5XUJ4MEJZ/inNol2C4v45M3GWZMdcFLDRCBJXrqNK8LHIugtpNyas/gn37aoON4jyascODsZXi0qKCnhkd2ssmZEeCtZvKTSpLV1ujlWBQ+Rnf48AeCFfT3lXYaJmsuBn2HXNjwEK7ApIsQ75Es9XXCikpbpyVoNsK9EEqNZUIep8PpdtttdcWztP4JimmrMCrSa1OlJV0BIukJlrZkGMhzR9CMUlCb3ezxBXNtfbQxKvYJ2/gKqQ8hrlasNA2EEUhPKeK0spF5BfGaZhAcfkinNoinOo83EYBQUCJ5xKRRDwDqctXP62Ic+wOfWUQRYhEp+gFpfUoU1CSoVDSkru8Vsuy3pQKf0qG1hVAH/ERrkhonqVxLiW1bTQdpbswoJJ1mcZRkotWAx50nQQnHrLfKCbaCPGYlNuso1GeRX5psrUvVhYnUC3NoV6eo/0yBY8mYp8x1xMstA1EoY9K+TyWpr6L+YmvY27861gY/wYahWfRyD+FavEEmk7hkkJTSWa2aCvoKhstjHQ0/B7UIwXuggRnTELjomjfTIF5p9tqNNI5acA7qSNcpLJyhErKgw3IeQneyxqa4wrCOQPabkp0sQjuJI07RdNSSeqQJFOpELZoEu9NQnOogq1XZ1CcfwKz579K++MbmLvwNZTmnkCj+EMUFp5CpRm2xMcw1wsstDXElUMvaGKp/DSU6AuIq3/9Y0PdeZoO4vlLphLRZHWs1aDaG93wTlGUTsQ7P4UVPQnHDhBWyTdNIPtoGfE763B+YKH2P2IkNFqDhNgOspGQDK1EeIHk9bc2lv+rBvX+ChL3VqAiQDBNCS0RYV71ke0kqcVXv+t1aBF1SnCN5ino0Y/vhy77Cxju+iHyVQlueJUNzjDvABaagPZCvgY8f55KMPF89WVu3ZCUEMsVCRdmVZpobaSA5JGwI2yhEnBmidLNJTpP+WlwSSpNN4Zs3yEkf/4BqF0xKhXJZrS+EqVBryaes1zVZ0TfGS7KaJw0UfkeCW567elzKkfDkgS9qdJscusBdpnWVaEEZr/Hg9JF8wsnrVuYli36PDhPy5qnsta4zEPsIplNF0PMLgM10TECe425DmChrSFunBfHZV830N0FdGV/fOjrIXFRmhHl2BsOYJKBRo5LkCwiEmOrQcZ3iKQFqHpxSow70NE9iL4HHoDcnYNLwmz+UMfyf0khLGuIP+wg+U/qMG53W+fSwpqEoEq/1iTJ+Q4H8U9WkPxEDQ7JKf+VOKrPmPDqtA1qgFsebCApngldl9kaLsnRpm3p6o6Q67j0vujqiNDTF8CjaCs6T2ehMdcDLDRCPH9erGiYWs6iVO+nUmoA5XqilVRcGooVYKXajWJ9ACuNfiw3OuDRQS+qu3XEEwamDmwnGfr1SLQL+dOji+avNfjBCMliF8LKBfquMho7RlHPdqM54aH2vAnnhAGtP4B1exP2neJGWxdan9/qlCV+hwf7Lg/GzU2YB1w4R/XWc5/OWQ2hHiF+j4tte2gacYPt+nkwsT30tlzXUWp2oEjbmq/RvnD6KIUprX1Rb1goVLtWx7v9mK900D4zELDUmOuAG7vXJzoAq3UJp+ZyODyxCxeWdyNUdtIBPIKpQhLjS3GML3djbKkbTngQFWcbCW2YhJYjySnIWCXolHTWu7sUpWpnApiZkFGfUREaEdQd3ls38EjpTt3mIznkYWWZJjhnI0xuRXzPzcgMdKMy/hLc0hyCbAckw4RcrkAqVxFRQpNbJ/RpBWgQt2iY21woHT4UlVbGl+FXyVdLKprfteCVZXh2CGsvyewXmugdCFrd8rWg16av4cxsH16e2YLJyl4UmjtQaIxgqTqIk3MaLuY7qQzdQuN2oeZuR4k+W6x10/sEZCrHc0nRKOXa8hjmXYZ7faJj/uR5HX/54mN4eukjeN9eBbmUQmKS8cq0j1dmPVSpjOs2JDy6x0DaBGpOhHNzIZ49U8J/fOzf4NYtK0hatKz1vUg+Esnuqa+bODuuInfIw9ZbHJx/0YD6xURLXsoHaxi5q4lTL+mwPp+AawDGQw303dvA2TM2vKe2IH3nL9A0Q0iVj+KZL72E/uFO6KMDcPQBNI4vovH//ReYotVGKvmkOEUs2hbRBlrm05VW71D1JywE83rrnFlwUUEg0zifpj3kYPixBu6lEhUbz/XRes+Usvijr34Mx7ybcWA4g9GsDIfmmS9F+MYFSoVehO1ZA4d6FQymV2PdRF7Ba9Nl3Dv4OP7Ph/5mtXZnmGuA6PXphk9oHoZhpQ5BMfvw0rklPD3m4ORihJGsig/vN/HgTgM7OhR8/7yLp89WsEghZKjLwgf2hzjQ8Tg6YvXW+bPXIbGJZokGtwZI9IWYLkhoKgEaKyq0M5dIaGNqS3IRpSWp08BC4xFsf/g3kdtzAAnDgVydwtSpWSTTNpRMErH+bYjtvg3e/v2oLhWgzE0jWC4gaIRQmgaaP7TgHLYQLdIXVSVEcyQzEuxsjBLZxwIc+oiL3dspxb35zxjtiyCyUfb3Y8vAME4tKnjiTA3nFxx0pOL42CEDj+w2MBAHxhYa+NqxAl6erKMnqeCu0RD3j05gJPEqJzTmmsEJjVLNfGE7npz+EI6V7kLOqlEZ1YBpxhGEGhqeCp8MZEoeLDOE69VhqBo0PUnzVfHLo7+HrV1LsCko/diBTD6pORLyZYmSUYjjxw0sfTuHqhPAuG0F2+9yMfGqDvnECJAcgXXzMLr2DKPh5nCsWoZLyasDAbqcEuTiEgxLR1lJoGCmUNZIjE0PB2n9dNFD+swkvItTUKaX4U4twGlE8GI2mnH6rq4y9tzhYXCnh+xQhHgmpGRH6eoS67tS68IXnvsUls19lOhIhpEDVVWRSXVgOk8VLM2W0GmZaNC2VVqzxWl9VkoV7M0+gV+55e9bV1UZ5logEhoLjYT2jxOP4Ympu+A6DahyhWQWg22asAwFYeCjWC4hlC0okoNI9KqrxpFSPPyz3f8C23KXEdrauamQxjcdYJoST2kyjkIljlo8BbW7B+XKEKxwBFqiF1pXF2LZTshUGh65eBavLU5joV6E2nAwVGkiYdooxCzkNbnVH8KAkcD79xyCruvwikX4S8sIFvMoTI5TqpuEZU3ASi8i1VvHwJYAPR0hyYlWSKznpX7jJLR8owtffPlX8f3F7ahFCnSZkhyJLdRTyIpmvWmjiiTkukvSl+pwJB2GYsIIPTww/CR+9dBfs9CYawaXnCQdcUVvqdqJgmjRtXYCSWsKsj+HtF5DSnegBHno3gTVYxdhqZMktWlIwRJ6TB83d/0QGSrlWj2HXwbhNU0DOjIR+kcc9AwpSGcyMI1udPX0onPQRpzKW51EJe73EI9fxaCRCCPU6WdHyKeokqBSkFIJWLEYOvQYCc2mcleHrTaQjDWQ6WoiM1RHasRF364Ctuy6iB17V7Bla0ifR8JXlxbZBtzQxEx5Kxaq4hLtDGxtEiam4Luz6Lc8kngJrjsB3z+HjD4NWVkkmU2j02xid9c8dnaeesvvYJifFVxykm3mqJSap4NYUZPY0XUERoxGB8D44ha8NjuKhZqKA7kF7B04gxiJQ6StmeU0jk3fhLtGnkdnmoS2nnzeDsJw6wN9T54qt4VyL0ruDjSVUTSiLFSrq9U7uiyrcNwIy0UHyQRJTRcXLGhG0b2dW0OzOIaUVkCntUCCmYCtX1y9618sWyDW6SdYr5oXx7HJQ1BRxZbcBG1bvlVmFvIaDk/cjoZvoTd5Adtz46vNLRHTi8DZhZ1IxGTctoWEJm7fYJhrAJecxOodD8IAEqUYOnrFxbu1cetdCYuPZdF07NqeWv9MTP9OOx9ZvZdNNI29ug5rX976LtGbElWcrYfTxWhx177oSU9fuwgRyatrKOYWM7Re38lvkxYWrrWmIXrFEoNArE64mvFa37H6Wevt6qqKHUTv5bXpGeZawEJbR1hBsHFPrI/byPrnl5r+Z4BYvDgHJwaBuN9NDJdatavGxoVv3L7LjResf/bm8QzzLiKEtvpn90ZHHIhvPhjXx20c1nnz+58RwhMK/YbEOToxiJ9/pjITXGp7BZcbL7jceIZ5l2GhXe9sFAlLg2GuCAuNYZi2gYXGMEzbwEJjGKZtYKExDNM2sNAYhmkbWGgMw7QNLDSGYdoGFhrDMG2DFL3Ijz4xDLP5yTyShjT/73MsNIZhNj27/kiGdPSOLSw0hmE2PQ+cq0M6bG9noTEMs+n5gFmB9FwHC41hmM3Po1GFr3IyDNM+sNAYhmkbWGgMw7QNLDSGYdoGFhrDMG0DC41hmLaBhcYwTNvAQmMYpm1goTEM0zaw0BiGaRtYaAzDtA0sNIZh2gYWGsMwbQMLjWGYtoGFxjBM28BCYximbWChMQzTNrDQGIZpG1hoDMO0DSw0hmHaBhYawzBtAwuNYZi2gYXGMEzbwEJjGKZtYKExDNM2sNAYhmkbWGgMw7QNLDSGYdoGFhrDMG0DC41hmLaBhcYwTNvAQmMYpm1goTEM0zaw0BiGaRtYaAzDtA0sNIZh2gYWGsMwbQMLjWGYtoGFxjDMpidce2WhMQyz6alGUeuVhcYwzKZnTlrNaCw0hmE2PRciFhrDMG3CKwharyw0hmE2NeUowg/htX5moTEMs6n5prQqM4Es7MYwDLMZEf76u8hdewf8/114Nn9IEkRbAAAAAElFTkSuQmCC;" vertex="1" parent="1">
          <mxGeometry x="1693.63" y="1760" width="71.97" height="50" as="geometry" />
        </mxCell>
        <mxCell id="9gKRPX79BNtoWNbofs5v-205" value="" style="shape=image;verticalLabelPosition=bottom;labelBackgroundColor=default;verticalAlign=top;aspect=fixed;imageAspect=0;image=data:image/png,iVBORw0KGgoAAAANSUhEUgAAAKwAAACECAIAAACCrFfUAAAAAXNSR0IArs4c6QAAAARnQU1BAACxjwv8YQUAAAAJcEhZcwAAEnQAABJ0Ad5mH3gAAAASdEVYdFNvZnR3YXJlAEdyZWVuc2hvdF5VCAUAABSISURBVHhe7Z15mBxlncfTMz09M909XX3fV3VVoQESIwEEshBBEJUnIQFcwi6yiLsIIYvgAayQdRFRQDkEVzmFcBMwAkIAQYi42ccQjiBIDoiENel+6+iuu+bf/b3Vc2RqeiZzp7q7nufzzDPdXV1dVe+3fsd7/GpeJUM7tDmOCBwcEYxDetQ7LYojgjGI0ZUgU4m3hRQcETSCoNGCEruigE4i8ctW10G7iiBB47vc8mYdsAF5mr8oVftlBJ1CVlI0xrJNa9GWIsjRaD6F5pcqERqT3O9eh/aO0NyqrLyxT3nZWylRWC6OJWhBChR3Xp5fk0EpshKmsEkAHUDzw98IjY4glY2+/v55ytO+cifT8mYAaEcRlL0Mf25W2UToOz3iujj75SK4gHI3U/ExlV5aeTFgVDv7jXnKbx0RtDBxGpVK1cvihtSp7/WoW3rlxwnheyluVV66L2yUu/oNF3wkP0Y4Imhpggx7fF5+nujXXGD5Dd6tvu1VXunTK56Bd9gu6d6wI4KWBowBTfHnZ8ES1Fvdgo480gNhHDaG6ErUDBcse2gh5kQEEF3bMMCGGDBfkjaEDOS2KAAwam7llQB3ZhbNL6IChe0BxI+QKVh20hLMiQjsefnq7cpQ6pYeiwIGMOYZcof6nr96YxItJsvzmHIX05Lp4uyLAAzvUSX0mZLtdACmnqDZFUXtL93W5h8CdCB16P/Xpb3VI60n+Msz+EQKo3bV5MyyCNJ02cfwF2T5NVl0tJ10ADYgRaOlBeWFPoPttLa9BblT39Mrvxqs3pRGXyIrpOkdLDtsZmZfBG6mdlNUejLMn5+rBOwRHEATJmh2aV66P9ivNogKAUNwax/0Qr4gPUCIPwtX/yPB/1uGPb2AjilV8uYeLPtsZmZZBHCxorT8aEDb1Vu7MY4zLjuE2RASLi7WbgqDtR9ocqnDqLohAhgSgbrNW7s1yZ5RgKChHMBdSZheBo8stFxYMJsiAAXEaHZZUdnk61c65fUE7pU76PcQNCFB134QNfgus+07DNShvuVX/ofQdnqHRCA9QaDjSKxaCB1a674fzWyKIA43EF29LqVt74F7Tt3sRV8gcRscxGuKFcBU1ybll0LS8+HqzxLcOVm0oIByJFpACpcmh0XwawLHgOHWVwAwmyKI0WUPLT9LGDxOxLWd3cIP0viygkW1bDmXQLayuMiekEefK6JDS6hkDiDBUYVodHRBeY0watgpiLeEcPO3gQKAWRMB3HNpGq6y9k5vv17viHXLzwXxqB0YWMvGc0yILgcYAPwCTljgUOFNkGaW4s7O6h96+g2XeH2o4mdGfKt1mTURwA1HUvzFOX1PV93A9msufWcPOpQcMX5vK8AkeGmIXQzkrv0wVO5xRDBNgjRiSOmpqMENZ+EG6uQuyCHanKlh2d4OgDqDDHdWQXnVX1sbdkQwbUAEiwr6J95+dTjvAncrPhyDEAzbYcv2NiFFl3109coU/7WsI4LpAbdUkeLPyfQrHUO5OEZ1adt97JK8fUUAxHAogxgzYLR8NBZg2Jp5mHF2RABm4EiydltsuPnrGPMM0c2fm67kKFtfNWj+yTgsdBiFs4yDm/VMg1kRQdnPcF/JKZsJqwhMaj+NgUTwOP2oLzYlYZo/P8OdkcPR7ljGA1JNEL1dE85ZEAFciyAtXJAykMfS/HXkTQR3eq7sbQmPaw6OSPcGpYdC7Cl5nP1CY8MVGPwUvwRl5CkIhyFdGv7ITsyCCCA5nE9Vr49a2n4Io9ItXJRsJRHUbonq+7qVl31oYalCMMOuBBTgZ8odDPo8yV2YZ1cW8SQl++lg5kVQ7mW4FXn5uca+AKO5ajdGKpOKvGyLKYLq2qS23QvJsPKSHx1udoSAs/Mx4CnY04vS/RF1q7f2o7A9FQDMggg8TPU7SW1nr7Xt90N+hmCXF8pwmUZ9vckwRcCvyShb/Djs5Tulxwj2yAJaUIIkU7w9orzq1/d6lM19/NdTePzM8nV7MNMiMF2geHvIEMebqaG9761ekWqF2Vpw/D0M9095+ZUAPjXQgdwp/SIo3hpWXu0zWNxbakidtZ/ETE8x6uv2YEZFANEvQaPjSfm35hUZG4PvEn8Zxhel2UdoQAR+hj25KK0f0/2p2/zcsmwlYF+zN6MiSNBlFyN8L6O+MzwwPxbKc350RAm7ySbVATS/mfiVfXgJs3hn0HKCA+iu6nVJbAYi7SQCaV0YL+GwXItRqNu8/OVZCCCaNTwM0eVOpgy+4Ny8tCGk/73RKSsd2kc+dGQB9yPZ2PENiiCCo/rpUwnQkCntP14wFvo+j/RQpNxlztwatZ9JgS3tXCopzIALQIeW+NUZ+WFC3eLVK10NV7AYcoe204/mF/HkSoiWLPuxDQMiQMcW+W+kq5cmhTVJ4ZKp8u/J2tVx/cPBseNxwRfoL73CJSlhdcq6n4mzJlm9LMGvyuJZQHPQawt3c4RGS4vC6oR0Z1Dd4uuX8NJVy6kNo7kM5BFviKBFhUrQvjoYEAF7akG8I6ZuC2gfebW/9U6RPb1GpXsiZmAAsJa7vNruUfuZOB/1Kn8iqmtT6BgShxcjz23mgSAgyLArC+LdIXWzV30XDqBbL3twKmROnGmIwXlq10XRwqJte8oH3UGQRoeR0iMRfbenXx7zfGyE4TKqHdr7Hv6KNKLmNvuK0xDosSuKENPUbk5Kj0fUPwb0Xd1wPPsfHpYF/DVf6qhbvCmKMiV7GoNBEYChA7capPjVWfWd8fp5bIJRdSvPEXhqgt9cSzTHYRe0JRgeUF4vXfHRlT6KW5mXnh9OEAzJDQbAqA16RsOMge6O2GXS/UgGRQCArcNBLMWenBPvCU0kwj9YqO/6qv+VwAYWLigc89wnmaA5+OmEKQWgj2GXkuL9kaEjlB4kuBVZdkmOOy1TvSop3hWTng3Lz4ar309XYrYbdN5PBACcG/itBM0uKVSviSt/7msY9B40jHmG1iH9huAvSqOF5mC0Te6qKI2OKFVvGJg/oe3uEVYnsX0yjxB8BzqWZE8pcMtz8BdbXJvNrhspgjpwZfEMQTMFejagl93jBcBzBc4mdvRIdxHssjyek2KrIAuuWJESLh5YtiD+OsweXxgOU+BTAq/JxPjtWPWikQjqgJUL0OhEUnqI0Hd59l+iNfcYfKf6hrd2QxwP1AI27F8K0NxpaTMndHMrM7ilbXa7j8PYIgDgTPoYiGWEb6W0D3wHzR7o8+TfE9yqHB5wshyhfQARfCWtoy5pQxSPJtt1rKgh44oAMMMflKO4ZTnp8bC1eWYbyAOFrtp1MfS5QiVh14nqdQI0e1JO2RxglxYr+SZbu34gEdSBaDZLgZ+rro1pO3on0R00DQzerbweEL6WQovMsqI2i6itQGy4kOTXZHC8Msf56rSZmAgAaIMQnjcmXJpUNkK0OKG+4Smj7eyWHgjx/5zFqwQhOrH/jQVHmKfQ4aYNaFkRAHBucVwJkjsrJz0S0j6clY4EQ+rU3u6u3RRFS0g8D7GJ7CocanOOiE5GBINAnoMOL1WvSxiVzn7FNWMBo46XKKlv+7lzsAFokZmozcBURIAlb0aL7NI8hEK4CKylOaeEvq9LXBdDhxcrcTMGbCIb0ORMSQQAtJC5pl+4Kq19MEYJuEmibunBYwHQ/ECzudWmZqoiACBe89PV61ParrFLwE0GbWsPOs5MBGzSGdw2TE8EQUp+mTCEBhVBp4D+saf6kzRKU3jPlt9ymE2mKgIzU0AUqf9tZhQAgJjk1wiUNSsFWX7OYTaZqgiiNDqEEq7IGGhmokKMMc9gOxBVdEQwx0xVBEEafYaUno7UyzzNFIboEtak0aeaeJl3MzJVERA0uySnf9I9wxMOVJf0RAQdXcRDhZZfbArAS4ab7xEJUxIBpHB5iv+XlLUJp4/u0nZ4uS9mcWkxy4/aH0hq4jR7QhEPHzRV1+GUREAwaAkp3jXm4nMLBnLrFbchTdRxCOcnm7KzCEKZCFW7K46WFJvr+KciAnP4IKu+cYAFhwOAhX8mKD4eVd/1T9B31H6FBw7wA0pH/bStidAoU9L+6sPPRziyVAk1zfFPUQTV1bEDh4S6y2A91WsT6KgiXB325Lz4WMQQD2wPlM0B/pxsk40dmL4ALSrq+9zKJoJblsMzySzb2JXJiyDMoIUl8bbhEuEN0VGX/ALBr0ijw83J9iEImih0bLF6dVzbdoAZCXrZU7083mQV5GI0JDX8pWlD6IBzF/410UQinrwIwBecnZdfGrsQSf887YMe8d4wd2a23Mdgq1jvBgY3SeBCX8I3k/IGQt839ki07hJvD6FD7F3hzIJZsA28Xn0ypnhLGC2Yk5VxM8GkRVDuYqprE9qHjRaomCUa1Dd6aj+O4TrxDe1h3KxtdlpeeiCs7egey5zILwZAanj9HiRdlj0cdCDig9aNjADue3ZpTn3PV497lNf7+AuyuGLN/pvVNUHi5/SO2OHBZpIiSEMT0tJ9hDE6xIMIgHNrb/pxMbcYjW2A5bv7EwDjWRLWpvRPzEdNjJKCtqO3em0Sr9exW4wNosxCc1KV4CAhClftDlP8qmS/PnD8+r5u8ZYIipcwCXKAHIkWkuizJfwIZstuDyqTEQGcP3i+U4vKy/6h1hpC/6RbvDeGl9vFTTM+fuPBruDOCFPoaNhbgyEoUIb0iP0eUGpeAXZ5sXpDSlwXFx+Iiw/GpfVR6emIvDGkbt3vssAtgfADdLQPPfrHbn2PyUce9c997BcLeCaqnTzdZESQoCFYE/4zpb1v9QXKH/3Ct1J4qnXUjJMnYsNhM3Nj9qhC7caY9t7I4ibGPOU1H/oHc2R5InubM+B4shR/UVZ+Iaj/3aPv9ejlLogEDbbLqI0cRjFc/VoHqKH+Uv+4Gzwge0JuoJqhnU5qMiIAd97JyE8GDTQ4y1R3QSQv3UPwqzJoPtjGSZ4bbAxSgJBqMSlclpQ3Bgy4avU9g0f4a49wZQb3wNit9y1kTiw+Lw1uUUeeoWYeB1zC7scxdqm5LMl+U2YmLAI47hSNCpT2hrce+xjVDvVtr/hzs6sfmmo6kwBAPUUKz19dR+i7uw0FS8GodMlPhiuELacXwAGHaXRMUbwtom7xGfwYQ6nmg7eVTV7h22bZosCo/diDCYsggR9iwV2QxwUM4NzYTuV1H//tLO4AmJEaHBA5Qzbhp2s/j6nv9uK1/loH+B2UhyBj1MZ2APxCCJICmv9mVtnkH1GcYBC8fnKXj12exzq28ZqkCYsAbCBZEh+NQ7xjSG7pkRBOAj0zutreNDblXpo7L6e81gcXUd/r5s7N44dkzOCvzCxwwN24jqFSr2NoEQFyiw/HUbGEbxXLF+3EhEUAnntBQd/bpW7rEy5JokOLONmF23fG3Rvc92mKPTEv3hrBidaDMRxv2vYimhVNhatS6vuNqvapLm1PNzrULFhk+aKdmJgIwPQVKMhtpGcI/rwMOmSW6w/CztM0hBrChUksgsNsvL7TFIF0Z7D+xDcAYltcxWhoGr7u4s/PDDxzzfJd2zBhEZQodGyJPbOALfMc9IbCL0awGrhVkFOZmrNsYAfqwTJNKb8zewg0F2SM0oNE7UcxaT2h7R6YhC3eH4UQ0s7TZCbsDqBVcHQzt7034HF7zCfTWt63CXA/gEzPy6tbvIbYoX3QI90XRoeVyn00e1KhdkcUP49dwQ/f55a3T1nbdiMKGqVrNye1nT3qOz7hyjTu4gQDBtrtY+BT9sy8tt1n1DqFCxP2lbIjgmkBptFHK38gpPUR7uxcJWWunqtHymAvcUZDIZIUfxEDobCnFWw7zcQRwTSA9s5RwnfT7KkFVBg1Qxo+BU2E8bRs9PkiHjeCl/tvYBscEUyDLF0hKdy60N7jhK6Q2oBVyI963zY4IhiDAXs+AeD+nstgeRZwRNAIs1FRtqmmNk0DRwQNKPsY7oxc9eokrpfW5Hf5RGhLEYxjwNNYAezpeenRsHR/yI5Tm2aB9hNBkkafxo+qxP24AWbEqjEw/gEaLSqJ94S17V5pXdARQYuSwDOeueU5/tw0e2IB/sdqCA30UlfiVPX6uLa9W0ce8S6zKLkjgtYkRle/H1Pf88p/CArXpNjj8ogkK0kKFSnu7Ky+G8+b0vd5xP+OOiJoXYIMOqZUuyOKZznr+Pl8yquE8J0Md07WQAPrrPU9PbWb444IWhdo1xgNHkF9sw/PENRdhtCp7/ZoOzxDqyW1j3prNyQcEbQ0MRpRJeHrKTzw32gBjL63W3o4ghbjB+vgx/lC0NC6fQbtKgIgQqNCSXqKaFhxxxA71Xe94q/CwsUJblkOfZbEX6lLoT5E1EK0sQggKUjS7Mqi9t7YJfgMUINb+d9A7cYYtzKDFhfQp0t4yKC1dNDGIoB7OkWjJaT21oHqMELcoLgM1KX8ieC+kUdMq3Unt7c7KJHqVt8BSyZoO3zShjAkk+iUInLcQesQotGRRenuMH6uZcPAsOyRXyGqP4zzZ6W4k3OwMfpUCQ8H48nQo/bW5LSlCEABi8jatXFcI6GuALXDqLoNfvghDuqbPuEas5geZAcBBhfSat0Eof1EYC6lEr6bVLf69XKXtr1Hed0rPxWQ7gvJTxJDVkH+fYD9xwJeXeP0E7QaYMkJBlpXWk+oW3ulJyLC2jT6Ai6tXu5g2CNyRtld7y+SXwywZxXwCFPLGf/RtJ8IojT6chEdReKlrn10xWsOHYGdJ+BTClyAvhcvI5F/R7DLio4IWhRICykKr6GLDlIP+OFvHPKFkryRMDi3vIFAXypifTgiaE3AzTds2gS2B9xXc+pmr/QEgZaSeAKxI4L2AtobMkCCrv00XLslio4zy485Img70nS5l2FPK7CrCrgqKWjCskEr4oigEUGmErHv0sEZxxFBIyBoaIPugSEcETg4InBwROAAOCJwcETg4IjAAXBE4OCIwMERgQPgiMDBEYGDIwIHwBGBgyMCB0cEDoAjAgdHBA6OCBwARwQOjggcHBE4AI4IHBwRODgicAAcETg4InDI0P8PND9/TFM6aa4AAAAASUVORK5CYII=;" vertex="1" parent="1">
          <mxGeometry x="1820" y="1760" width="65.15" height="50" as="geometry" />
        </mxCell>
        <mxCell id="9gKRPX79BNtoWNbofs5v-206" value="" style="outlineConnect=0;dashed=0;verticalLabelPosition=bottom;verticalAlign=top;align=center;html=1;shape=mxgraph.aws3.queue;fillColor=#D9A741;gradientColor=none;" vertex="1" parent="1">
          <mxGeometry x="1563.25" y="1520" width="306.75" height="48" as="geometry" />
        </mxCell>
        <mxCell id="9gKRPX79BNtoWNbofs5v-207" value="" style="sketch=0;pointerEvents=1;shadow=0;dashed=0;html=1;strokeColor=none;fillColor=#505050;labelPosition=center;verticalLabelPosition=bottom;verticalAlign=top;outlineConnect=0;align=center;shape=mxgraph.office.users.call_center_agent;" vertex="1" parent="1">
          <mxGeometry x="1693.6299999999999" y="1648" width="46" height="55" as="geometry" />
        </mxCell>
        <mxCell id="9gKRPX79BNtoWNbofs5v-208" value="" style="sketch=0;pointerEvents=1;shadow=0;dashed=0;html=1;strokeColor=none;fillColor=#505050;labelPosition=center;verticalLabelPosition=bottom;verticalAlign=top;outlineConnect=0;align=center;shape=mxgraph.office.users.call_center_agent;" vertex="1" parent="1">
          <mxGeometry x="1570" y="1648" width="46" height="55" as="geometry" />
        </mxCell>
        <mxCell id="9gKRPX79BNtoWNbofs5v-209" value="" style="sketch=0;pointerEvents=1;shadow=0;dashed=0;html=1;strokeColor=none;fillColor=#505050;labelPosition=center;verticalLabelPosition=bottom;verticalAlign=top;outlineConnect=0;align=center;shape=mxgraph.office.users.call_center_agent;" vertex="1" parent="1">
          <mxGeometry x="1820" y="1644" width="46" height="55" as="geometry" />
        </mxCell>
        <mxCell id="9gKRPX79BNtoWNbofs5v-210" value="&lt;b&gt;&lt;font style=&quot;font-size: 22px;&quot;&gt;CONTRACT X QUEUE&lt;/font&gt;&lt;/b&gt;" style="text;html=1;align=center;verticalAlign=middle;resizable=0;points=[];autosize=1;strokeColor=none;fillColor=none;" vertex="1" parent="1">
          <mxGeometry x="1590.71" y="1411" width="250" height="40" as="geometry" />
        </mxCell>
        <mxCell id="9gKRPX79BNtoWNbofs5v-211" value="" style="shape=curlyBracket;whiteSpace=wrap;html=1;rounded=1;labelPosition=left;verticalLabelPosition=middle;align=right;verticalAlign=middle;rotation=90;" vertex="1" parent="1">
          <mxGeometry x="1705.71" y="1317.53" width="20" height="318.93" as="geometry" />
        </mxCell>
        <mxCell id="9gKRPX79BNtoWNbofs5v-212" value="" style="shape=image;verticalLabelPosition=bottom;labelBackgroundColor=default;verticalAlign=top;aspect=fixed;imageAspect=0;image=data:image/png,iVBORw0KGgoAAAANSUhEUgAAATUAAADLCAYAAAAP8ATZAAAAAXNSR0IArs4c6QAAAARnQU1BAACxjwv8YQUAAAAJcEhZcwAADsMAAA7DAcdvqGQAAD2FSURBVHhe7Z0HfFTXne9/0/uozKj3SgdRbTAGl+CKe01cY8f2vrdJdjebl7J5z5v95O17G2/eJ5tskrUTO7HjuOOCK7bBgI3pSCB6EUJCvWuk0fSZ9//fmQGBBUgwwvHw/9qH0dx77jnnHn3+P/3/956iMk7/TgRfQBVNfj+KM+2457b5+M4DS7Bm0248/Zd1WLnuIGDTRrOeD6iFWk8IF03Mx9NPPYoUmwE/efxFLFtRiwGtBlCPcAuJRk39EQkD3ggqC9Jx19KZ+PF3b8ZbH27Bb36/Cuu3N1Kf6GKZzwMqDZYOteHGgXaUe90IqYEw/9oE4QKHTIFgTQjTP6F4ou8h+sevgtOWhisWTYbBpMPEiiwUZdiAQX8sHxn5sWso0f/nzAnt4ER1BCKwp5tQPDkDxblpSLNZMWVWEUoqMkhkqJ3xfPFruIxzJRIr61gbuHyqi+rLT0/H3JllUKlUmD61FNn2FKi5HcGT+oMTlyMIwnkjKmpstK4A0DkE9AwCHW76mZLLA4tejbLiDOjIIyorzENeeT6QYqQ8nmiebi/QRanHRyLIRqyUeHaoqTlDJA5cXielXiqzl+poG0CJzYKLq4o5k5J1+pQiVOaSqLVTe9u5LdR2bksvCe4A3ctZw+4O1eHnsqjMLr5HSlwH33PfALJT9aiaXqTkLs5JR+GEbNhtJqCJ8nH9nOJ9Qh4mNFSeeFGCcF5QGSd9OzJ9YibmTslDSY6TnAsyQBKmQNBHthhBRUkubrh2HomamuxSjU07DmLd5v0Ikb1GS6CjqjBc7iHsPNiBTzfWYSjMhjwWK+a8lKis6xdWooo8QpNOSw4jhZbUGI+HwuBCB+bPK0dlUa5yRXufG1u2HUJ19T5FDA0GE10eFY/2bhfeXr0d7f0Bug9qy2iVlurnrCrSxJmTHLh4WiFyMtPJ8Yv2iT/gQTgYxMxppbhmyWzoNNEQfEN1HbbtqENfTz/0JrNyTI0wel0D2H2gHR9yuG7gMHksfXIGJPwUhBFRGad8N1KYacFVl1TiuiumU4hZqJwIhfyKDdqsJmSkp9ER8uZIMfoH3OhzucnQWXCidHT1YMO2g3j53e3YV9cBHz97GrMBU35VBJfNLMVNX5uChXPKYbFYlTP+YAAWsxHONCuMOn5uFUGAtKpvYBC9vf1KHq3OQKITJBE5ihWra/H+6v3o9wdJpGOCNpowkJscUUFFZRdTn1x/5SQsWTSVhL2ATyAY9FMxYaTarch0pMYvgGvQi/7BIXi9Xmi1BjpGzmVHFwn8AbzxUS1q97cCOhbcsfbJaYiJ2lJXC0rdLm42664gXPCojNP/LgJfENPLsnDdZVNw7ZLpmDyhCGajbpgunWwu0ROBUARHjrZj3Yb9eG/lTry3kbymcwq1wkg3mbB4ViluvXom5s4tRW5mmhL6nq7QCAlWr2sI1buO4J2VNSRotWjiUJG8y2M3MaZnW3SdN4jZk7Jx7eVTcc3lMzB1Uj70Wi3pEpfHZXGifDGxH96+A3VtWLtuL5Z/XItVNYeoHadu+1lD3uONBjdu1rhQGqZQVxAEhdjbTzJOTxCpei0umlOA733nNkwrz4TdZiSNihsxGzATUUTER65SfdsAXly2Bu+8vQ3767qA9KiXctaEqC4NuUnuIEocKXjk4YW48ep5yM9Oo/By+NvW420JhkIYGPDis00H8MtnVmFjzZGoV2QgsQlzvmgIG01jga4dDCDdbsAlC8rw429fh9K8DFgtJmhYuI/1SbTsMFXnI8+wh8Li3/5pJd5+YyvqmnuBDCOdHwe8Ydw9MxNfn52NSqctdlAQhONDOuhfFXleukAYJpMB/+fHS3HT1bPgSEuJnjwmJKR/Xh8O1rfgwf/5PBoO9ZLAhRHSklUnKrwi0dT4IrC6VFhy2wR899FrMXd6WezkibS09eC1N9bhqd+tRZPHh4CJREwTvaVzhmI6dVgFLSmWhWLSJ352G4WjM5Dl5HCcOd4nAxR+bqmtw49+vgyNBwcwGKbQV0ftGHMYPko6vXj0/kX41gOXYnJJduygIAgnjlPjn/jFYYcX//IvN+Gu2y5GUU567ETcgCMYIvHYf7AJt9/zO7R4hgAzeVH8kD6R8LsGiqomT07Dv/7gdixZOC12Ik602YcbOvGbZ1bg5be3o5ffWOpOH6qOCeXFASVPCGoKZ//jN1/H9VdVKSFxlOP37CJR++zzvbj3gf+CP9WEsJ6uGyc9U6D2PPrgYjz68BWYUs4vT7g/xrNCQfhqMEyJ2Agp6cjj0kfgSLcjxWo6fm4YehKO1FQ7tHYjqSIL2vgYk1qtRnGBQwmDo7DhRsUsjsmkR1FRFmkZiVnC7TreJ5ToPp0UEpuMHGJzJSdWZNTrqE8sMKQYoGJBS7DGnwp+FBD7KfYpCBc2XzA9jSqCnBI7igrSkGozKc+Jmtr68O6qWtTua0L/gAdarRZpqVaUTstVnjGNy1gCCoU1vhDmV5VSuBcNgdkb2rT9INZu2o2WDhdCVK+VhHfOrHKYeNhFkAybPatEKRsLRiQMHYlaZpEN+XlpylvYIW8AdUe78cZH1di5r5H6ZAh6ErVM8uBmXVwCM7+hDcbKEAThvHKip0Yhnz6swcKLSpHhsFKYGVDCu+UfbsNj//Q8nnz2E1TvqEd/PxkxeWtL5pQgx2qJDrpNOCRqmggmVxTDbjWjp38Qm6nun//2XfzkiVfx7ic7cJTElh2p8pI8pKSYSGz5uvjbyERA9xUMw6LV4KKZechIs8PvCypvN196exPu/cEzePLPH6Nm52FF2FLIc73la1VIVempT7gdgiCcbzTarIt+qmgb60AgBIsngvvvmYeZU0tRs6sB//Hb9/HMbz/CANnoni0N2L23ASFtCPOqyukaPzavP4SjLX0Uf/GzrEShgoq8HXO2BX//4JWKw/RfL3+KH//7Wziwrxdt7R6sXbkbR4+2oKg4BcW5GdhRV4/Wjh4Muv18V1RGAoSWH/KTOGWRd3b3nXMwc0oJ1mzYh1//ZgVeevZzBKiePRuasafuKN2/GlMmFCPFpsb7b2xD16AnwX1yEu4gZlcVY/bMEmQ67HSA7zdRYi4IX11iohaDQi2jQY0lS+bhgzW1ePnNTdi2pwUuthWjCiEKw1yeIPYd7sSamv0oyM3Fll31aO7uRcxNSgzkMaZZ9FhA3pFZo8Ffnvsc7360E50eL0W6EYSpHQHSi/bWQdTtbIEnNACfyoSjTT3o5qlNSlsSIGpcRCAIJ4Xh114zHy+/vQHL3qvBjoPtGOQRutRXIarKNeTHnv2tqN3TgLLyImzYWYden0+JhscNETVBGJETRY1jOa0KniEfNm6rw4GGLgz6A2S8ZLkcqGrUyrzu3gEvGtv70N/nwaGjbRj0UZ6Evv1UKWPBVCQcB/Z2YcvOBrT2D0THn3E17EFR8ngD6Ox2oamjC009brR09GPIH4yeTxRUVoTSgNuNTzcdwOGmXrhJ6FjQFA0hgfWHooN/mztdiqgeaGqFm8JUnlI7boioCcKInDikI24Tfp7YSa4Qv1EcUSD4GCWeV8ljwjiP8oA+UcTKUpF4DNDP/PKT30COVAePemXh5bewiuIlsh0ECz1P++I+UekUYT9ln3BPcp/wTC7lugS3ZTixIR2PPHQ5plbk0QFWUL5/QbiwOdEK2Cg56QyU2Ds7lVFyJjIinv7DHtqYjZevPx2xhvD8UiuVz9OdTlUHr+yhDLPg51fjICLKkAkqV0/KymPgTtcnFBor3iR36xn7hMsVBCHRsAWOH+ytsGfDiX9WIGNWkzczWqNm0VKxYCWqqVzOmQRnvDmpD1gMle/jJMyCcAGRKKUYGfZyeMFGjox4oUeDFpm8FltYic+ULGeEQz9OSiGJIAKHyYB0SlAlqsyxwPdN4hWmRFGzTa+hfqH+UPpEEIRzZXxFjWFhIydETaHbpMo8LJ5TCfSTNY92dVol2yjzjgZ/BLMmFmDhrGLkp1uUcWiJLH50kLCRB6omkZ83sxTzJhcBA346zCN2R98YXjFEdSwcFg9PEJgTXxSMF2SrhfnpuPuG2SjKSMXffv8vQIqeHJbzbIh8p/1BfP9vrkRRYSpWrN6F91bvi85d5TBXYby7g++ZEol9fp4d//3rizDU58X//uV71CfkvfHMiNEIVF8AD1w9CfdfPRETs3ltN0EQmPEXNS7dG8Qd183Ew3cthJrCrdu//QcMDvnJWaOT51PXyDvUkZf47z+9FRfPLcV7q/bgZ//2LuCgUJRfRiiMt6gRHPV6Qrj1xin42/uuRGPLAP7+/76K/n7v6H3nsBo3Wr24xe5FGa+QIgiCwviLGoeZnW784Ps34t47L0HA78f//q83sfLjegwEKQw9X4+SqB2qYASFuRb8/Id34bKLKrFq7S7c89AfgEwKQ/XcDZQUT2mc4cF+HV488cSduOna2ejq6sfv//IJnl9WizCvIcDvC84Er3zracf1rlaUDgzEDgqCkDgLZq+LjXV44vmPfjpHXkVZfgbys1LgSLXgioumwuQlF22I4tKTr1Emx5+j+zZSWzxBqDs9uGr+BBQXpMNiNaGwKBOV07NhYBXx0jU8h3X4NaN97ncq+Prh5cUTv+g0GTB1QiGyHHbkZKVhzrQKqHjDFt6V6uT8yvCQEfqE7pN/gVoeqMxDSZRE9yJJ0gWcTpxRcDYoQzVUMOt1KM60wmE3HktpNj3S7DrMm16MG6+dhRISETZAq9mI9VsPwmBUwZlmOpY/w2GGyaiJjnVlQTwLbTOQYTutBpTmpiPVokO6zRBtCx2z08/33DUf0yYVKpPkg+EweoYG4eofUoa6OewmZKZYkW7XI9dpJz0Jw8ubIZwVKqRYDCjJtSn3mE71p9uifZKRbsKMyUW444Y5yMqwQafVIhQO4dONu+BwUn+kxvokxYhM6hOLUR/dsZBfasT7RKVGZWAQE/1uOEIBZdYDJ0XlJEm6gNO5h58samRwmWSEl83Kw4SKAhIWHt3PjkqEHK8wJpcWYN6sMjJgXkKInBFfEE+/vBZDgx5lCBvDjfCRcW7aXo/t+9vR2Udei5qMeIzYSBTL89Nw5fwpsJn0x8rniQcBquQ2Etci8hqNBj0GhrzYebARm7cehtvjgU6lJaHXkcAE0Nbhwsoth7C/sTvaWWOFPM7CbBvmz8hFFQlYmLxAXvuMN4LRalUoycvBZQsnIi2FQl9SqnYKQf/0yifQUFipjo3pY0fPF/Zj/bbD2HmgA139vuOhqewmJQgjkphnaiRqOeRd3LCoDN+460pMKM5WdqGKruUfh6vhxJYXt75o1QHyQPpdg9i7rxm/f/VTfLKlDj2DATozdlGzGDSYXJyJh2+/FJdeXIlcCu2MPA5sFLAIe31+RdDeenczXnq/BrvqOyi+i2UYCxRZ52dYcdXCCnz7m9ciNzOFPFQKdE/ok/j9fbFP/OQh9vQNYveuRvzqxY+xubYZ/dwn8U1cRNQEYUTOPfxkyKDcngB27GzDiyu3Iz/LjvICB4zK9CVmuDgNN+Ao7Z19eGX5OvzT/3gL2w60YSh2PG7gY4GjxbaWQXyyrBYBtQcF1I4sZ3zIA7fjZMvnY1HB9Qb82LGvEX//+It4650daO4ZQIRXsR0rPDyE/h9w+7FzXzuefWcjJpXmkMCmwEyhZJSTBXu44KvQ2N6N10lYv/vYSzjY1gsvH1cEMdYnsfBzAoWf6UEKP+n0mGerCUISkhhRYyhkCqtVCJKHsn/LEbQ2dcHuNCA/28EnKbFBRg02jtvrw+qNe/C7P36M15fVoC3gQzABa/sri+CSc9bY2Itd+5vhDwdRVuKksJgFJS6UJ1ZS39SNF17cgCd+/gEOkKC4wyGElbmtZ9MYqiNWDUtXMBTG7nVH0NvbB3uagcQt3icnJ2CIYuQVa3bg9898jDdfq0aXNogwrwiidF+87YSImiCMSAJFjZIyul2FXpcb7W19CA8FMXdOCfR6/bHnRMPZc7ARy9/bhrc/2ImWPg/CRrLcRAzI5SJ0KmUsXGf3ALwknrwq7QTylqKcXIcKL720Ec+/ugm7jnbCr4kgwu04Nlr/LOHLlSLUFEq60NHcA4NGi8mTC2DhaVojsHN/A15bthErVu5By4AbsMYWFji5KSJqgjAi/Pc/sXCJFh3aXUM4VN8VHRUxzMEYDu9o3tVOxt46eNx4E4lRo4SALa19aOnopQPckJHqUKGJBKe5u5/aoYkKa8KawgVRsmlR196Hg0e6Eea3FqfA43Gj5UgvOjopCLfHQ1VBEEZL4kWNbZhsNj3ThtKp2cq+ofxwPBgMYdDtUTZPiVNakI38XOfxh9/jQSCMXGcqpk8tjh2gsHfIS+3wwMeLPcbUa/LMbEyYlIHE7y0QU/WwCpZMKzJL+Blf9C0wC/6g20se5fEd1iuL85CdnQqtnsT1FH8MhqN4Z/Hui1UlSdKFnBIvavwKLuhFYZYN0ysK4wfR2+/C5u0HsHbDrtgxIMORhvS8NMDBbyfjYxUSjC+IHHsKplaW0pfo7VbvOYS1W/agsZW9tygTS/NQQSKrDMJNOCSUgQhmlGRjZkU8BA7DTQK6ccdBbN1x4NgxZ3oKCic64Syy0Ncz/3ooUFY2tld+JoULU/9LknQhp3GYJkUW1uHFjVfPwHf/7mpcNK0Y22rr8cwfPsaW6nrorWbMubgUf3PfYpQXZ2Pluj345TMrsWH7UURXjI2WkhDIS8u0mvDoNxbhf3xnKYZ8ITzzwgp89O5utB3tQ0mJE/c+eAmWLJ4KfyiEp37/Cf71F+8BuWa6mAUlLv/nAv/pIFFrCeLBexbg4QcvxcTyfNTsb8Nvn3wX+3c3wWQz4OIF5fjet65CpjMNb6+oxtMvfUbCexgwn0rs1bFpUkdQPNCmHIkktPME4avJOIgaiYE7iIfuWoiH770Ue/ccwXvLa7CehK293w2dUYd0pwXzSwpx862zYE01Yc26ffjN02uU504Jfa7mCWLx/Em4/foZqCABe/n9ndi8dT8aj/RicMALm1mH6ROzsHjxBFxzxSxs2lqPn/3iTbiUye3cjgR1DRfVG8AP/vYqXEF17dvXhhXv7caGA/XopzBYp9OQmFmwaGoZbrlpjjK5/r2PavHci59HJ9uPhF+FuytsuKvcggrLmT06QbhQSLyokQFbdDpcvWgKZk8uwHsrtqN6Sz28PCxB2TKOquPHVt0BXL6oHLNmF8Ll8uIPL6ynCxMvalcvnoJJ5Vlo7ejGKyv3UGhM9StvNul8MASVx4+8HBuuu2YuQuEwPlpTi6PdHjqZwG6h6kwqDe64Zjoy0ixYvWY/qqsbgHQTeafUEGW6AyX6Y3DdlVMxbXo+6ho6sWx5dXSJppHoD+Jbt8zCw7fNxcSirNhBQRASL2rqELLMFpgNOgz5A2hv85JF8/Ho6RNw+ZDtsCA1w4J9vHdoosMnEorSHDtC3hAaWgZibxNZUWNwdTzUhMQEdCotxYxUsxH1HYN0gvMlomuoDAo/HUYzbFYNhgYD6GgdIrE6xSwHlx9FeSlQ0x+A+k5efeMUfdLhwWMPXY5HHr4cU44NVREEIfFxi0qHdrcPR7oG0c7zNy3knZ2qllQj2nwh7G8gQRvLvgWjhbyg+g43GkkoYOcwbpigMVwdv4I0kcBo9OgdCOJIa4KX8WHRpD7pJo+woWMIHbwyScopQkomRYPGPje1w6WI4emIkIcXObYP3+nzCsKFQuJFjW2LDFlZlkwxytMYGwuKOoIID+ngNfsT7akRvCFVhLfxU9px0u1ydcqKt3SeR+vzoFt2oKhNUcVLADzmIszCRn3CO28plZ6mbOq4CLUpwlOiRvH2UxCEExml1ZARBnxRETqT8EQoDydFKJQD/M/pUfKdodzhhOJ1jBYWtFibhqMcih+nFG/7aMrm9ZECFForWU/Xdi6P8g6vJ3rRKaCyuLix9okgCApnFjUSMl4tenJJOlLM+qg+nBY2Yk6xr4mCytOR95KZakBJnl1ZVigqsmfghLaMkD8uYEq+Yel0UL1mrRYzKrJg5mWWzpT/WJ9wvjPlFQThXBiVqJlIyO68fg6K8tJjB78EqA02vQ7zJmXh6kXlyE2L7QR1vhjuNAXCcOoNuP/2hch1WqMTIkSrBOGvgtOIGp1SngFFwPPMv37jZSiryIPGSJ7JaKPWRBIKwWE2YekVc3HtomnItZKoDfHLhfMAixY/e1M+6R9fGGlqI+6+9UrMmlqAVJ6cfuyBvSAIXyanVie2UR6Rn2rFtddUwUKh52VVBZhRSN6alxdwPJ9QMz1hmAIqTJhQQEJSgXQSOATOdzuIQAT5+SmYf2WZssruJbOLkZ9pi45/EwThS+cUokaHeYiFx48MnQGLFk2BwajH7CkFmJBNosYb755PyAuypxpRUpmByuIspNmtqJySg/xiags7a4le3eNkWK+U53ek9P4w8jJTMW9uEbQaFeZMLUaONUURXUEQvnyiMVWQlIHHT/WR58Njy/iznz69QWVZ7umTC6DXaVBWlIW8/AyoeLiBko+viaVBKuOco0FqCztfg1wmlx+ro9+LnDQzplcVIj3Foqz6Mb2qGJPKc+i8N5Yn1g4XJU+sISOs4XZ6SLiUhRjpOhYxN5UT75Pe2KfLi+wUK/VJqRKNlhXxSiNpsGgpLB+pT5TNUsbaDkEQzhaNNuOin9r0KuRYzCi0pSDDbECmxULJhMxMO2bMLcZt182EyaCDyWjE0d4BNHb0wRlSUx6rkjfLakE6iZ/aqIbXH4g+Mx+zHfMFKmRbzcin8nKoHRncBq7DasCcGYX42hXTUUaeGouPVq+Dq2sQXQ3dyDTbKJ9ZSRnUDotZhyFS2PBYG6Fkp9ZHNMqb3nyzFXl0fxkWY+xe6TPFgIULJuK66+ZBT56a0ahDU1cvBvrdsFB4HM1nRpbNglSLARqDCm5liaME4w5iNgn77JklyHTY6UBMjAXhAkdlLP2byOKFJbj/zgW4/OLJ8Lp9sVNRzCYDsjLia/yTgbqHlE1SfDxXMYaeBK+9ux+vLd+IP72ylZw88mp4TuOoYWPk/CH88FuLcOvXpsGZmkJ1KPKowHVYSNxSSWSiqKgdQ8qKssPhdtXsbcbjv3gN7b1BBHiM2PBlsM8EZVeTBl1zZRkevnsRqiYUwkdh+HDsNjMcaTb6idschss1gIFBD/zDnqsZTHo0tnRi+Qfb8Kvff4YICW1CVvWN0+HBow8uxiMPXY6pFXl0gH8fY+lzQUhONNq8i3/ac3QAHS39ymoRC+dVUshpUcJOTmazERpl1H0ULYVZJpMRVvKobLG0c18T/vzS53jj9Rr0q8LRpbDPCjUO7ekkEQmjsjIXJQVZx9phoXYYlWXBY5PiCd4v00LenM1qpGSBm8Llt1Ztxy+fW4X2Di+CYxU0FlcVj+iPoKPZhdamfuj1Wkybkg9nWsqxtpiM1A6lT/g+ecs7LfWTifqE+y3aJ9W1DXjxhU148/UdcJspX6Kf+5GnNmdWKWbPLkWmIrAJLl8QvqJEJ7R7QxRuGVBWkoEF8yvx4C0LUJrvIOPlOUNxUTjRaPiRUz95KMs/3o4Vq3eiekcDjna4AROLzlnCAkSeVjF5aYtmFmPp9dNw2aUzSCSMsQxMVEiGt4dX19hWewjvvL0DK9bvx662TsrCghYTwPgtjIpY+eRs8gbI5UWZWHzJBDxKXluWw6o8W4zChUY9teg1KqUdQz4vXntnKz5aVYtt2xvQ1M1Llesp+5gacWYGgrjv8nLcd0UFJmRHV9IVBIEs8dgqHRw6kX1aSEDuXzILt900G1Mn5yPFxktsxA2YiSAQCKGDjPXN5Zvw6kfV2FXXAo8/xNujR9XubCEvT4G8kFStHhfNLsQNN8zBkkunoTB35IG//QNDqNnZgNff2ICPVu9DYw8JK6/GoaIYkkVNGckfyzwmSKh4OhY1Kcdhx/3XzMatN88m4c8krzE+If24wPoDQTS1dlO4uRWvr9iOA3VtGOAwnMf1KRNhE0xIhVsygNucEZTrzqHPBSHJGLb0EBsoGR+v0d/kwuP/civuvvNilOQ7o6eV81EG3F7U7m7EvQ88iTavJ7oOWiKfFzGBCNRDEVRMSMHPf3IXrl40PXYiTrTZdUc68f+eeg9vvrQFfezpsVekhHoxgTwnooLFS3yrmwbxyyfvx/VXVylDOob3BzPgHsKn6/fi9vv+E2DR45U/lMUmx4nYZsbXu5pROtB3TLfjn4JwoXJc1JQlciiRc4HGIfz8iTtx5+1zke3kN2vDDTgCj8eLfQebcfut/wny0WLhVYINmDw+nnM6d3IW/vl7t2Lx/MmxEydyuLET//nsh3jlrc3o9fkAHYlJotoS9xzpFtXNfvzqD/fjuiVTkav0CXO8Ho/fj/VbDuCGm36JSBb1B4ep4+GhxYmJmuzQLggnErU69mzYICIUQmpJ1fL0yCtKhyM1+qaRt3Rr7+yBx8tvRlUwGAzIy81A2aw8WG1mCl2VbImFmqLxqikELUVmRlxEWFKBQT+FwBwaEnabEfNmlsPkIe/Im2Ahia5bBOjVUBUaUVCUCruFQ0/etDmMnp4e+uSbj1DkrUUGhallsxww8Ji1+G4ogiCcV6IKwPrAz55IKPRkjAvmFCM3J0V5u9jdO4D3P67B44+/gmdfWI19h5qVN3881GNmVT7SbSR842LAEWgoVU0uQka6jbxDH2r3HMFP/+MN/OM//xkfrd2pDOkwm/SYXJEDQ4qRVJBvh9uSwPaQx2g16DB7Ro4SdpoMejS39eDN9zbie997Hk8+/zEOHGmjvwtqpKVY8LWFE2HTUVvGQ+gFQTgjsR3aYyIQDMEcVOPuW2ZhzoxytHf14/2VNXh9eTU++GQnmtr7MDDkVea5O9MtCIcC2LGjGa0dLsWbSRikrxoKhdMorP1vD1xOWqXBxq2H8No7m/HKe9XYvP0IBnkfAfLm7CRmWZl2fEqhX+eAG34eP6eM4I96cudMIAKnxYRbrpmEeVUVONrcgw9X7sBrFO6++8lutPQMwO31U0eqlfFrVpMOn605hF43tW9MY/XGCP0SZId2QfgiMVEj4+OH7BRKmcJq3HHbbNILLd5euR3PvrwWW3e0IGDToa19EHsOtqCprRsZ5JVkZKZg/aY6NLT2kKhRmJYoyDrNeh1KSlJwxYKpqNneQO1Yhzc+rFG2EwiTyB3Y3YbGIx3Q6ECiloq2nl40tfSit5/ERPHYEidqmeSN3n7zLPQN+bF8RQ1efWsrttU2k7Kb0dnhwe4DzfQHoA8Ouw1FBRn48ONadLuHEBnXFwUiaoIwEjFRiwsAhZ8mYEJlBX773Bq8/dEO9PM8Sgsph4Y+SWh8AaDuUAfeX1GNjLxc1Da2oGOQNypJoEVRValmPWZOzsa+A6146c+bUL2nFUg3sAsXDZotarR3ulC96TD2Hj4KJ7Wl6WgPOrvIa0zkju+REGx0/xMnT8BPf/UOVn1+AD0868LKSzAROhV8wQgO7GnH5vUHkVOah72NR+Hy+uCPPfcbF0TUBGFETtpNKqLohdNkgMsfhpcnurPgKcbC2dhy+EfKR8lhsWAg6I/lSyBUh5Y8R4s2TPWY4faTQChvDk7yBsMR3lYAJvISDXoVhYERaguFnwl0GhkdCanDoEc3hZnxFxRf0HBqi456z0Ghan/QR0IXpkOxvOOBvP0UhBE5KT5SgSeBdwwMwctrlbGRHDOU2A/8oaZ8FOLxMyyvfxyeiFMdPBa4nxyiXt8Q/LwRysmCxlA7QpQGSYC73Z6ouI7DihgsZG39bvrk53V0YKQqqB0BEuI216AyEHlcBU0QhFMSCz9PQlnldRTiwKHgmfLx+XieuJ3zLlP8DE/hFNfzNWoe1Mv5WHtPlY8St1eR51i7T5E1Cp/nMjnTaTOeCD+nO+O9UlL6JPr1tMT7RekG+ife/tESCz8rfYNII082wiJK5SnFCcIFzEnhZ4Jh4+ZXpQyFZwYSH61WDTfvwqRA5877gyA1zEa1MoLF44uF118GLMTUCBN/kn/sCVNblP35eMDvKNoUn1HQ34wSVz8foMvpj8D57k5B+CtjfEXtGBqoeKJ6thXpqSZs29cJaKnaL8MAqdrpxVkIRULY29yBMD+MOu/wjaupTwKYVJRGuq/B7iN9sRccoxQ1un6ptwPXDzShZLCLvrMg8qMAvl4QLlzOm6hlpxhx4xXTkO9MxeP/axmQYx7fcVwjwXfq8uMbd8xFJgnshi112LS9FdCTmHwJAptiCuObty1C0AX85slVQB55WsqMiFE0JgDcXmrE3ZPSMTk7jQ7wNefhVykIf+WMs6iRoXHpfj+unFuG++64BHarBQ//3R/gIu8kpJw8j4bIVfX68PgPl2La9DysXL0bTz21DkjTk5cUF9hxbk9cezxBLJ6bi/92/1Xo7Q3gp0+8hXbf0Oie3TF9fnzzxhl46JbZmFySEzsoCML4ixqPM+gewLcfvhz3ff1SxWB/9G+vYFNtO4aCfuWx2nmB7lIVjiDbasS//vhWzJ9Xjo/X7sJ3/+FFIN0Ujd5i+cYV1it+tdvpwd9953Lce8el6O4dwv97cgVWrq9DxEAZRtMnHR489s3L8Aj165SyXDrADR+FGApCkpM4SWGb4sc5PI4rnnjMGE9bIu0qKsxGXq4D6akWXDl/Ikw8X9RH54bn5+f2JDznLCx8/QnlUgqEoCbvaPasAhQVpCOHwuCK0myk5lijL1jpPO8tesI15zosgy//Qp9Q4uWdqF+mTi5DVlYacnl3qhklUPGOVNxfw/NzOkWf8BvPCJ+Lfot9CsKFTcJEjX0EHXllOjJYJZFg6bwh6DwB6LNsyCt0Kqt+pKSYcfHcybCRsfI5JV8s6f0qaIMqqI8Z6thRqdTQ0G2d0A5OnhD0fQFcMrscudnpMOh0irAtmFcAOwmNzk15vHQPSn5qN13LuwSeCzy8TkdlnNAOTmoVDIXpmFyZi4xUKxwOKyaV50Pv9kb7bHheulZLfaU6V4EVhAuEBISfpIuhMPKdFixdPAF6tYYctBA5GFQs/c8remQXOHHz12ahsjgbYRIs18AQ/vMPH6Crv49ViARRQx8qZdXdQ42dqN3fjvqWAURdqLGghtOuw+SSNMyeVgSvO6DUp0AfVAu+cfelmFCaC6vJhJ5+F1av345tNUfh9ngUZSZJRUQVhEFtxCfVjdh9hN8ssrs1RshLLS9wYEFVEdJMOvjJCwzHvCm9Xo+CvCzcecNcZDnt5CBG0NDcSX2ynHLwsIxoGMk9Y9Bo0NDRh+q9rWhspz6JTwGTjVcEYUQSIGpkZOTpOOwGLCKv54Gb5iMrIx0aHjNFJsqek8VqQma6DRaTXskfIhGsa2iHzx/fuYqEhAz7QH0r/vLGJmzYcRQuX/AsRE2ljPuqyE/DfbfMxtyqCpiPLb1NZ0ksCvOcyiYuvJlMIBBUhK2ndwjBUHRmRCQS3dJuxcfbsHzVHuw/2jN2reDFJclrzSEPbNHsIjx06wLY7RTmaqOzInjVEd7AJctpUzZ24XZ7vH7qk1al/jh+fwD1jV146tXPsWN/GwaG+BlkrE9E1ARhREaeUXAWhEmoBoe8MER0yMt1orw0C8UFmch0piDNboZeEbmowaop/OIt5rLoXJYzTQkF99W1Yc3K/dhY24h2F78FpLzH7XvUBElg/RSywR+B1a5HRVk+KkpykJORqrTFQCLCa58xvCmylQSOF3fkdvDOWd0uL1ZuOIR1mw/iSHMPPDwNLOY5jRplxoJa8cB8niCFoBoU5DtQXpKNovwMpT7e+0EzbOoXr12XSeFwlpJSFHHbf7Adqz/Zh/W7GtBLoekJ/SH7fgrCiCRG1MiWONzs6/Vh0/p6eD1+8soMSE2zwKasFBvLdCxFvQ3erKS1sx/rthzEMy98hnfeqUUnh4G8IxXrzlgdNYbEkOejHtzXhv1HjkKt0yMtxQY7hbY6xVOKFxoXgOj3vn43duxuxLJ3qvGLZz9GQ1MfPDyXlAR47ESvYYHt6hrC55/tR4jXqqO+sKeaYDYaYsXGPSv+Er3GR23nDVxWrd+N515ajzdfr8EgD6o9eeURETVBGJGEeWqKN8NjvYx67K1uwqG6VuitGsydUaaEoCcaHP+sQmd3P156az3+7XcfoGZnOwI2Oh5fbPJsBC0OFRMxatDbF8CnGw+i1zWI6ZPykZFmpZNx44+3h7+rsXbTbjz1+0/wl+c3RXejUsaLRXOcNXw9O6gWLXaub8Dh5jbobTpMqCiCMRaKntgWFdo6evDki6vwuz+uRu2uNkQy6Y/CSEspiagJwojEXYXEwSVmarG/sQ0fL9+B1vZu8lhGfo24p+4oqrc0oP2gC7BRyBh/XpQodGTk1J7DR9rx2YY9dICfOw0XkeN8vOogVlc3ALxpijK2hFOi2kMClqPD7j0t2PTJQfLe+mLHv8juQ0exe0sLOo6Sx2qPD54TBGG0JF7U2AEhr82YaoAj34wUuxVq9npGIDczHU7yngK84Yvq+DO3hMHFeUJI1RuRn+uIHTi5juj37FwrMrPNpHssfImGytRq4TfroUszISO2oc1IFOc4YKUwld8gK88VBUEYE4kXNXZugmHkZ9sxdWqB8qZRTSLX1TeI6l1HsLHmADyxpXLys53IKnJAnUre0Xit1uELITvFjCkVPJWI64hgz4FmbNp+CA2tPFwjypQpeZhcmq2IYOKhTvGTYBU6MaEyR3m+x8d6+93YsuMwqncegddPGYiCXCcKip1IcZLAnrZPuKNP9iTjxyRJunDTOIgaGaIviHxHGqZOKFK212tq6cHqT/fiuVc+w9MvrcUnm/ajrduljNfKIg/KmZ/Gr09jBSQQEk6TUas8c8px2uBye7FzX5OygcszL3yKdz6oxsH6Nrg9XlQWZaOcBEVZr1x525lIkaWyPEFML8pAVUX2sd3cV322B398aR2eW/Y5Pt92CD39g9AbDCgtz0BhIfUJzz44FfSbU1qpZOF/EtleQfjqMg5zP9VQtbtx3+3z8b3vXw9nilF5s/nCs+twoLEToO+WdAv+z/dvxNWXTELdkTY88+pneGPFzujmLYm0TX8I5QXpeOTuhbj3tktQu68Zv/ivD7B16xH0tw0hI8WKpXdMwwPfWIiKwgy8+Pxn+OHPliGsiCw1JMKh6Ll2D98QKVDHEL7z2EI8cM9CWI02vLp8PZ56Zg2ae4fAGzAX5aTj//7TjVgwpxw7yaN99tV1eP3DXYD1FM/V+vx4jPr4W19fgEkTyMMch79PgvBVZFwmtKfpDfjGDXOxcH4F/rJsHaq31KGbwjo/j2PQsHuohsOrws03Tceci8vIa3HhZ//2LsBhaCKfI7kDuGvpLCy8uBR9XYN48tdr0KsPwwveP4Af/0VIM1SwZ6Xhuw9cgbDXj9+/sAZ1lDfhhNT4/iNXYkJROt5+dyvWrzuEfuqPoPIMkqdTqeDw6fD1+y7CtFmFqK5pwG+e/iS6gshIkOjebA7gVrMPFdrowGFBEMZD1MhQnUYj8rJsMJDndaC+G65Bj7KngTJMgj0frnEogLxMG4oLHcpQkM/Je0q4pxYMY1p5JtLMerS39WN/gwswcTuoEq6Hp3LxJHa1DpMzUpBmM6DD68PBNsqnvClNENQnKST0JSRoXG3DkS709LkBA3lhcQeLVdYdRnFeKopLHOinkLhmV8vxIS4nwyvfejtxo6cD5T43QoEQVLw+3VgHCgtCkpF4USOjsui0CAeD8CjPp7TsEtFn9PQJkOgYtBqKvtQY5BU9WGQSjFlH/hgZvMdDbeEpU0pIeRJhEgO3D2ajFsY0M3oG+aF9IkLPGCRqNgoxef6nj1cD4dD2VFPAKGQ2GXWkWSrS/dM8Zxy+m5THHX1bymPfRNOEC5wxihpbzGizc15Op/F42KtgD4Vtl1efjU8+PyVjqT8GCwhfFxfWEYdsDPNwjgnradp9AqNsk5JtuNd1qvIpo1IcfSpvAU5RtmyRJwgjMtzKRgFbzWgvYWM8gzCwgHCRPERtVIJ2FlbLA3p59yqu65RWT+d5Ejonpc2cRsso28WiqYjUmcqnfBweswifzf0KwgXOKBSKDYuy8eJi0fEDXxJcN6cx6vAx+NrThHMsqmcU1jjcJ5S4T/ia0Vym5BtVRvo/lsYkroIgMGdWiFAYJrLFu66ajiKHFQh8SW/aIipYDTpUVTpw9dxC5KaaT6tR44o/hAy9Ho/cPB+ONGqHgnhVgvDXwGlELWakFJLxW8zbr56LiSWZys/n34CpvgBPd9JiycUTcf0VM5CflqLMFjhvxJ+5sbdKXpTTbMb9Ny/A1JIM2IwUP4/ayxMEYTw5vahRuGQmISkrzsTsqWWompqPbCd5a6HzbcDUliCLmgaL503EwounITPFphw7b8R1nPrEatajuMiJ2dNLsHBmMbJtpugeB4IgfOmcPvz0RZBrteOOq6pgNulxyaxSTCvNAryBWIbzh5pUxWY2obIsC+WFTqRlmqGzkNd4vvQ17on5VSjOdWDRpeX0RYVLL56EwgwH9ZU8/xKEvwZOIWp0WEWehyeIdK0ZC+ZPgNGgw8TyfBSxAfOuR+cT8siyM62YUVWAnEwHtBotLppThhkT8khgg4gO6h1P2E0jAVVTPdQnOeQlzqoqUSLSiRNy4LCYqR0SfgrCXwNkpfS/nzyvHh/Q4qXkpjRIaYBCKi+sWTpUlmQqq8ZmOlKQW5CGlBRdLB9fw8mjzG2El34e1Ru+U0FtGSCRaueyXcfraB9EQaqVhKQUWmoHi8kkErSynBSgqwdoova2DmtLF93H2cDPy5RhHdSOAJXVzf3Bicun/mimz74hZKWYMK2yQLkkzWZBYbkTGQ4KQVuoD5Q28Ce1ndvhHaewNDYvNRwJIhikOgkevaLcgiRJF3IyTvlupDDThFnlBZiQy8vzxL0w+jSoUD4xF/feMp++k6GTEW3ecRhrP9sLtyIcfIy9mAj63AOoqW9E7YEuclroWp7nOVbokvmVuZhWmIU0K685xmXwILYgyioycdH8SlTy8kBER+8ANm06gG0b99E3Xson2ha3x4eG9i6s3XsYgyQoYRbZ0TYleivkpKpQkm1EVVkRCp1OGHj60THCmENe4tKls+hnviCMTzcfQPXWevR1kJDF+olTa78b24+0o3ZvQ3S6U/xlQ0JQYamnHdf1N6JkoANqrY5awvtVcd2CcOGiMk76TmRahQO3XDUTN3xtJsqKMinU1JP9xQ0waqDHjTVO9OdgKIy2The2VNfh1fc2YeXnhzDID/DPZmI6eUl3XDYVty2pIuEoR14WL+wYJ15eXHT5+/A2Av2uIeza34L3Vu/C88s/J6ENIcjjvVi+RwWVF1FBFQyjakIGrr+qCksunYJpZbkwmVg443B5nE6+x+ixQCiEptZeErs6vP5BLT5eu4P+QFD/nY3Qnwpyrm91qnBbqg+lkX7lUJjEX0RNuNCJTpNyBeBMM+PyRZX4x28tQVlJDswmg7Jn53ED/qKoBQIkaD39ePP9zXj+1Q3YdaAXsHE+Pn02xkXXtvswa0om7rl/Lu659QpYzAZoSCD5v6iIsKid2BY2ZPeQH5u31eFPL32OZe/XKEscKfEYt+Ns2jIUhMaixw1LpuBHD1yOiRVFynZ2Ua0fXt7xPuJqAsEImjq78cIb6/D68mrsP9gHpPOQD2r3WTTjlPT68eh9l+Lh+xZiUpEzdlAQhKiohSPK/GojWWxeqhE//sF1uGJBFTIdqZQlarBR42Wilhkgb2b7ngb8+x8+xmebD2GIwj5l7dZzdUbCIej9EWqHFZdfPRH/8NgtKMpOgU7x/OKixhyvyB8I4dd//gBvvbQd++q74DZTnnP1ilihyOE0k+c2vSgbP/zBUiygsNNuiw+2jfbD8X4BBod82HGwGY//+l3s3lmPIRLagIbD53jeBNLhxaMPLsIjD12GKeW876cgCEx0NykSswiJQIBszzUUwKGaRthSdMjMtMN+7NlWXCRUGHD7sH3fUTzxr29iw66j6CVBC7HhJiK8oraEqI4hH4VwzS5sralDcUE6ivKGeyPH62ls7savn16BN9/ejkMtvXBzqKnjAcLnKCTsktH/5Iyid8CLfVsOwerQw+HgPhk+iyDaFl5Vd2vNYfzzT17CzsMdGPAGolNNFW93HHAHju0mlUVtUppL/0iSdKGn4xZHX3hdswB91ta0obfbQ84KC8MXxUFF4kW+HWq2NaGn2x0Vs0QImgKVo1PDT7rUQWUfbW4njyf6di8K13O8LvbSOjr60NTSDzfvss7PrhLlGXGfUFvcgQC2balHv8tHUWS8T05sB4fAAyRsG7ceJo/NE32myIJ2NqHvWXG+6hGEv26ionbMNiMkWBEYU8zIzclAmt2mHA1Hwujrd5GA8KDbCEwGHQpzHMjIToXeQOFVwg032iAteV0XzSZPJCPWjnAYPp9PEQ8Ofzkfb2IyZ2Y5TPr4std8PFHtiXUMD1Gzm1FSlIsUe3QnqGAohJ6+fuWTMVE/ODOscBalQ6ss7CgiIwhfBjFRixkviYZGG0HuZDuyC9JgsZhIyMLo7h3E+m170dDUgSGvn5wyEhOzFlULcpGWZkj8tCnliXsIGncIVdOK4aTwKhQKY2BgCPvrmlCz8wjaO13KfqLcxulTS2AMkrjyXPuEeYwMlRVRQWPUwjrJicKiDNgtRuqTINo6evHphp1obeuBx+sjJ1eNbGcq5l9aBIveSG1JZDsEQRgtUVGLL4tDhqj363HFvEpkO2zwk0jsPNCK//XzV/H3f/sy/uEnL2D5yu28Ejd0Og15SEVw8hzM8RhfSsKpNmhQWZCFFKsJrV39eGVFNW78mz/i3keewtN/Xo2D9e0wG3WoKHZCX0gelJluJ6ETy8nrI48wVWPA0jllSOGVc0notu2ux+O/WIZvP/Yivvuj57BiVQ2Fpm5lv85F88ph05DXeLqdoARBGDeiLwrYI2HHglTM4lHjsYcWIiMjFW+vrsUv//QRtmxrQPuQF10DXuw91IHDjR3Iy7IjI92KjRsOo6G5J/YsK0GQMBl1apSU2PHNuxaTd9aK5/+yDste24wjfYPKMtfNdd04QqIWVAUwZUIeag+Q99bRD7eblPjYUJRzhD1YXxg55J09eO882EnAl32wRdnWbgP1SZfPj84BH3btaUFrez+cWWZU5Dvx/kf70DU4xPFzrKBxgO4z/qKAtwCM3q94h4JwXNQY8tb05IHNnFWKLRsPY/mHNdi8qwFubwgREi0feS0d3YNoauxGT0sf9BYzNu+sR2uvS3nJkDDIQbKa9JhY4USIvMIP1+7FqnX7UNfcDZg0ilj09XkU762powdH6dPnj6CltR+9/Z5YCJoIUaN7CoVgM2swvaoMa0ms3lm9E9sPtqDf7ae2aOGj8Ly9axBt1B8u+rSnmLGh5jD6vN7xXe5NRE0QRiQmajE0akQohPN4I1i1chcOHWkH9NroEAkeKsG6RYIx2E8eW+1R9JHIHe7sVt4OJtSgIioYdFqkWo1Yt+Uwqnc3o8vtpfCSx3zFIJH1BIPkJfZi/a56GLQmdJLgDnpIbBImapyoHBJsr0+N99/djkZ+lsceWHzGBPcJne/rHUL9/jb0eHxo7ukjbzJIkWsC2nAqRNQEYURO2niFjYKslEVKGZJwBiPxk0vFBp7Qh/MxlJcFVD4JHPT0M9dxwsYlJ8F5R9PmsRCf3B4mUecHjLw5zOmKj7eZ54rGX76MFx0ePPrgYjzy0OWYWsGDb2NtFYQLnJOsgPWNgiYOJVkc2DBPFonhx9h4EykicbgOXk6IPUQjtUlFnxFKp+N0bT5buE4WUhY3DntPVSzXF69b8WoTVL8gCGOGlSD6MTzxsyT+ZC9J8Y6GpeHH4vkSneJ1cPkRDjmHnTtVOl2bzymxQHGZ/DnSeUpKnbHz49UnX0hc38mwt8Z/mCRJunCT+gu2cnI69iztDMcSnYY9w4t+jqHOhLWPy4mVdboyWV9imnbekkZDDiylY15pvBGCcGGjmjfpm2StwleOgTBuWjoDS6+rQlHO8CWaBOHCRvVc1hUial9RMvLtcGTZodfqY0cEQVCtccwTUfuqEqJfoPz2BOEEVJ+KqH1liW5TIL8+QRiOaq2ImiAISQS/RxMEQUgaRNQEQUgqRNQEQUgqRNQEQUgqRNQEQUgqRNQEQUgqRNQEQUgqRNQEQUgqVKstMvhWEITkQbWuSCa0C4KQPKgO/egJETVBEJIGVYSI/SwIgvCVR14UCIKQVIioCYKQVIioCYKQVIioCYKQVIioCYKQVIioCYKQVIioCYKQVIioCYKQVIioCYKQVIioCYKQVKgikZBMkxIEIWmQuZ+CICQVqu41G0XUBEFIGlQ77/9HETVBEJIG1WrzVBE1QRCSBtVahyznLQhC8iBDOgRBSCpE1ARBSCpE1ARBSCpE1ARBSCpE1ARBSCpE1ARBSCpE1ARBSCpE1ARBSCpUa9Nl8K0gCMmDanXqRSJqgiAkDao15lkiaoIgJA2qo796XkRNEISkQRVye0TUBEFIGmTlW0EQkgoZ0iEIQlIhoiYIQlIhoiYIQlIhoiYIQlIhoiYIQlIhoiYIQlIhoiYIQlIhoiYIQlIhoiYIQlIhoiYIQlIhoiYIQlIhoiYIQlKhqv/dszKhXRCEpEG1Yd7NImqCICQNsvKtIAhJhWqtQzZeEQQheZAXBYIgJBUiaoIgJBUiaoIgJBUiaoIgJBUiaoIgJBUiaoIgJBUiaoIgJBUiaoIgJBWqtaky+FYQhORBtdYyW0RNEISkQbX5uvtE1ARBSBpU3es2iagJgpA0qCJE7GdBEISvPPL2UxCEpEJETRCEpEJETRCEpEJETRCEpEJETRCEpEJETRCEpEJETRCEpEJETRCEpEJETRCEpEJETRCEpEJETRCEpEIV9Hhl7qcgCEmDqv6PL4qoCYKQNKg2zr1RRE0QhKRBtcZWJaImCELSoFrrkD0KBEFIHuTtpyAISYWImiAISYWImiAISYWImiAISYWImiAISQTw/wHURHSN4Nx3OQAAAABJRU5ErkJggg==;" vertex="1" parent="1">
          <mxGeometry x="1567.28" y="1767" width="65.45" height="43" as="geometry" />
        </mxCell>
        <mxCell id="9gKRPX79BNtoWNbofs5v-213" value="[ContractX, English]" style="text;whiteSpace=wrap;html=1;" vertex="1" parent="1">
          <mxGeometry x="1530" y="1720" width="140" height="40" as="geometry" />
        </mxCell>
        <mxCell id="9gKRPX79BNtoWNbofs5v-214" value="[ContractX, Spanish]" style="text;whiteSpace=wrap;html=1;" vertex="1" parent="1">
          <mxGeometry x="1660" y="1720" width="140" height="40" as="geometry" />
        </mxCell>
        <mxCell id="9gKRPX79BNtoWNbofs5v-215" value="[ContractX, Chinese]" style="text;whiteSpace=wrap;html=1;" vertex="1" parent="1">
          <mxGeometry x="1810" y="1720" width="140" height="40" as="geometry" />
        </mxCell>
        <mxCell id="9gKRPX79BNtoWNbofs5v-218" style="edgeStyle=orthogonalEdgeStyle;rounded=0;orthogonalLoop=1;jettySize=auto;html=1;exitX=1;exitY=0.5;exitDx=0;exitDy=0;exitPerimeter=0;entryX=0.493;entryY=-0.012;entryDx=0;entryDy=0;entryPerimeter=0;" edge="1" parent="1" source="9gKRPX79BNtoWNbofs5v-186" target="9gKRPX79BNtoWNbofs5v-210">
          <mxGeometry relative="1" as="geometry" />
        </mxCell>
        <mxCell id="9gKRPX79BNtoWNbofs5v-219" style="edgeStyle=orthogonalEdgeStyle;rounded=0;orthogonalLoop=1;jettySize=auto;html=1;exitX=1;exitY=0.5;exitDx=0;exitDy=0;exitPerimeter=0;entryX=0.484;entryY=-0.158;entryDx=0;entryDy=0;entryPerimeter=0;" edge="1" parent="1" source="9gKRPX79BNtoWNbofs5v-186" target="9gKRPX79BNtoWNbofs5v-198">
          <mxGeometry relative="1" as="geometry" />
        </mxCell>
        <mxCell id="9gKRPX79BNtoWNbofs5v-222" value="English Speaking Agents - Queue&amp;nbsp;" style="text;html=1;align=center;verticalAlign=middle;resizable=0;points=[];autosize=1;strokeColor=none;fillColor=none;" vertex="1" parent="1">
          <mxGeometry x="665.01" y="1860" width="210" height="30" as="geometry" />
        </mxCell>
        <mxCell id="9gKRPX79BNtoWNbofs5v-225" style="edgeStyle=orthogonalEdgeStyle;rounded=0;orthogonalLoop=1;jettySize=auto;html=1;entryX=0.154;entryY=0;entryDx=0;entryDy=0;entryPerimeter=0;" edge="1" parent="1" source="9gKRPX79BNtoWNbofs5v-63" target="9gKRPX79BNtoWNbofs5v-50">
          <mxGeometry relative="1" as="geometry" />
        </mxCell>
        <mxCell id="9gKRPX79BNtoWNbofs5v-227" value="Chines Call is entering into the Wave iX" style="edgeLabel;html=1;align=center;verticalAlign=middle;resizable=0;points=[];" vertex="1" connectable="0" parent="9gKRPX79BNtoWNbofs5v-225">
          <mxGeometry x="0.0463" y="-3" relative="1" as="geometry">
            <mxPoint as="offset" />
          </mxGeometry>
        </mxCell>
        <mxCell id="9gKRPX79BNtoWNbofs5v-233" value="" style="edgeStyle=orthogonalEdgeStyle;rounded=0;orthogonalLoop=1;jettySize=auto;html=1;exitX=0;exitY=0.75;exitDx=0;exitDy=0;entryX=0.5;entryY=0;entryDx=0;entryDy=0;fillColor=#f8cecc;strokeColor=#b85450;strokeWidth=3;" edge="1" parent="1" source="9gKRPX79BNtoWNbofs5v-13" target="9gKRPX79BNtoWNbofs5v-232">
          <mxGeometry relative="1" as="geometry">
            <mxPoint x="1228" y="556" as="sourcePoint" />
            <mxPoint x="336" y="788" as="targetPoint" />
          </mxGeometry>
        </mxCell>
        <mxCell id="9gKRPX79BNtoWNbofs5v-235" style="edgeStyle=orthogonalEdgeStyle;rounded=0;orthogonalLoop=1;jettySize=auto;html=1;" edge="1" parent="1" source="9gKRPX79BNtoWNbofs5v-232" target="9gKRPX79BNtoWNbofs5v-182">
          <mxGeometry relative="1" as="geometry">
            <Array as="points">
              <mxPoint x="928" y="476" />
            </Array>
          </mxGeometry>
        </mxCell>
        <mxCell id="9gKRPX79BNtoWNbofs5v-237" value="NO" style="edgeLabel;html=1;align=center;verticalAlign=middle;resizable=0;points=[];" vertex="1" connectable="0" parent="9gKRPX79BNtoWNbofs5v-235">
          <mxGeometry x="-0.0115" y="2" relative="1" as="geometry">
            <mxPoint as="offset" />
          </mxGeometry>
        </mxCell>
        <mxCell id="9gKRPX79BNtoWNbofs5v-232" value="If Agents Available in the Queue" style="rhombus;whiteSpace=wrap;html=1;" vertex="1" parent="1">
          <mxGeometry x="860" y="360" width="135" height="82" as="geometry" />
        </mxCell>
        <mxCell id="9gKRPX79BNtoWNbofs5v-251" style="edgeStyle=orthogonalEdgeStyle;rounded=0;orthogonalLoop=1;jettySize=auto;html=1;exitX=0.5;exitY=1;exitDx=0;exitDy=0;entryX=0.5;entryY=0;entryDx=0;entryDy=0;" edge="1" parent="1" source="9gKRPX79BNtoWNbofs5v-240" target="9gKRPX79BNtoWNbofs5v-243">
          <mxGeometry relative="1" as="geometry" />
        </mxCell>
        <mxCell id="9gKRPX79BNtoWNbofs5v-240" value="Forward Language Information to the translate" style="rounded=1;whiteSpace=wrap;html=1;fillColor=#dae8fc;strokeColor=#6c8ebf;" vertex="1" parent="1">
          <mxGeometry x="124.15000000000003" y="670" width="120" height="60" as="geometry" />
        </mxCell>
        <mxCell id="9gKRPX79BNtoWNbofs5v-252" style="edgeStyle=orthogonalEdgeStyle;rounded=0;orthogonalLoop=1;jettySize=auto;html=1;entryX=0.5;entryY=0;entryDx=0;entryDy=0;" edge="1" parent="1" source="9gKRPX79BNtoWNbofs5v-243" target="9gKRPX79BNtoWNbofs5v-228">
          <mxGeometry relative="1" as="geometry" />
        </mxCell>
        <mxCell id="9gKRPX79BNtoWNbofs5v-243" value="" style="shape=image;verticalLabelPosition=bottom;labelBackgroundColor=default;verticalAlign=top;aspect=fixed;imageAspect=0;image=https://www.ibex.co/web/assets/images/wave-ix/waveix-logo-black.svg;imageBorder=default;" vertex="1" parent="1">
          <mxGeometry x="37.15000000000009" y="760" width="294" height="90.16" as="geometry" />
        </mxCell>
        <mxCell id="9gKRPX79BNtoWNbofs5v-249" style="edgeStyle=orthogonalEdgeStyle;rounded=0;orthogonalLoop=1;jettySize=auto;html=1;entryX=0.5;entryY=0;entryDx=0;entryDy=0;" edge="1" parent="1" source="9gKRPX79BNtoWNbofs5v-248" target="9gKRPX79BNtoWNbofs5v-240">
          <mxGeometry relative="1" as="geometry" />
        </mxCell>
        <mxCell id="9gKRPX79BNtoWNbofs5v-248" value="BOT Ask Customer for the language" style="rounded=1;whiteSpace=wrap;html=1;fillColor=#dae8fc;strokeColor=#6c8ebf;" vertex="1" parent="1">
          <mxGeometry x="124.15000000000003" y="560" width="120" height="60" as="geometry" />
        </mxCell>
        <mxCell id="9gKRPX79BNtoWNbofs5v-253" style="edgeStyle=orthogonalEdgeStyle;rounded=0;orthogonalLoop=1;jettySize=auto;html=1;entryX=0.557;entryY=0.389;entryDx=0;entryDy=0;entryPerimeter=0;" edge="1" parent="1" source="9gKRPX79BNtoWNbofs5v-182" target="9gKRPX79BNtoWNbofs5v-220">
          <mxGeometry relative="1" as="geometry" />
        </mxCell>
      </root>
    </mxGraphModel>
  </diagram>
</mxfile>
